<?xml version="1.0" encoding="UTF-8" standalone="no"?><!DOCTYPE svg PUBLIC "-//W3C//DTD SVG 1.1//EN" "http://www.w3.org/Graphics/SVG/1.1/DTD/svg11.dtd"><svg width="100%" height="100%" viewBox="0 0 5890 1914" version="1.1" xmlns="http://www.w3.org/2000/svg" xmlns:xlink="http://www.w3.org/1999/xlink" xml:space="preserve" xmlns:serif="http://www.serif.com/" style="fill-rule:evenodd;clip-rule:evenodd;stroke-linejoin:round;stroke-miterlimit:2;"><path d="M5334.65,1743.42c-18.226,42.06 -41.009,74.307 -68.348,96.74c-27.34,22.432 -54.329,39.256 -80.968,50.473c-30.844,12.618 -63.792,20.329 -98.842,23.133l-0,-84.122c23.834,-1.402 46.266,-6.309 67.297,-14.721c18.226,-7.01 36.453,-17.876 54.679,-32.597c18.226,-14.721 32.948,-36.102 44.164,-64.143l103.049,-246.056l-441.639,-1051.52l92.534,0l395.372,942.162l395.371,-942.162l92.534,0l-555.203,1322.81Zm-3931.07,-1217.66c37.855,-28.04 85.173,-52.576 141.955,-73.606c56.783,-21.031 121.626,-31.546 194.532,-31.546c57.483,0 111.461,7.711 161.934,23.134c50.473,15.422 94.637,38.205 132.491,68.348c37.855,30.144 67.648,68.349 89.38,114.616c21.731,46.267 32.597,99.544 32.597,159.831l-0,706.622l-84.122,-0l0,-132.492c-16.824,19.629 -37.154,38.907 -60.988,57.834c-23.835,18.927 -50.123,35.401 -78.864,49.421c-28.742,14.021 -59.586,25.237 -92.534,33.649c-32.948,8.412 -66.246,12.618 -99.894,12.618c-57.483,0 -111.461,-8.762 -161.934,-26.288c-50.473,-17.525 -94.637,-41.36 -132.492,-71.503c-37.855,-30.144 -67.648,-65.194 -89.379,-105.152c-21.732,-39.958 -32.597,-83.07 -32.597,-129.337c-0,-46.267 11.917,-89.379 35.751,-129.337c23.835,-39.958 56.782,-75.009 98.843,-105.152c42.061,-30.144 90.781,-53.978 146.162,-71.504c55.38,-17.525 114.615,-26.288 177.706,-26.288l290.22,0l0,-63.091c0,-49.071 -8.763,-91.482 -26.288,-127.234c-17.525,-35.751 -41.36,-65.194 -71.503,-88.327c-30.144,-23.134 -65.195,-39.958 -105.152,-50.473c-39.958,-10.516 -83.07,-15.773 -129.337,-15.773c-63.092,-0 -117.07,8.412 -161.934,25.236c-44.865,16.825 -82.72,35.051 -113.565,54.679l-60.988,-58.885Zm2335.64,904.308c79.915,-0 146.161,-16.474 198.737,-49.422c52.576,-32.947 99.193,-76.06 139.852,-129.337l65.195,56.782c-47.669,63.092 -103.75,113.214 -168.244,150.368c-64.493,37.153 -143.006,55.73 -235.54,55.73c-70.102,0 -134.244,-14.371 -192.428,-43.112c-58.185,-28.742 -107.957,-67.648 -149.316,-116.719c-41.36,-49.071 -73.607,-106.904 -96.74,-173.501c-23.134,-66.596 -34.7,-137.749 -34.7,-213.458c-0,-75.71 11.539,-146.863 34.618,-213.459c23.078,-66.596 55.254,-124.43 96.526,-173.501c41.272,-49.071 90.935,-87.977 148.987,-116.719c58.053,-28.741 122.053,-43.112 192.001,-43.112c69.948,0 133.949,14.371 192.001,43.112c58.053,28.742 107.715,67.648 148.988,116.719c41.272,49.071 73.447,106.905 96.526,173.501c23.079,66.596 34.618,137.749 34.618,213.459l-0,42.061l-860.144,-0c4.206,58.885 16.474,113.914 36.803,165.088c20.33,51.174 47.319,95.689 80.967,133.543c33.649,37.855 73.256,67.648 118.822,89.38c45.566,21.731 96.39,32.597 152.471,32.597Zm1068.36,-1008.58l34.96,83.238c-65.773,0.031 -123.157,10.897 -172.155,32.596c-49.071,21.731 -90.08,51.524 -123.028,89.379c-32.947,37.855 -57.833,82.72 -74.657,134.595c-16.825,51.875 -25.237,108.657 -25.237,170.346l0,561.512l-84.122,-0l0,-1051.52l84.122,-0l0,233.437c29.443,-77.111 76.06,-138.801 139.852,-185.068c56.597,-41.048 130.023,-63.887 220.265,-68.515Zm-2366.62,-421.493l-0,1098.43l637.902,-656.787l115.667,-0l-435.329,447.947l435.329,603.573l-103.049,-0l-391.165,-542.585l-259.355,265.63l-1.422,276.955l-84.122,-0l0.181,-1493.16l85.363,-0Zm-2440.96,1493.16l0,-1493.16l740.27,-0c54.679,-0 105.853,10.515 153.522,31.546c47.669,21.03 89.38,49.421 125.131,85.173c35.752,35.751 64.143,77.462 85.173,125.131c21.031,47.669 31.546,98.843 31.546,153.522c-0,70.101 -16.622,133.893 -49.865,191.376c-33.243,57.483 -77.457,103.75 -132.64,138.801c78.383,28.041 142.416,75.709 192.1,143.007c49.684,67.297 74.527,144.409 74.527,231.334c-0,54.679 -10.499,105.853 -31.497,153.522c-20.997,47.669 -49.339,89.379 -85.025,125.131c-35.686,35.752 -77.325,63.792 -124.917,84.122c-47.593,20.329 -98.673,30.494 -153.243,30.494l-825.082,-0Zm1782.12,-559.409c-51.875,0 -100.595,6.66 -146.161,19.979c-45.566,13.319 -85.173,31.195 -118.822,53.627c-33.648,22.433 -60.287,48.721 -79.915,78.865c-19.629,30.143 -29.443,62.039 -29.443,95.688c0,33.649 8.763,65.545 26.288,95.688c17.526,30.144 41.36,56.432 71.504,78.864c30.143,22.433 65.194,40.308 105.152,53.628c39.957,13.319 83.07,19.979 129.337,19.979c44.865,-0 86.925,-6.309 126.182,-18.928c39.257,-12.618 73.957,-29.442 104.101,-50.473c30.143,-21.03 53.978,-45.916 71.503,-74.658c17.525,-28.741 27.69,-59.936 30.494,-93.585l0,-258.674l-290.22,0Zm-1698,-145.11l-0,620.397l742.373,0c43.463,0 84.122,-8.061 121.976,-24.185c37.855,-16.123 70.803,-38.205 98.843,-66.245c28.041,-28.041 50.123,-60.638 66.246,-97.792c16.123,-37.154 24.185,-77.462 24.185,-120.925c0,-43.463 -8.062,-84.121 -24.185,-121.976c-16.123,-37.855 -38.205,-70.802 -66.246,-98.843c-28.04,-28.041 -60.988,-50.122 -98.843,-66.246c-37.854,-16.123 -78.513,-24.185 -121.976,-24.185l-742.373,0Zm3655.1,-283.91c-56.081,-0 -106.905,10.865 -152.471,32.597c-45.566,21.731 -85.173,51.524 -118.822,89.379c-33.648,37.855 -60.637,82.369 -80.967,133.543c-20.329,51.174 -32.597,106.204 -36.803,165.089l776.022,-0c-4.206,-58.885 -16.123,-113.915 -35.751,-165.089c-19.629,-51.174 -46.267,-95.688 -79.916,-133.543c-33.649,-37.855 -73.256,-67.648 -118.822,-89.379c-45.566,-21.732 -96.389,-32.597 -152.47,-32.597Zm-2998.95,199.789c43.463,-0 84.122,-8.062 121.977,-24.185c37.854,-16.124 70.802,-38.206 98.843,-66.246c28.04,-28.041 50.122,-60.638 66.245,-97.792c16.124,-37.153 24.185,-77.462 24.185,-120.924c0,-43.463 -8.061,-84.122 -24.185,-121.977c-16.123,-37.854 -38.205,-70.802 -66.245,-98.843c-28.041,-28.04 -60.989,-50.122 -98.843,-66.245c-37.855,-16.124 -78.514,-24.185 -121.977,-24.185l-656.148,-0l-0,620.397l656.148,-0Z" style="fill:#e23d28;"/></svg>