<?xml version="1.0" encoding="UTF-8" standalone="no"?><!DOCTYPE svg PUBLIC "-//W3C//DTD SVG 1.1//EN" "http://www.w3.org/Graphics/SVG/1.1/DTD/svg11.dtd"><svg width="100%" height="100%" viewBox="0 0 4881 7885" version="1.1" xmlns="http://www.w3.org/2000/svg" xmlns:xlink="http://www.w3.org/1999/xlink" xml:space="preserve" xmlns:serif="http://www.serif.com/" style="fill-rule:evenodd;clip-rule:evenodd;stroke-linejoin:round;stroke-miterlimit:2;"><g id="Full-Logo" serif:id="Full Logo"><path d="M2442.59,2239.34l302.392,-523.757l25.481,-12.24c1042.89,159.281 1842.78,1060.88 1842.78,2147.83c0,1199.19 -973.592,2172.79 -2172.78,2172.79c-1199.19,-0 -2172.78,-973.593 -2172.78,-2172.79c-0,-1087.79 801.118,-1989.94 1845.19,-2148.2c9.238,-1.4 18.488,2.457 23.995,10.006c1.331,1.824 2.39,3.791 3.166,5.846l302.566,520.511Zm-339.382,-484.137c-1011.56,161.798 -1785.43,1039.23 -1785.43,2095.97c-0,1171.54 951.139,2122.68 2122.68,2122.68c1171.54,-0 2122.68,-951.14 2122.68,-2122.68c0,-1056.03 -772.83,-1933 -1783.35,-2095.64l-315.415,546.315c-4.469,7.741 -12.723,12.514 -21.661,12.528c-8.938,0.013 -17.206,-4.737 -21.698,-12.464l-317.795,-546.71Z" style="fill:#e23d28;"/><path d="M2440.45,1048.01c-1346.79,0 -2440.45,1114.69 -2440.45,2487.97c0,1373.28 1093.66,2487.97 2440.45,2487.97c1346.79,-0 2440.45,-1114.69 2440.45,-2487.97c-0,-1373.28 -1093.67,-2487.97 -2440.45,-2487.97Zm-0,50.109c1319.4,0 2390.34,1092.5 2390.34,2437.86c-0,1345.36 -1070.94,2437.87 -2390.34,2437.87c-1319.4,-0 -2390.34,-1092.5 -2390.34,-2437.87c0,-1345.36 1070.94,-2437.86 2390.34,-2437.86Z" style="fill:#e23d28;"/><path d="M1017.19,7635.02l-0,-885.952l439.232,0c32.443,0 62.807,6.239 91.091,18.718c28.284,12.478 53.032,29.323 74.245,50.536c21.213,21.213 38.058,45.962 50.537,74.245c12.478,28.284 18.717,58.648 18.717,91.091c-0,41.594 -9.863,79.445 -29.587,113.552c-19.725,34.107 -45.958,61.559 -78.7,82.356c46.507,16.637 84.5,44.921 113.98,84.851c29.48,39.931 44.22,85.684 44.22,137.26c-0,32.444 -6.23,62.807 -18.688,91.091c-12.459,28.284 -29.275,53.033 -50.449,74.245c-21.174,21.213 -45.88,37.851 -74.119,49.913c-28.238,12.062 -58.547,18.094 -90.925,18.094l-489.554,-0Zm49.912,-418.02l0,368.107l440.48,-0c25.789,-0 49.913,-4.783 72.374,-14.35c22.461,-9.567 42.01,-22.669 58.647,-39.306c16.638,-16.638 29.74,-35.979 39.307,-58.024c9.566,-22.045 14.35,-45.961 14.35,-71.75c-0,-25.788 -4.784,-49.912 -14.35,-72.373c-9.567,-22.461 -22.669,-42.01 -39.307,-58.647c-16.637,-16.638 -36.186,-29.74 -58.647,-39.307c-22.461,-9.566 -46.585,-14.35 -72.374,-14.35l-440.48,0Zm389.32,-49.912c25.788,-0 49.913,-4.784 72.373,-14.35c22.461,-9.567 42.01,-22.669 58.648,-39.307c16.637,-16.637 29.74,-35.978 39.306,-58.023c9.567,-22.045 14.35,-45.962 14.35,-71.75c0,-25.788 -4.783,-49.913 -14.35,-72.373c-9.566,-22.461 -22.669,-42.01 -39.306,-58.648c-16.638,-16.637 -36.187,-29.739 -58.648,-39.306c-22.46,-9.567 -46.585,-14.35 -72.373,-14.35l-389.32,0l0,368.107l389.32,-0Z" style="fill:#e23d28;fill-rule:nonzero;"/><path d="M1849.99,7061.03c22.46,-16.638 50.536,-31.196 84.227,-43.674c33.691,-12.478 72.166,-18.717 115.424,-18.717c34.107,0 66.134,4.575 96.082,13.726c29.947,9.151 56.151,22.669 78.612,40.554c22.461,17.886 40.138,40.554 53.032,68.006c12.895,27.452 19.342,59.064 19.342,94.834l-0,419.268l-49.913,-0l-0,-78.613c-9.983,11.646 -22.045,23.085 -36.187,34.315c-14.142,11.23 -29.74,21.005 -46.793,29.324c-17.054,8.319 -35.355,14.974 -54.904,19.965c-19.549,4.991 -39.306,7.487 -59.271,7.487c-34.107,-0 -66.135,-5.199 -96.082,-15.598c-29.948,-10.398 -56.152,-24.54 -78.613,-42.426c-22.461,-17.885 -40.138,-38.682 -53.032,-62.391c-12.894,-23.708 -19.342,-49.289 -19.342,-76.741c0,-27.452 7.071,-53.032 21.213,-76.74c14.142,-23.709 33.691,-44.506 58.648,-62.391c24.956,-17.886 53.864,-32.028 86.723,-42.426c32.859,-10.399 68.006,-15.598 105.441,-15.598l172.199,0l-0,-37.435c-0,-29.115 -5.199,-54.28 -15.598,-75.493c-10.398,-21.212 -24.54,-38.682 -42.426,-52.408c-17.885,-13.726 -38.682,-23.708 -62.391,-29.948c-23.708,-6.239 -49.288,-9.358 -76.74,-9.358c-37.435,-0 -69.462,4.991 -96.082,14.974c-26.621,9.982 -49.081,20.797 -67.383,32.443l-36.186,-34.939Zm224.607,242.077c-30.78,-0 -59.687,3.951 -86.723,11.854c-27.037,7.903 -50.537,18.509 -70.502,31.819c-19.965,13.311 -35.771,28.908 -47.417,46.794c-11.647,17.885 -17.47,36.81 -17.47,56.775c0,19.966 5.199,38.891 15.598,56.776c10.398,17.886 24.54,33.483 42.426,46.793c17.885,13.31 38.682,23.917 62.391,31.82c23.708,7.903 49.289,11.854 76.741,11.854c26.62,0 51.576,-3.743 74.869,-11.23c23.292,-7.487 43.881,-17.47 61.767,-29.948c17.885,-12.478 32.027,-27.244 42.426,-44.298c10.398,-17.053 16.429,-35.562 18.093,-55.527l-0,-153.482l-172.199,-0Z" style="fill:#e23d28;fill-rule:nonzero;"/><path d="M3235.81,7597.59c47.417,0 86.723,-9.775 117.918,-29.324c31.196,-19.549 58.856,-45.129 82.98,-76.741l38.683,33.692c-28.284,37.434 -61.559,67.174 -99.826,89.219c-38.266,22.044 -84.851,33.067 -139.755,33.067c-41.594,-0 -79.653,-8.527 -114.176,-25.581c-34.523,-17.053 -64.055,-40.138 -88.595,-69.253c-24.54,-29.116 -43.674,-63.431 -57.4,-102.946c-13.726,-39.514 -20.589,-81.732 -20.589,-126.653c0,-44.922 6.847,-87.139 20.541,-126.654c13.693,-39.514 32.784,-73.829 57.273,-102.945c24.488,-29.116 53.955,-52.2 88.4,-69.254c34.445,-17.053 72.419,-25.58 113.922,-25.58c41.503,0 79.477,8.527 113.922,25.58c34.445,17.054 63.911,40.138 88.4,69.254c24.488,29.116 43.579,63.431 57.273,102.945c13.693,39.515 20.54,81.732 20.54,126.654l-0,24.956l-510.358,0c2.496,34.939 9.775,67.59 21.837,97.954c12.062,30.364 28.076,56.776 48.041,79.237c19.965,22.46 43.466,40.138 70.502,53.032c27.036,12.894 57.191,19.341 90.467,19.341Zm-0,-549.04c-33.276,-0 -63.431,6.447 -90.467,19.341c-27.036,12.894 -50.537,30.572 -70.502,53.032c-19.965,22.461 -35.979,48.873 -48.041,79.237c-12.062,30.363 -19.341,63.015 -21.837,97.954l460.445,-0c-2.495,-34.939 -9.566,-67.591 -21.213,-97.954c-11.646,-30.364 -27.452,-56.776 -47.417,-79.237c-19.965,-22.46 -43.465,-40.138 -70.502,-53.032c-27.036,-12.894 -57.191,-19.341 -90.466,-19.341Z" style="fill:#e23d28;fill-rule:nonzero;"/><path d="M3869.72,6999.16l20.743,49.388c-39.025,0.019 -73.074,6.466 -102.146,19.341c-29.115,12.894 -53.448,30.572 -72.997,53.032c-19.549,22.461 -34.315,49.081 -44.298,79.861c-9.982,30.779 -14.974,64.47 -14.974,101.073l0,333.168l-49.912,-0l-0,-623.91l49.912,0l0,138.508c17.47,-45.753 45.13,-82.356 82.98,-109.808c33.581,-24.355 77.148,-37.907 130.692,-40.653Z" style="fill:#e23d28;fill-rule:nonzero;"/><path d="M118.006,7585.12l768.656,-0l0,49.912l-885.951,0l-0,-49.912l831.047,-390.568l-831.047,-390.567l-0,-49.913l885.951,0l0,49.913l-768.656,0l768.656,363.115l0,54.904l-768.656,363.116Z" style="fill:#e23d28;fill-rule:nonzero;"/><path d="M312.666,6576.14c-16.638,-22.461 -31.196,-50.537 -43.674,-84.228c-12.478,-33.691 -18.717,-72.166 -18.717,-115.423c-0,-34.107 4.575,-66.135 13.726,-96.082c9.15,-29.948 22.668,-56.152 40.554,-78.613c17.885,-22.461 40.554,-40.138 68.006,-53.032c27.452,-12.894 59.063,-19.341 94.834,-19.341l419.267,-0l0,49.912l-78.612,0c11.646,9.983 23.084,22.045 34.315,36.187c11.23,14.142 21.005,29.74 29.323,46.793c8.319,17.054 14.974,35.355 19.966,54.904c4.991,19.549 7.486,39.307 7.486,59.272c0,34.107 -5.199,66.134 -15.597,96.082c-10.399,29.947 -24.541,56.152 -42.426,78.612c-17.886,22.461 -38.682,40.138 -62.391,53.033c-23.709,12.894 -49.289,19.341 -76.741,19.341c-27.452,-0 -53.032,-7.071 -76.741,-21.213c-23.708,-14.142 -44.505,-33.691 -62.391,-58.648c-17.885,-24.956 -32.027,-53.864 -42.426,-86.723c-10.398,-32.859 -15.597,-68.006 -15.597,-105.441l-0,-172.199l-37.435,0c-29.116,0 -54.28,5.2 -75.493,15.598c-21.213,10.399 -38.682,24.54 -52.408,42.426c-13.726,17.885 -23.709,38.682 -29.948,62.391c-6.239,23.708 -9.359,49.289 -9.359,76.741c0,37.434 4.992,69.462 14.974,96.082c9.983,26.62 20.797,49.081 32.444,67.382l-34.939,36.187Zm242.077,-224.608c-0,30.78 3.951,59.688 11.854,86.724c7.903,27.036 18.509,50.536 31.819,70.501c13.31,19.966 28.908,35.771 46.793,47.418c17.886,11.646 36.811,17.469 56.776,17.469c19.965,0 38.89,-5.199 56.776,-15.598c17.885,-10.398 33.483,-24.54 46.793,-42.426c13.31,-17.885 23.917,-38.682 31.819,-62.39c7.903,-23.709 11.855,-49.289 11.855,-76.741c-0,-26.62 -3.744,-51.577 -11.231,-74.869c-7.487,-23.293 -17.469,-43.882 -29.947,-61.767c-12.478,-17.886 -27.244,-32.028 -44.298,-42.426c-17.053,-10.399 -35.563,-16.43 -55.528,-18.094l-153.481,0l-0,172.199Zm-409.285,122.287l-112.304,-194.66l42.426,-24.957l112.304,194.66l-42.426,24.957Z" style="fill:#e23d28;fill-rule:nonzero;"/><path d="M4182.45,7783.51c-10.814,24.956 -24.332,44.09 -40.554,57.4c-16.222,13.31 -32.235,23.292 -48.041,29.947c-18.301,7.487 -37.851,12.063 -58.648,13.726l0,-49.912c14.142,-0.832 27.452,-3.744 39.931,-8.735c10.814,-4.16 21.629,-10.607 32.443,-19.341c10.814,-8.735 19.549,-21.421 26.204,-38.059l61.143,-145.995l-262.042,-623.909l54.904,0l234.59,559.023l234.59,-559.023l54.904,0l-329.424,784.878Z" style="fill:#e23d28;fill-rule:nonzero;"/><path d="M2415.4,25.055l0,1048.01c0,13.828 11.227,25.054 25.055,25.054c13.828,0 25.054,-11.226 25.054,-25.054l0,-1048.01c0,-13.828 -11.226,-25.055 -25.054,-25.055c-13.828,0 -25.055,11.227 -25.055,25.055Z" style="fill:#e23d28;"/><path d="M2965.81,3188.84l1095.93,-740.909c11.455,-7.745 14.468,-23.333 6.724,-34.789c-7.745,-11.455 -23.333,-14.468 -34.789,-6.724l-1095.93,740.909c-11.456,7.745 -14.469,23.333 -6.724,34.789c7.745,11.456 23.333,14.469 34.789,6.724Z" style="fill:#e23d28;"/><path d="M3730.21,3838.57l351.819,-1393.88c3.384,-13.407 -4.754,-27.04 -18.161,-30.424c-13.408,-3.384 -27.041,4.754 -30.425,18.161l-351.818,1393.88c-3.384,13.407 4.753,27.04 18.161,30.424c13.407,3.384 27.04,-4.754 30.424,-18.161Z" style="fill:#e23d28;"/><path d="M3709.57,3857.23l877.233,-129.241c13.68,-2.015 23.15,-14.758 21.135,-28.438c-2.016,-13.681 -14.759,-23.151 -28.439,-21.136l-877.232,129.241c-13.681,2.016 -23.151,14.759 -21.136,28.439c2.016,13.68 14.759,23.151 28.439,21.135Z" style="fill:#e23d28;"/><path d="M3551.9,4789.92l1049.14,-1069.17c9.685,-9.87 9.535,-25.746 -0.335,-35.431c-9.87,-9.685 -25.746,-9.534 -35.431,0.335l-1049.14,1069.17c-9.685,9.87 -9.535,25.746 0.335,35.431c9.87,9.685 25.746,9.534 35.431,-0.335Z" style="fill:#e23d28;"/><path d="M3527.97,4796.68l746.982,185.626c13.42,3.335 27.023,-4.853 30.357,-18.273c3.335,-13.42 -4.852,-27.022 -18.272,-30.357l-746.982,-185.626c-13.42,-3.335 -27.022,4.852 -30.357,18.272c-3.335,13.42 4.853,27.023 18.272,30.358Z" style="fill:#e23d28;"/><path d="M2920.03,5282l532.412,473.374c10.334,9.188 26.184,8.258 35.372,-2.076c9.188,-10.334 8.258,-26.184 -2.076,-35.372l-532.413,-473.374c-10.334,-9.188 -26.183,-8.258 -35.371,2.076c-9.188,10.334 -8.258,26.184 2.076,35.372Z" style="fill:#e23d28;"/><path d="M2942.23,5287.71l1344.32,-305.285c13.485,-3.062 21.946,-16.496 18.884,-29.981c-3.062,-13.484 -16.496,-21.946 -29.981,-18.884l-1344.32,305.285c-13.485,3.063 -21.946,16.497 -18.884,29.981c3.062,13.485 16.496,21.947 29.981,18.884Z" style="fill:#e23d28;"/><path d="M2420.2,1084.17l324.016,655.04c6.131,12.394 21.172,17.479 33.566,11.348c12.395,-6.131 17.48,-21.171 11.349,-33.566l-324.017,-655.039c-6.131,-12.394 -21.171,-17.479 -33.566,-11.349c-12.394,6.131 -17.479,21.172 -11.348,33.566Z" style="fill:#e23d28;"/><path d="M3067.39,1162.11l-251.477,3369.89c-1.029,13.789 9.331,25.82 23.121,26.849c13.79,1.029 25.821,-9.331 26.85,-23.12l251.476,-3369.89c1.029,-13.789 -9.331,-25.82 -23.12,-26.849c-13.79,-1.029 -25.821,9.331 -26.85,23.12Z" style="fill:#e23d28;"/><path d="M3282.46,784.624l-861.502,1492.17c-6.914,11.975 -2.805,27.311 9.171,34.225c11.975,6.914 27.311,2.805 34.225,-9.171l861.502,-1492.16c6.914,-11.976 2.805,-27.311 -9.17,-34.225c-11.976,-6.914 -27.312,-2.805 -34.226,9.17Z" style="fill:#e23d28;"/><path d="M3237.47,1384.76l-816.748,1479.14c-6.684,12.105 -2.283,27.36 9.822,34.044c12.105,6.684 27.36,2.283 34.044,-9.822l816.748,-1479.14c6.685,-12.105 2.284,-27.359 -9.822,-34.044c-12.105,-6.684 -27.359,-2.283 -34.044,9.822Z" style="fill:#e23d28;"/><path d="M3181.87,2132.58l-763.121,1321.76c-6.914,11.976 -2.805,27.311 9.171,34.225c11.975,6.914 27.311,2.805 34.225,-9.17l763.12,-1321.76c6.914,-11.975 2.805,-27.311 -9.17,-34.225c-11.976,-6.914 -27.311,-2.805 -34.225,9.17Z" style="fill:#e23d28;"/><path d="M3131.58,2806.56l-712.825,1234.65c-6.914,11.975 -2.805,27.311 9.171,34.225c11.975,6.914 27.311,2.805 34.225,-9.171l712.825,-1234.65c6.914,-11.976 2.805,-27.312 -9.17,-34.226c-11.976,-6.914 -27.312,-2.804 -34.226,9.171Z" style="fill:#e23d28;"/><path d="M3081.28,3480.53l-662.53,1147.54c-6.914,11.976 -2.805,27.312 9.171,34.226c11.975,6.914 27.311,2.804 34.225,-9.171l662.53,-1147.54c6.914,-11.975 2.805,-27.311 -9.171,-34.225c-11.975,-6.914 -27.311,-2.805 -34.225,9.171Z" style="fill:#e23d28;"/><path d="M1945.36,3147.33l-1095.93,-740.909c-11.456,-7.744 -27.044,-4.731 -34.789,6.724c-7.744,11.456 -4.731,27.044 6.724,34.789l1095.93,740.909c11.456,7.745 27.044,4.732 34.789,-6.724c7.745,-11.456 4.732,-27.044 -6.724,-34.789Z" style="fill:#e23d28;"/><path d="M1201.48,3826.31l-351.818,-1393.88c-3.384,-13.407 -17.017,-21.545 -30.425,-18.161c-13.407,3.384 -21.545,17.017 -18.161,30.424l351.819,1393.88c3.384,13.407 17.017,21.545 30.424,18.161c13.408,-3.384 21.545,-17.017 18.161,-30.424Z" style="fill:#e23d28;"/><path d="M1180.84,3807.65l-877.232,-129.241c-13.68,-2.015 -26.423,7.455 -28.439,21.136c-2.015,13.68 7.455,26.423 21.135,28.438l877.233,129.241c13.68,2.016 26.423,-7.455 28.439,-21.135c2.015,-13.68 -7.455,-26.423 -21.136,-28.439Z" style="fill:#e23d28;"/><path d="M1366.98,4754.82l-1049.14,-1069.17c-9.685,-9.869 -25.561,-10.02 -35.431,-0.335c-9.87,9.685 -10.02,25.561 -0.335,35.431l1049.14,1069.17c9.685,9.869 25.561,10.02 35.431,0.335c9.87,-9.685 10.02,-25.561 0.335,-35.431Z" style="fill:#e23d28;"/><path d="M1343.05,4748.05l-746.982,185.626c-13.42,3.335 -21.607,16.937 -18.273,30.357c3.335,13.42 16.938,21.608 30.358,18.273l746.981,-185.626c13.42,-3.335 21.608,-16.938 18.273,-30.358c-3.335,-13.42 -16.937,-21.607 -30.357,-18.272Z" style="fill:#e23d28;"/><path d="M1929.78,5244.56l-532.413,473.374c-10.334,9.188 -11.264,25.038 -2.076,35.372c9.188,10.334 25.038,11.264 35.372,2.076l532.412,-473.374c10.334,-9.188 11.264,-25.038 2.076,-35.372c-9.188,-10.334 -25.037,-11.264 -35.371,-2.076Z" style="fill:#e23d28;"/><path d="M1951.98,5238.85l-1344.32,-305.285c-13.485,-3.062 -26.919,5.4 -29.981,18.884c-3.062,13.485 5.399,26.919 18.884,29.981l1344.32,305.285c13.485,3.063 26.919,-5.399 29.981,-18.884c3.062,-13.484 -5.4,-26.918 -18.884,-29.981Z" style="fill:#e23d28;"/><path d="M2417.99,1061.96l-324.017,655.039c-6.131,12.395 -1.046,27.435 11.349,33.566c12.394,6.131 27.435,1.046 33.566,-11.348l324.016,-655.04c6.131,-12.394 1.046,-27.435 -11.349,-33.566c-12.394,-6.13 -27.434,-1.045 -33.565,11.349Z" style="fill:#e23d28;"/><path d="M1765.75,1165.84l251.476,3369.89c1.029,13.789 13.06,24.149 26.85,23.12c13.789,-1.029 24.149,-13.06 23.12,-26.849l-251.476,-3369.89c-1.029,-13.789 -13.06,-24.149 -26.85,-23.12c-13.789,1.029 -24.149,13.06 -23.12,26.849Z" style="fill:#e23d28;"/><path d="M1557.25,809.679l861.502,1492.16c6.914,11.976 22.25,16.085 34.225,9.171c11.976,-6.914 16.085,-22.25 9.171,-34.225l-861.502,-1492.17c-6.914,-11.975 -22.25,-16.084 -34.226,-9.17c-11.975,6.914 -16.084,22.249 -9.17,34.225Z" style="fill:#e23d28;"/><path d="M1601.77,1408.98l816.749,1479.14c6.684,12.105 21.939,16.506 34.044,9.822c12.105,-6.684 16.506,-21.939 9.822,-34.044l-816.749,-1479.14c-6.684,-12.105 -21.938,-16.506 -34.043,-9.822c-12.106,6.685 -16.507,21.939 -9.823,34.044Z" style="fill:#e23d28;"/><path d="M1657.84,2157.63l763.121,1321.76c6.914,11.975 22.25,16.084 34.225,9.17c11.976,-6.914 16.085,-22.249 9.171,-34.225l-763.121,-1321.76c-6.914,-11.975 -22.25,-16.084 -34.225,-9.17c-11.975,6.914 -16.085,22.25 -9.171,34.225Z" style="fill:#e23d28;"/><path d="M1708.14,2831.61l712.825,1234.65c6.914,11.976 22.25,16.085 34.225,9.171c11.976,-6.914 16.085,-22.25 9.171,-34.225l-712.825,-1234.65c-6.914,-11.975 -22.25,-16.085 -34.226,-9.171c-11.975,6.914 -16.084,22.25 -9.17,34.226Z" style="fill:#e23d28;"/><path d="M1758.43,3505.59l662.53,1147.54c6.914,11.975 22.25,16.085 34.225,9.171c11.976,-6.914 16.085,-22.25 9.171,-34.226l-662.53,-1147.54c-6.914,-11.976 -22.25,-16.085 -34.225,-9.171c-11.976,6.914 -16.085,22.25 -9.171,34.225Z" style="fill:#e23d28;"/><path d="M2732.45,5469.14c0.49,0.44 0.967,0.904 1.428,1.391l61.298,64.634l680.236,177.24c13.381,3.487 21.415,17.181 17.928,30.562c-3.487,13.382 -17.181,21.415 -30.562,17.928l-687.169,-179.046c-4.531,-1.18 -8.64,-3.607 -11.862,-7.004l-65.982,-69.573c12.335,-11.276 23.928,-23.35 34.685,-36.132Z" style="fill:#e23d28;"/><path d="M2797.46,5358.47c0.837,0.326 1.663,0.701 2.476,1.124l680.736,354.844c12.262,6.392 17.028,21.536 10.636,33.798c-6.392,12.262 -21.536,17.028 -33.798,10.637l-680.736,-354.844l-0.064,-0.034c7.869,-14.628 14.812,-29.827 20.75,-45.525Z" style="fill:#e23d28;"/><path d="M2822.01,5224.32c0.997,0.001 2.003,0.061 3.016,0.184l114.671,13.905c13.728,1.664 23.521,14.16 21.857,27.888c-1.665,13.727 -14.161,23.521 -27.888,21.856l-114.672,-13.904c-0.104,-0.013 -0.208,-0.026 -0.313,-0.04c2.167,-16.332 3.299,-32.982 3.329,-49.889Z" style="fill:#e23d28;"/><path d="M2809.79,5127.56c0.722,-0.162 1.459,-0.293 2.207,-0.392l1465.71,-194.008c13.708,-1.815 26.311,7.842 28.125,21.55c1.815,13.709 -7.842,26.311 -21.55,28.126l-1465.13,193.931c-2.055,-16.758 -5.199,-33.181 -9.364,-49.207Z" style="fill:#e23d28;"/><path d="M2777.29,5044.36c0.605,-0.298 1.225,-0.573 1.862,-0.824l745.658,-294.468c12.862,-5.079 27.427,1.24 32.506,14.101c5.079,12.861 -1.239,27.427 -14.101,32.506l-745.303,294.327c-5.892,-15.735 -12.793,-30.979 -20.622,-45.642Z" style="fill:#e23d28;"/><path d="M2727.15,4971.97c0.497,-0.409 1.013,-0.8 1.548,-1.174l1840.09,-1288.12c11.329,-7.93 26.964,-5.171 34.894,6.157c7.93,11.328 5.171,26.964 -6.157,34.894l-1839.84,1287.94c-9.312,-13.903 -19.514,-27.161 -30.533,-39.702Z" style="fill:#e23d28;"/><path d="M2670.52,4919.3c0.331,-0.41 0.678,-0.813 1.041,-1.206l1015.94,-1102.63c9.37,-10.169 25.233,-10.819 35.402,-1.449c10.17,9.37 10.819,25.234 1.449,35.403l-1015.94,1102.63l-0.028,0.03c-11.883,-11.724 -24.53,-22.676 -37.864,-32.778Z" style="fill:#e23d28;"/><path d="M2610.86,4882.2l1420.9,-2461.07c6.914,-11.975 22.25,-16.084 34.225,-9.17c11.976,6.914 16.085,22.25 9.171,34.225l-1421.05,2461.34c-13.795,-9.348 -28.235,-17.817 -43.239,-25.325Z" style="fill:#e23d28;"/><path d="M2414.99,5604.36c8.421,0.557 16.906,0.839 25.456,0.839c8.423,0 16.784,-0.273 25.054,-0.812l0,1796.43l378.494,-389.699l68.63,0l-258.299,265.786l258.299,358.124l-61.144,-0l-232.094,-321.938l-153.886,157.609l-0.843,164.329l-49.913,-0l0.246,-2030.67Zm0.092,-761.448l0.309,-2549.76c0,-13.828 11.227,-25.054 25.055,-25.054c13.828,-0 25.054,11.226 25.054,25.054l0,2549.74c-8.27,-0.539 -16.631,-0.812 -25.054,-0.812c-8.529,-0 -16.993,0.28 -25.364,0.833Z" style="fill:#e23d28;fill-rule:nonzero;"/><path d="M2228.4,4906.46l-1420.43,-2460.26c-6.914,-11.975 -2.805,-27.311 9.171,-34.225c11.975,-6.914 27.311,-2.805 34.225,9.17l1420.4,2460.21c-4.69,2.317 -9.325,4.729 -13.901,7.229l-0.079,0.044c-2.713,1.484 -5.406,3 -8.089,4.552l-0.13,0.075c-2.666,1.545 -5.312,3.121 -7.938,4.73l-0.12,0.073c-2.639,1.617 -5.257,3.264 -7.862,4.949l-0.042,0.028c-1.513,0.979 -3.019,1.968 -4.516,2.965l-0.688,0.462Z" style="fill:#e23d28;"/><path d="M2173.68,4950.94l-1014.92,-1101.52c-9.37,-10.169 -8.721,-26.033 1.448,-35.403c10.17,-9.37 26.033,-8.72 35.403,1.449l1015.94,1102.63l0.175,0.195c-13.387,10.048 -26.094,20.955 -38.048,32.65Z" style="fill:#e23d28;"/><path d="M2123.92,5010.61l-1838.33,-1286.89c-11.328,-7.93 -14.087,-23.566 -6.157,-34.894c7.93,-11.328 23.565,-14.087 34.893,-6.157l1840.09,1288.12l0.23,0.165c-11.075,12.514 -21.341,25.761 -30.718,39.659Z" style="fill:#e23d28;"/><path d="M2083.27,5089.24l-743.381,-293.568c-12.861,-5.079 -19.179,-19.645 -14.1,-32.506c5.079,-12.861 19.644,-19.18 32.506,-14.101l745.658,294.468l0.077,0.031c-7.879,14.673 -14.825,29.923 -20.76,45.676Z" style="fill:#e23d28;"/><path d="M2061.78,5176.48l-1462.96,-193.643c-13.709,-1.815 -23.365,-14.417 -21.55,-28.126c1.814,-13.708 14.417,-23.365 28.125,-21.55l1465.71,194.008l0.096,0.013c-4.187,16.05 -7.354,32.509 -9.427,49.298Z" style="fill:#e23d28;"/><path d="M2058.89,5224.42c0.033,16.965 1.176,33.671 3.364,50.056l-112.811,13.678c-13.727,1.665 -26.224,-8.129 -27.888,-21.856c-1.665,-13.728 8.129,-26.224 21.856,-27.888l114.672,-13.905c0.269,-0.032 0.537,-0.061 0.807,-0.085Z" style="fill:#e23d28;"/><path d="M2083.75,5359.3c5.987,15.719 12.985,30.941 20.921,45.594l-679.076,353.978c-12.262,6.391 -27.407,1.625 -33.798,-10.637c-6.392,-12.262 -1.626,-27.406 10.636,-33.798l680.736,-354.844c0.193,-0.1 0.386,-0.197 0.581,-0.293Z" style="fill:#e23d28;"/><path d="M2149.44,5470.32c10.832,12.762 22.488,24.804 34.878,36.037l-64.958,68.494c-3.222,3.397 -7.331,5.824 -11.862,7.004l-687.169,179.046c-13.381,3.487 -27.076,-4.546 -30.562,-17.928c-3.487,-13.381 4.547,-27.075 17.928,-30.562l680.236,-177.24l61.298,-64.634l0.211,-0.217Z" style="fill:#e23d28;"/><path d="M2440.45,4817.02c-224.417,0 -406.615,182.198 -406.615,406.615c0,224.417 182.198,406.615 406.615,406.615c224.417,-0 406.615,-182.198 406.615,-406.615c-0,-224.417 -182.198,-406.615 -406.615,-406.615Zm-0,50.109c196.761,0 356.506,159.745 356.506,356.506c-0,196.761 -159.745,356.506 -356.506,356.506c-196.761,-0 -356.506,-159.745 -356.506,-356.506c0,-196.761 159.745,-356.506 356.506,-356.506Z" style="fill:#e23d28;"/></g></svg>