<?xml version="1.0" encoding="UTF-8" standalone="no"?><!DOCTYPE svg PUBLIC "-//W3C//DTD SVG 1.1//EN" "http://www.w3.org/Graphics/SVG/1.1/DTD/svg11.dtd"><svg width="100%" height="100%" viewBox="0 0 7603 2959" version="1.1" xmlns="http://www.w3.org/2000/svg" xmlns:xlink="http://www.w3.org/1999/xlink" xml:space="preserve" xmlns:serif="http://www.serif.com/" style="fill-rule:evenodd;clip-rule:evenodd;stroke-linejoin:round;stroke-miterlimit:2;"><path d="M7047.79,2787.77c-18.226,42.061 -41.009,74.307 -68.349,96.74c-27.339,22.432 -54.328,39.257 -80.967,50.473c-30.845,12.618 -63.792,20.329 -98.843,23.133l0,-84.121c23.835,-1.402 46.267,-6.309 67.297,-14.722c18.227,-7.01 36.453,-17.875 54.679,-32.597c18.227,-14.721 32.948,-36.102 44.164,-64.142l103.049,-246.056l-441.638,-1051.52l92.534,0l395.371,942.163l395.372,-942.163l92.534,0l-555.203,1322.81Zm-3931.07,-1217.66c37.854,-28.04 85.173,-52.576 141.955,-73.606c56.782,-21.03 121.626,-31.546 194.531,-31.546c57.483,0 111.461,7.712 161.934,23.134c50.473,15.422 94.637,38.205 132.492,68.349c37.855,30.143 67.648,68.349 89.379,114.615c21.732,46.267 32.597,99.544 32.597,159.831l0,706.622l-84.121,0l-0,-132.491c-16.825,19.628 -37.154,38.906 -60.989,57.833c-23.834,18.928 -50.122,35.401 -78.864,49.422c-28.741,14.02 -59.586,25.236 -92.533,33.648c-32.948,8.412 -66.246,12.619 -99.895,12.619c-57.483,-0 -111.461,-8.763 -161.934,-26.288c-50.473,-17.526 -94.637,-41.36 -132.491,-71.504c-37.855,-30.143 -67.648,-65.194 -89.38,-105.152c-21.731,-39.958 -32.597,-83.07 -32.597,-129.337c0,-46.267 11.917,-89.379 35.752,-129.337c23.834,-39.958 56.782,-75.008 98.843,-105.152c42.061,-30.144 90.781,-53.978 146.161,-71.503c55.38,-17.526 114.616,-26.288 177.707,-26.288l290.22,-0l-0,-63.092c-0,-49.07 -8.763,-91.482 -26.288,-127.233c-17.526,-35.752 -41.36,-65.195 -71.504,-88.328c-30.143,-23.134 -65.194,-39.958 -105.152,-50.473c-39.958,-10.515 -83.07,-15.773 -129.337,-15.773c-63.091,0 -117.069,8.412 -161.934,25.237c-44.865,16.824 -82.72,35.05 -113.564,54.679l-60.988,-58.886Zm2335.64,904.308c79.916,-0 146.162,-16.474 198.738,-49.422c52.576,-32.947 99.193,-76.06 139.852,-129.337l65.194,56.783c-47.669,63.091 -103.75,113.213 -168.243,150.367c-64.493,37.154 -143.007,55.731 -235.541,55.731c-70.101,-0 -134.244,-14.371 -192.428,-43.113c-58.184,-28.741 -107.956,-67.648 -149.316,-116.719c-41.36,-49.07 -73.606,-106.904 -96.74,-173.5c-23.133,-66.597 -34.7,-137.75 -34.7,-213.459c0,-75.709 11.539,-146.862 34.618,-213.459c23.079,-66.596 55.254,-124.43 96.526,-173.5c41.273,-49.071 90.935,-87.978 148.988,-116.719c58.052,-28.742 122.053,-43.113 192.001,-43.113c69.948,0 133.948,14.371 192.001,43.113c58.052,28.741 107.715,67.648 148.987,116.719c41.272,49.07 73.448,106.904 96.526,173.5c23.079,66.597 34.618,137.75 34.618,213.459l0,42.061l-860.143,-0c4.206,58.885 16.474,113.914 36.803,165.088c20.329,51.174 47.318,95.689 80.967,133.544c33.649,37.854 73.256,67.647 118.822,89.379c45.566,21.731 96.389,32.597 152.47,32.597Zm1068.36,-1008.58l34.959,83.238c-65.772,0.032 -123.157,10.897 -172.154,32.596c-49.071,21.732 -90.08,51.525 -123.028,89.379c-32.948,37.855 -57.834,82.72 -74.658,134.595c-16.824,51.875 -25.236,108.657 -25.236,170.346l-0,561.512l-84.122,0l-0,-1051.52l84.122,-0l-0,233.437c29.442,-77.111 76.06,-138.8 139.852,-185.067c56.596,-41.048 130.022,-63.887 220.265,-68.516Zm-2366.62,-421.493l0,1098.43l637.902,-656.787l115.668,-0l-435.33,447.947l435.33,603.573l-103.049,0l-391.166,-542.584l-259.355,265.629l-1.422,276.955l-84.122,0l0.181,-1493.16l85.363,0Zm-2440.96,1493.16l-0,-1493.16l740.27,0c54.679,0 105.853,10.515 153.522,31.546c47.669,21.03 89.379,49.421 125.131,85.173c35.751,35.752 64.142,77.462 85.173,125.131c21.03,47.669 31.545,98.843 31.545,153.522c0,70.101 -16.621,133.893 -49.865,191.377c-33.243,57.483 -77.456,103.75 -132.639,138.8c78.382,28.041 142.415,75.71 192.1,143.007c49.684,67.297 74.526,144.409 74.526,231.335c0,54.679 -10.499,105.853 -31.496,153.522c-20.998,47.668 -49.34,89.379 -85.025,125.13c-35.686,35.752 -77.326,63.793 -124.918,84.122c-47.592,20.329 -98.673,30.494 -153.242,30.494l-825.082,0Zm1782.12,-559.409c-51.875,0 -100.595,6.66 -146.161,19.979c-45.566,13.319 -85.173,31.195 -118.822,53.628c-33.649,22.432 -60.287,48.72 -79.916,78.864c-19.628,30.143 -29.442,62.039 -29.442,95.688c-0,33.649 8.762,65.545 26.288,95.688c17.525,30.144 41.36,56.432 71.503,78.865c30.144,22.432 65.194,40.308 105.152,53.627c39.958,13.319 83.07,19.979 129.337,19.979c44.865,-0 86.926,-6.309 126.183,-18.927c39.256,-12.619 73.957,-29.443 104.1,-50.473c30.144,-21.031 53.978,-45.917 71.504,-74.658c17.525,-28.742 27.69,-59.937 30.494,-93.586l-0,-258.674l-290.22,0Zm-1698,-145.109l0,620.397l742.374,-0c43.462,-0 84.121,-8.062 121.976,-24.185c37.855,-16.124 70.802,-38.206 98.843,-66.246c28.04,-28.041 50.122,-60.638 66.246,-97.792c16.123,-37.153 24.185,-77.462 24.185,-120.924c-0,-43.463 -8.062,-84.122 -24.185,-121.977c-16.124,-37.855 -38.206,-70.802 -66.246,-98.843c-28.041,-28.04 -60.988,-50.122 -98.843,-66.246c-37.855,-16.123 -78.514,-24.184 -121.976,-24.184l-742.374,-0Zm3655.1,-283.911c-56.081,0 -106.904,10.866 -152.47,32.597c-45.566,21.732 -85.173,51.525 -118.822,89.379c-33.649,37.855 -60.638,82.369 -80.967,133.543c-20.329,51.174 -32.597,106.204 -36.803,165.089l776.022,0c-4.206,-58.885 -16.124,-113.915 -35.752,-165.089c-19.628,-51.174 -46.267,-95.688 -79.915,-133.543c-33.649,-37.854 -73.256,-67.647 -118.822,-89.379c-45.566,-21.731 -96.39,-32.597 -152.471,-32.597Zm-2998.95,199.789c43.463,-0 84.121,-8.062 121.976,-24.185c37.855,-16.123 70.803,-38.205 98.843,-66.246c28.041,-28.04 50.123,-60.638 66.246,-97.791c16.123,-37.154 24.185,-77.462 24.185,-120.925c-0,-43.463 -8.062,-84.122 -24.185,-121.976c-16.123,-37.855 -38.205,-70.803 -66.246,-98.843c-28.04,-28.041 -60.988,-50.123 -98.843,-66.246c-37.855,-16.123 -78.513,-24.185 -121.976,-24.185l-656.149,-0l0,620.397l656.149,-0Z" style="fill:#e23d28;"/><path d="M197.686,2453.4l1295.47,-0l-0,84.122l-1493.16,-0l0,-84.122l1400.62,-658.252l-1400.62,-658.252l0,-84.121l1493.16,-0l-0,84.121l-1295.47,0l1295.47,611.985l-0,92.534l-1295.47,611.985Zm328.074,-1700.51c-28.04,-37.855 -52.576,-85.174 -73.606,-141.956c-21.031,-56.782 -31.546,-121.626 -31.546,-194.531c0,-57.483 7.711,-111.461 23.134,-161.934c15.422,-50.473 38.205,-94.637 68.348,-132.492c30.144,-37.854 68.349,-67.647 114.616,-89.379c46.267,-21.731 99.544,-32.597 159.831,-32.597l706.622,-0l-0,84.122l-132.492,-0c19.629,16.824 38.907,37.153 57.834,60.988c18.927,23.834 35.401,50.122 49.421,78.864c14.021,28.741 25.237,59.586 33.649,92.534c8.412,32.947 12.618,66.245 12.618,99.894c0,57.483 -8.762,111.461 -26.288,161.934c-17.525,50.473 -41.36,94.637 -71.503,132.492c-30.144,37.854 -65.194,67.648 -105.152,89.379c-39.958,21.731 -83.07,32.597 -129.337,32.597c-46.267,0 -89.379,-11.917 -129.337,-35.752c-39.958,-23.834 -75.009,-56.782 -105.152,-98.842c-30.144,-42.061 -53.978,-90.782 -71.504,-146.162c-17.525,-55.38 -26.288,-114.616 -26.288,-177.707l0,-290.219l-63.091,-0c-49.071,-0 -91.482,8.762 -127.234,26.288c-35.751,17.525 -65.194,41.359 -88.327,71.503c-23.134,30.144 -39.958,65.194 -50.473,105.152c-10.516,39.958 -15.773,83.07 -15.773,129.337c-0,63.091 8.412,117.069 25.236,161.934c16.825,44.865 35.051,82.72 54.679,113.564l-58.885,60.989Zm407.99,-378.548c0,51.875 6.66,100.596 19.979,146.162c13.319,45.565 31.195,85.173 53.627,118.821c22.433,33.649 48.721,60.288 78.865,79.916c30.143,19.628 62.039,29.442 95.688,29.442c33.649,0 65.545,-8.762 95.688,-26.288c30.144,-17.525 56.432,-41.359 78.864,-71.503c22.433,-30.144 40.308,-65.194 53.628,-105.152c13.319,-39.958 19.979,-83.07 19.979,-129.337c-0,-44.865 -6.309,-86.926 -18.928,-126.182c-12.618,-39.257 -29.442,-73.957 -50.473,-104.101c-21.03,-30.144 -45.916,-53.978 -74.658,-71.503c-28.741,-17.526 -59.936,-27.69 -93.585,-30.494l-258.674,-0l0,290.219Zm-689.797,206.098l-189.274,-328.074l71.503,-42.061l189.274,328.074l-71.503,42.061Z" style="fill:#e23d28;"/></svg>