<?xml version="1.0" encoding="UTF-8" standalone="no"?><!DOCTYPE svg PUBLIC "-//W3C//DTD SVG 1.1//EN" "http://www.w3.org/Graphics/SVG/1.1/DTD/svg11.dtd"><svg width="100%" height="100%" viewBox="0 0 1515 2538" version="1.1" xmlns="http://www.w3.org/2000/svg" xmlns:xlink="http://www.w3.org/1999/xlink" xml:space="preserve" xmlns:serif="http://www.serif.com/" style="fill-rule:evenodd;clip-rule:evenodd;stroke-linejoin:round;stroke-miterlimit:2;"><path d="M197.686,2453.4l1295.47,-0l-0,84.122l-1493.16,-0l0,-84.122l1400.62,-658.252l-1400.62,-658.252l0,-84.121l1493.16,-0l-0,84.121l-1295.47,0l1295.47,611.985l-0,92.534l-1295.47,611.985Zm328.074,-1700.51c-28.04,-37.855 -52.576,-85.174 -73.606,-141.956c-21.031,-56.782 -31.546,-121.626 -31.546,-194.531c0,-57.483 7.711,-111.461 23.134,-161.934c15.422,-50.473 38.205,-94.637 68.348,-132.492c30.144,-37.854 68.349,-67.647 114.616,-89.379c46.267,-21.731 99.544,-32.597 159.831,-32.597l706.622,-0l-0,84.122l-132.492,-0c19.629,16.824 38.907,37.153 57.834,60.988c18.927,23.834 35.401,50.122 49.421,78.864c14.021,28.741 25.237,59.586 33.649,92.534c8.412,32.947 12.618,66.245 12.618,99.894c0,57.483 -8.762,111.461 -26.288,161.934c-17.525,50.473 -41.36,94.637 -71.503,132.492c-30.144,37.854 -65.194,67.648 -105.152,89.379c-39.958,21.731 -83.07,32.597 -129.337,32.597c-46.267,0 -89.379,-11.917 -129.337,-35.752c-39.958,-23.834 -75.009,-56.782 -105.152,-98.842c-30.144,-42.061 -53.978,-90.782 -71.504,-146.162c-17.525,-55.38 -26.288,-114.616 -26.288,-177.707l0,-290.219l-63.091,-0c-49.071,-0 -91.482,8.762 -127.234,26.288c-35.751,17.525 -65.194,41.359 -88.327,71.503c-23.134,30.144 -39.958,65.194 -50.473,105.152c-10.516,39.958 -15.773,83.07 -15.773,129.337c-0,63.091 8.412,117.069 25.236,161.934c16.825,44.865 35.051,82.72 54.679,113.564l-58.885,60.989Zm407.99,-378.548c0,51.875 6.66,100.596 19.979,146.162c13.319,45.565 31.195,85.173 53.627,118.821c22.433,33.649 48.721,60.288 78.865,79.916c30.143,19.628 62.039,29.442 95.688,29.442c33.649,0 65.545,-8.762 95.688,-26.288c30.144,-17.525 56.432,-41.359 78.864,-71.503c22.433,-30.144 40.308,-65.194 53.628,-105.152c13.319,-39.958 19.979,-83.07 19.979,-129.337c-0,-44.865 -6.309,-86.926 -18.928,-126.182c-12.618,-39.257 -29.442,-73.957 -50.473,-104.101c-21.03,-30.144 -45.916,-53.978 -74.658,-71.503c-28.741,-17.526 -59.936,-27.69 -93.585,-30.494l-258.674,-0l0,290.219Zm-689.797,206.098l-189.274,-328.074l71.503,-42.061l189.274,328.074l-71.503,42.061Z" style="fill:#e23d28;"/></svg>