<?xml version="1.0" encoding="UTF-8" standalone="no"?><!DOCTYPE svg PUBLIC "-//W3C//DTD SVG 1.1//EN" "http://www.w3.org/Graphics/SVG/1.1/DTD/svg11.dtd"><svg width="100%" height="100%" viewBox="0 0 11112 11112" version="1.1" xmlns="http://www.w3.org/2000/svg" xmlns:xlink="http://www.w3.org/1999/xlink" xml:space="preserve" xmlns:serif="http://www.serif.com/" style="fill-rule:evenodd;clip-rule:evenodd;stroke-linejoin:round;stroke-miterlimit:2;"><rect id="Background" x="0" y="0" width="11111.1" height="11111.1" style="fill:#f2ca68;"/><g id="Full-Logo" serif:id="Full Logo"><path d="M5557.69,3977.38l302.392,-523.758l25.48,-12.24c1042.89,159.282 1842.78,1060.88 1842.78,2147.83c-0,1199.19 -973.593,2172.78 -2172.78,2172.78c-1199.19,0 -2172.79,-973.592 -2172.79,-2172.78c0,-1087.79 801.119,-1989.94 1845.19,-2148.2c9.239,-1.401 18.489,2.456 23.996,10.005c1.331,1.825 2.39,3.792 3.166,5.847l302.566,520.511Zm-339.383,-484.138c-1011.56,161.798 -1785.43,1039.23 -1785.43,2095.97c0,1171.54 951.14,2122.68 2122.68,2122.68c1171.54,0 2122.68,-951.139 2122.68,-2122.68c-0,-1056.04 -772.83,-1933 -1783.35,-2095.64l-315.415,546.316c-4.469,7.741 -12.723,12.514 -21.661,12.527c-8.938,0.013 -17.206,-4.736 -21.698,-12.463l-317.796,-546.711Z" style="fill:#e23d28;"/><path d="M5555.56,2786.05c-1346.79,-0 -2440.45,1114.69 -2440.45,2487.97c-0,1373.28 1093.66,2487.97 2440.45,2487.97c1346.79,0 2440.45,-1114.69 2440.45,-2487.97c0,-1373.28 -1093.66,-2487.97 -2440.45,-2487.97Zm-0,50.109c1319.4,0 2390.34,1092.5 2390.34,2437.86c0,1345.36 -1070.94,2437.86 -2390.34,2437.86c-1319.4,0 -2390.34,-1092.5 -2390.34,-2437.86c-0,-1345.36 1070.94,-2437.86 2390.34,-2437.86Z" style="fill:#e23d28;"/><path d="M4132.29,9373.07l0,-885.951l439.233,0c32.443,0 62.806,6.239 91.09,18.717c28.284,12.479 53.033,29.324 74.246,50.537c21.212,21.213 38.058,45.961 50.536,74.245c12.478,28.284 18.717,58.648 18.717,91.091c0,41.594 -9.862,79.444 -29.586,113.551c-19.725,34.108 -45.959,61.56 -78.701,82.357c46.507,16.637 84.501,44.921 113.981,84.851c29.479,39.93 44.219,85.684 44.219,137.26c0,32.444 -6.229,62.807 -18.688,91.091c-12.459,28.284 -29.275,53.032 -50.449,74.245c-21.174,21.213 -45.88,37.851 -74.118,49.913c-28.239,12.062 -58.547,18.093 -90.925,18.093l-489.555,0Zm49.913,-418.019l0,368.107l440.48,-0c25.788,-0 49.913,-4.784 72.374,-14.35c22.46,-9.567 42.009,-22.669 58.647,-39.307c16.638,-16.637 29.74,-35.978 39.306,-58.023c9.567,-22.045 14.35,-45.962 14.35,-71.75c0,-25.788 -4.783,-49.913 -14.35,-72.373c-9.566,-22.461 -22.668,-42.01 -39.306,-58.648c-16.638,-16.637 -36.187,-29.739 -58.647,-39.306c-22.461,-9.567 -46.586,-14.35 -72.374,-14.35l-440.48,0Zm389.32,-49.913c25.788,0 49.912,-4.783 72.373,-14.35c22.461,-9.566 42.01,-22.668 58.647,-39.306c16.638,-16.637 29.74,-35.979 39.307,-58.023c9.566,-22.045 14.35,-45.962 14.35,-71.75c-0,-25.788 -4.784,-49.913 -14.35,-72.374c-9.567,-22.46 -22.669,-42.009 -39.307,-58.647c-16.637,-16.638 -36.186,-29.74 -58.647,-39.306c-22.461,-9.567 -46.585,-14.35 -72.373,-14.35l-389.32,-0l0,368.106l389.32,0Z" style="fill:#e23d28;fill-rule:nonzero;"/><path d="M4965.09,8799.07c22.461,-16.638 50.537,-31.196 84.228,-43.674c33.691,-12.478 72.165,-18.717 115.423,-18.717c34.107,-0 66.135,4.575 96.082,13.726c29.948,9.15 56.152,22.668 78.613,40.554c22.461,17.885 40.138,40.554 53.032,68.006c12.894,27.452 19.341,59.063 19.341,94.834l0,419.267l-49.912,0l-0,-78.612c-9.983,11.646 -22.045,23.084 -36.187,34.315c-14.142,11.23 -29.74,21.005 -46.793,29.324c-17.054,8.318 -35.355,14.973 -54.904,19.965c-19.55,4.991 -39.307,7.487 -59.272,7.487c-34.107,-0 -66.134,-5.2 -96.082,-15.598c-29.947,-10.399 -56.152,-24.541 -78.612,-42.426c-22.461,-17.885 -40.139,-38.682 -53.033,-62.391c-12.894,-23.709 -19.341,-49.289 -19.341,-76.741c0,-27.452 7.071,-53.032 21.213,-76.741c14.142,-23.708 33.691,-44.505 58.647,-62.391c24.957,-17.885 53.865,-32.027 86.724,-42.425c32.859,-10.399 68.006,-15.598 105.441,-15.598l172.199,-0l-0,-37.435c-0,-29.116 -5.2,-54.28 -15.598,-75.493c-10.399,-21.213 -24.541,-38.682 -42.426,-52.408c-17.885,-13.726 -38.682,-23.709 -62.391,-29.948c-23.709,-6.239 -49.289,-9.358 -76.741,-9.358c-37.434,-0 -69.462,4.991 -96.082,14.973c-26.62,9.983 -49.081,20.797 -67.382,32.444l-36.187,-34.939Zm224.608,242.077c-30.78,-0 -59.688,3.951 -86.724,11.854c-27.036,7.903 -50.536,18.509 -70.502,31.819c-19.965,13.31 -35.77,28.908 -47.417,46.793c-11.646,17.886 -17.469,36.811 -17.469,56.776c-0,19.965 5.199,38.891 15.598,56.776c10.398,17.885 24.54,33.483 42.425,46.793c17.886,13.31 38.683,23.917 62.391,31.82c23.709,7.902 49.289,11.854 76.741,11.854c26.62,-0 51.577,-3.744 74.869,-11.231c23.293,-7.486 43.882,-17.469 61.767,-29.947c17.886,-12.478 32.028,-27.244 42.426,-44.298c10.399,-17.053 16.43,-35.563 18.094,-55.528l-0,-153.481l-172.199,-0Z" style="fill:#e23d28;fill-rule:nonzero;"/><path d="M6350.92,9335.63c47.417,-0 86.724,-9.775 117.919,-29.324c31.196,-19.549 58.856,-45.129 82.98,-76.741l38.682,33.691c-28.283,37.435 -61.559,67.175 -99.825,89.219c-38.266,22.045 -84.852,33.068 -139.756,33.068c-41.594,-0 -79.652,-8.527 -114.175,-25.581c-34.523,-17.053 -64.055,-40.138 -88.595,-69.254c-24.541,-29.115 -43.674,-63.43 -57.4,-102.945c-13.726,-39.514 -20.589,-81.732 -20.589,-126.653c0,-44.922 6.847,-87.14 20.54,-126.654c13.694,-39.514 32.785,-73.829 57.273,-102.945c24.489,-29.116 53.955,-52.2 88.4,-69.254c34.445,-17.053 72.419,-25.58 113.922,-25.58c41.503,-0 79.477,8.527 113.922,25.58c34.445,17.054 63.912,40.138 88.4,69.254c24.489,29.116 43.58,63.431 57.273,102.945c13.694,39.514 20.541,81.732 20.541,126.654l-0,24.956l-510.358,0c2.495,34.939 9.774,67.59 21.837,97.954c12.062,30.363 28.076,56.776 48.041,79.236c19.965,22.461 43.465,40.138 70.501,53.033c27.036,12.894 57.192,19.341 90.467,19.341Zm0,-549.04c-33.275,-0 -63.431,6.447 -90.467,19.341c-27.036,12.894 -50.536,30.571 -70.501,53.032c-19.965,22.461 -35.979,48.873 -48.041,79.237c-12.063,30.363 -19.342,63.014 -21.837,97.953l460.445,0c-2.496,-34.939 -9.567,-67.59 -21.213,-97.953c-11.646,-30.364 -27.452,-56.776 -47.417,-79.237c-19.965,-22.461 -43.466,-40.138 -70.502,-53.032c-27.036,-12.894 -57.192,-19.341 -90.467,-19.341Z" style="fill:#e23d28;fill-rule:nonzero;"/><path d="M6984.82,8737.2l20.743,49.388c-39.026,0.019 -73.074,6.466 -102.146,19.341c-29.116,12.894 -53.448,30.571 -72.997,53.032c-19.55,22.461 -34.315,49.081 -44.298,79.86c-9.983,30.78 -14.974,64.471 -14.974,101.074l0,333.167l-49.913,0l0,-623.909l49.913,-0l0,138.508c17.47,-45.754 45.13,-82.356 82.98,-109.808c33.581,-24.356 77.148,-37.907 130.692,-40.653Z" style="fill:#e23d28;fill-rule:nonzero;"/><path d="M3233.11,9323.16l768.656,0l-0,49.913l-885.951,0l-0,-49.913l831.047,-390.567l-831.047,-390.567l-0,-49.913l885.951,0l-0,49.913l-768.656,-0l768.656,363.115l-0,54.904l-768.656,363.115Z" style="fill:#e23d28;fill-rule:nonzero;"/><path d="M3427.77,8314.18c-16.637,-22.46 -31.195,-50.536 -43.673,-84.227c-12.479,-33.691 -18.718,-72.166 -18.718,-115.424c0,-34.107 4.576,-66.134 13.726,-96.082c9.151,-29.947 22.669,-56.151 40.555,-78.612c17.885,-22.461 40.554,-40.138 68.006,-53.032c27.452,-12.895 59.063,-19.342 94.834,-19.342l419.267,0l-0,49.913l-78.613,0c11.647,9.983 23.085,22.045 34.315,36.187c11.231,14.142 21.005,29.739 29.324,46.793c8.319,17.054 14.974,35.355 19.965,54.904c4.991,19.549 7.487,39.306 7.487,59.271c0,34.107 -5.199,66.135 -15.598,96.082c-10.398,29.948 -24.54,56.152 -42.425,78.613c-17.886,22.461 -38.683,40.138 -62.391,53.032c-23.709,12.894 -49.289,19.342 -76.741,19.342c-27.452,-0 -53.033,-7.071 -76.741,-21.213c-23.709,-14.142 -44.506,-33.691 -62.391,-58.648c-17.885,-24.956 -32.027,-53.864 -42.426,-86.723c-10.398,-32.86 -15.598,-68.006 -15.598,-105.441l0,-172.199l-37.434,0c-29.116,0 -54.28,5.199 -75.493,15.598c-21.213,10.398 -38.683,24.54 -52.409,42.426c-13.726,17.885 -23.708,38.682 -29.947,62.391c-6.239,23.708 -9.359,49.288 -9.359,76.74c0,37.435 4.991,69.462 14.974,96.082c9.983,26.621 20.797,49.081 32.443,67.383l-34.939,36.186Zm242.077,-224.607c0,30.78 3.952,59.687 11.854,86.723c7.903,27.037 18.51,50.537 31.82,70.502c13.31,19.965 28.908,35.771 46.793,47.417c17.885,11.647 36.811,17.47 56.776,17.47c19.965,-0 38.89,-5.199 56.776,-15.598c17.885,-10.398 33.483,-24.54 46.793,-42.426c13.31,-17.885 23.916,-38.682 31.819,-62.391c7.903,-23.708 11.854,-49.289 11.854,-76.741c0,-26.62 -3.743,-51.576 -11.23,-74.869c-7.487,-23.292 -17.469,-43.881 -29.948,-61.767c-12.478,-17.885 -27.244,-32.027 -44.297,-42.426c-17.054,-10.398 -35.563,-16.429 -55.528,-18.093l-153.482,0l0,172.199Zm-409.284,122.286l-112.304,-194.659l42.426,-24.957l112.303,194.66l-42.425,24.956Z" style="fill:#e23d28;fill-rule:nonzero;"/><path d="M7297.55,9521.56c-10.815,24.956 -24.333,44.089 -40.554,57.399c-16.222,13.31 -32.236,23.293 -48.041,29.948c-18.302,7.487 -37.851,12.062 -58.648,13.726l0,-49.913c14.142,-0.832 27.452,-3.743 39.93,-8.734c10.815,-4.16 21.629,-10.607 32.444,-19.342c10.814,-8.734 19.549,-21.42 26.204,-38.058l61.143,-145.995l-262.042,-623.909l54.904,-0l234.59,559.023l234.59,-559.023l54.904,-0l-329.424,784.878Z" style="fill:#e23d28;fill-rule:nonzero;"/><path d="M5530.5,1763.1l-0,1048.01c-0,13.828 11.227,25.054 25.055,25.054c13.828,0 25.054,-11.226 25.054,-25.054l0,-1048.01c0,-13.828 -11.226,-25.054 -25.054,-25.054c-13.828,-0 -25.055,11.226 -25.055,25.054Z" style="fill:#e23d28;"/><path d="M6080.92,4926.88l1095.93,-740.909c11.456,-7.745 14.469,-23.333 6.724,-34.789c-7.744,-11.456 -23.333,-14.468 -34.788,-6.724l-1095.93,740.909c-11.456,7.745 -14.469,23.333 -6.724,34.789c7.744,11.456 23.333,14.468 34.788,6.724Z" style="fill:#e23d28;"/><path d="M6845.32,5576.61l351.818,-1393.88c3.384,-13.408 -4.753,-27.04 -18.161,-30.424c-13.407,-3.384 -27.04,4.753 -30.424,18.161l-351.819,1393.88c-3.384,13.408 4.754,27.04 18.161,30.425c13.408,3.384 27.041,-4.754 30.425,-18.162Z" style="fill:#e23d28;"/><path d="M6824.68,5595.27l877.232,-129.241c13.681,-2.015 23.151,-14.758 21.135,-28.439c-2.015,-13.68 -14.758,-23.15 -28.438,-21.135l-877.233,129.241c-13.68,2.015 -23.15,14.758 -21.135,28.439c2.016,13.68 14.759,23.15 28.439,21.135Z" style="fill:#e23d28;"/><path d="M6667,6527.96l1049.14,-1069.17c9.685,-9.87 9.535,-25.746 -0.335,-35.431c-9.87,-9.685 -25.746,-9.535 -35.431,0.335l-1049.14,1069.17c-9.685,9.87 -9.534,25.746 0.336,35.431c9.869,9.685 25.745,9.535 35.43,-0.335Z" style="fill:#e23d28;"/><path d="M6643.08,6534.73l746.982,185.627c13.42,3.335 27.022,-4.853 30.357,-18.273c3.335,-13.42 -4.853,-27.023 -18.273,-30.357l-746.981,-185.627c-13.42,-3.334 -27.023,4.853 -30.358,18.273c-3.334,13.42 4.853,27.023 18.273,30.357Z" style="fill:#e23d28;"/><path d="M6035.14,7020.05l532.412,473.374c10.334,9.188 26.183,8.258 35.372,-2.076c9.188,-10.334 8.257,-26.184 -2.077,-35.372l-532.412,-473.374c-10.334,-9.188 -26.184,-8.258 -35.372,2.076c-9.188,10.334 -8.257,26.184 2.077,35.372Z" style="fill:#e23d28;"/><path d="M6057.34,7025.76l1344.32,-305.285c13.484,-3.062 21.946,-16.496 18.884,-29.981c-3.063,-13.484 -16.497,-21.946 -29.981,-18.884l-1344.32,305.285c-13.485,3.062 -21.947,16.496 -18.884,29.981c3.062,13.485 16.496,21.946 29.981,18.884Z" style="fill:#e23d28;"/><path d="M5535.31,2822.22l324.017,655.039c6.131,12.395 21.171,17.48 33.566,11.349c12.394,-6.131 17.479,-21.171 11.348,-33.566l-324.016,-655.039c-6.131,-12.395 -21.171,-17.48 -33.566,-11.349c-12.394,6.131 -17.48,21.172 -11.349,33.566Z" style="fill:#e23d28;"/><path d="M6182.5,2900.15l-251.477,3369.89c-1.029,13.79 9.331,25.821 23.121,26.85c13.789,1.029 25.82,-9.331 26.849,-23.121l251.477,-3369.89c1.029,-13.79 -9.331,-25.82 -23.121,-26.85c-13.789,-1.029 -25.82,9.331 -26.849,23.121Z" style="fill:#e23d28;"/><path d="M6397.57,2522.67l-861.502,1492.17c-6.914,11.975 -2.805,27.311 9.17,34.225c11.976,6.914 27.312,2.804 34.226,-9.171l861.502,-1492.17c6.914,-11.975 2.805,-27.311 -9.171,-34.225c-11.975,-6.914 -27.311,-2.805 -34.225,9.171Z" style="fill:#e23d28;"/><path d="M6352.58,3122.8l-816.748,1479.14c-6.685,12.105 -2.283,27.36 9.822,34.044c12.105,6.684 27.359,2.283 34.044,-9.822l816.748,-1479.14c6.684,-12.105 2.283,-27.36 -9.822,-34.044c-12.105,-6.684 -27.36,-2.283 -34.044,9.822Z" style="fill:#e23d28;"/><path d="M6296.98,3870.62l-763.12,1321.76c-6.914,11.975 -2.805,27.311 9.17,34.225c11.976,6.914 27.311,2.805 34.225,-9.17l763.121,-1321.76c6.914,-11.976 2.805,-27.311 -9.17,-34.225c-11.976,-6.914 -27.312,-2.805 -34.226,9.17Z" style="fill:#e23d28;"/><path d="M6246.68,4544.6l-712.825,1234.65c-6.914,11.975 -2.805,27.311 9.17,34.225c11.976,6.914 27.311,2.805 34.225,-9.171l712.826,-1234.65c6.914,-11.975 2.805,-27.311 -9.171,-34.225c-11.975,-6.914 -27.311,-2.805 -34.225,9.171Z" style="fill:#e23d28;"/><path d="M6196.39,5218.58l-662.53,1147.54c-6.914,11.976 -2.805,27.311 9.17,34.225c11.976,6.914 27.311,2.805 34.225,-9.17l662.53,-1147.54c6.914,-11.975 2.805,-27.311 -9.17,-34.225c-11.976,-6.914 -27.311,-2.805 -34.225,9.17Z" style="fill:#e23d28;"/><path d="M5060.47,4885.37l-1095.93,-740.909c-11.456,-7.744 -27.044,-4.732 -34.789,6.724c-7.745,11.456 -4.732,27.044 6.724,34.789l1095.93,740.909c11.456,7.744 27.044,4.732 34.788,-6.724c7.745,-11.456 4.732,-27.044 -6.723,-34.789Z" style="fill:#e23d28;"/><path d="M4316.59,5564.35l-351.819,-1393.88c-3.384,-13.408 -17.016,-21.545 -30.424,-18.161c-13.407,3.384 -21.545,17.016 -18.161,30.424l351.819,1393.88c3.384,13.408 17.016,21.546 30.424,18.162c13.407,-3.385 21.545,-17.017 18.161,-30.425Z" style="fill:#e23d28;"/><path d="M4295.95,5545.7l-877.232,-129.241c-13.681,-2.015 -26.424,7.455 -28.439,21.135c-2.016,13.681 7.455,26.424 21.135,28.439l877.232,129.241c13.681,2.015 26.424,-7.455 28.439,-21.135c2.016,-13.681 -7.455,-26.424 -21.135,-28.439Z" style="fill:#e23d28;"/><path d="M4482.08,6492.86l-1049.14,-1069.17c-9.685,-9.87 -25.561,-10.02 -35.431,-0.335c-9.87,9.685 -10.02,25.561 -0.335,35.431l1049.14,1069.17c9.685,9.87 25.561,10.02 35.431,0.335c9.87,-9.685 10.02,-25.561 0.335,-35.431Z" style="fill:#e23d28;"/><path d="M4458.16,6486.1l-746.981,185.627c-13.42,3.334 -21.608,16.937 -18.273,30.357c3.335,13.42 16.938,21.608 30.357,18.273l746.982,-185.627c13.42,-3.334 21.608,-16.937 18.273,-30.357c-3.335,-13.42 -16.938,-21.607 -30.358,-18.273Z" style="fill:#e23d28;"/><path d="M5044.89,6982.6l-532.412,473.374c-10.334,9.188 -11.264,25.038 -2.076,35.372c9.188,10.334 25.037,11.264 35.371,2.076l532.413,-473.374c10.334,-9.188 11.264,-25.038 2.076,-35.372c-9.188,-10.334 -25.038,-11.264 -35.372,-2.076Z" style="fill:#e23d28;"/><path d="M5067.08,6976.89l-1344.32,-305.285c-13.485,-3.062 -26.919,5.4 -29.981,18.884c-3.063,13.485 5.399,26.919 18.884,29.981l1344.32,305.285c13.484,3.062 26.918,-5.399 29.98,-18.884c3.063,-13.485 -5.399,-26.919 -18.884,-29.981Z" style="fill:#e23d28;"/><path d="M5533.1,2800l-324.016,655.039c-6.131,12.395 -1.046,27.435 11.349,33.566c12.394,6.131 27.434,1.046 33.565,-11.349l324.017,-655.039c6.131,-12.394 1.046,-27.435 -11.349,-33.566c-12.394,-6.131 -27.435,-1.046 -33.566,11.349Z" style="fill:#e23d28;"/><path d="M4880.85,2903.88l251.477,3369.89c1.029,13.79 13.06,24.15 26.849,23.121c13.79,-1.029 24.15,-13.06 23.121,-26.85l-251.477,-3369.89c-1.029,-13.79 -13.06,-24.15 -26.849,-23.121c-13.79,1.03 -24.15,13.06 -23.121,26.85Z" style="fill:#e23d28;"/><path d="M4672.36,2547.72l861.503,1492.17c6.914,11.975 22.249,16.085 34.225,9.171c11.975,-6.914 16.084,-22.25 9.17,-34.225l-861.502,-1492.17c-6.914,-11.976 -22.25,-16.085 -34.225,-9.171c-11.975,6.914 -16.085,22.25 -9.171,34.225Z" style="fill:#e23d28;"/><path d="M4716.87,3147.03l816.749,1479.14c6.684,12.105 21.938,16.506 34.044,9.822c12.105,-6.684 16.506,-21.939 9.822,-34.044l-816.749,-1479.14c-6.684,-12.105 -21.939,-16.506 -34.044,-9.822c-12.105,6.684 -16.506,21.939 -9.822,34.044Z" style="fill:#e23d28;"/><path d="M4772.95,3895.68l763.121,1321.76c6.914,11.975 22.25,16.084 34.225,9.17c11.975,-6.914 16.085,-22.25 9.171,-34.225l-763.121,-1321.76c-6.914,-11.975 -22.25,-16.084 -34.225,-9.17c-11.976,6.914 -16.085,22.249 -9.171,34.225Z" style="fill:#e23d28;"/><path d="M4823.24,4569.65l712.826,1234.65c6.914,11.976 22.25,16.085 34.225,9.171c11.975,-6.914 16.085,-22.25 9.171,-34.225l-712.826,-1234.65c-6.914,-11.976 -22.25,-16.085 -34.225,-9.171c-11.975,6.914 -16.085,22.25 -9.171,34.225Z" style="fill:#e23d28;"/><path d="M4873.54,5243.63l662.53,1147.54c6.914,11.975 22.25,16.084 34.225,9.17c11.975,-6.914 16.085,-22.249 9.171,-34.225l-662.53,-1147.54c-6.914,-11.975 -22.25,-16.084 -34.226,-9.17c-11.975,6.914 -16.084,22.25 -9.17,34.225Z" style="fill:#e23d28;"/><path d="M5847.56,7207.19c0.49,0.44 0.966,0.904 1.428,1.391l61.298,64.634l680.236,177.24c13.381,3.486 21.414,17.181 17.928,30.562c-3.487,13.381 -17.181,21.415 -30.563,17.928l-687.168,-179.046c-4.531,-1.18 -8.64,-3.607 -11.862,-7.004l-65.982,-69.574c12.335,-11.275 23.927,-23.349 34.685,-36.131Z" style="fill:#e23d28;"/><path d="M5912.57,7096.51c0.837,0.326 1.662,0.7 2.475,1.124l680.737,354.844c12.262,6.391 17.028,21.536 10.636,33.798c-6.392,12.262 -21.536,17.028 -33.798,10.636l-680.737,-354.843l-0.063,-0.034c7.869,-14.628 14.811,-29.827 20.75,-45.525Z" style="fill:#e23d28;"/><path d="M5937.11,6962.36c0.997,0.001 2.004,0.061 3.017,0.184l114.671,13.904c13.728,1.665 23.521,14.161 21.857,27.889c-1.665,13.727 -14.161,23.521 -27.889,21.856l-114.671,-13.904c-0.104,-0.013 -0.208,-0.026 -0.313,-0.04c2.167,-16.332 3.299,-32.982 3.328,-49.889Z" style="fill:#e23d28;"/><path d="M5924.9,6865.6c0.722,-0.162 1.458,-0.293 2.207,-0.392l1465.71,-194.008c13.709,-1.815 26.311,7.842 28.126,21.55c1.815,13.708 -7.842,26.311 -21.55,28.126l-1465.13,193.931c-2.055,-16.758 -5.199,-33.181 -9.364,-49.207Z" style="fill:#e23d28;"/><path d="M5892.4,6782.4c0.605,-0.299 1.226,-0.573 1.863,-0.825l745.658,-294.467c12.861,-5.079 27.427,1.239 32.506,14.101c5.079,12.861 -1.239,27.427 -14.101,32.506l-745.304,294.327c-5.891,-15.735 -12.793,-30.979 -20.622,-45.642Z" style="fill:#e23d28;"/><path d="M5842.26,6710.01c0.498,-0.409 1.013,-0.8 1.548,-1.175l1840.09,-1288.12c11.328,-7.93 26.964,-5.171 34.894,6.157c7.93,11.328 5.171,26.963 -6.157,34.893l-1839.84,1287.94c-9.312,-13.903 -19.514,-27.162 -30.534,-39.702Z" style="fill:#e23d28;"/><path d="M5785.62,6657.34c0.33,-0.411 0.678,-0.813 1.041,-1.206l1015.94,-1102.63c9.37,-10.17 25.234,-10.819 35.403,-1.449c10.17,9.37 10.819,25.233 1.449,35.403l-1015.94,1102.63l-0.028,0.03c-11.883,-11.725 -24.53,-22.676 -37.864,-32.778Z" style="fill:#e23d28;"/><path d="M5725.96,6620.25l1420.9,-2461.07c6.914,-11.975 22.25,-16.084 34.225,-9.17c11.975,6.914 16.084,22.249 9.17,34.225l-1421.05,2461.34c-13.795,-9.348 -28.235,-17.818 -43.24,-25.325Z" style="fill:#e23d28;"/><path d="M5530.1,7342.4c8.421,0.557 16.906,0.839 25.456,0.839c8.423,0 16.783,-0.274 25.054,-0.812l0,1796.43l378.493,-389.698l68.63,-0l-258.298,265.785l258.298,358.124l-61.143,0l-232.094,-321.937l-153.886,157.609l-0.844,164.328l-49.912,0l0.246,-2030.67Zm0.092,-761.449l0.309,-2549.76c-0,-13.828 11.227,-25.054 25.055,-25.054c13.828,-0 25.054,11.226 25.054,25.054l0,2549.74c-8.271,-0.539 -16.631,-0.813 -25.054,-0.813c-8.529,0 -16.993,0.281 -25.364,0.833Z" style="fill:#e23d28;fill-rule:nonzero;"/><path d="M5343.5,6644.5l-1420.43,-2460.26c-6.914,-11.976 -2.805,-27.311 9.17,-34.225c11.976,-6.914 27.312,-2.805 34.225,9.17l1420.4,2460.21c-4.69,2.318 -9.326,4.73 -13.901,7.23l-0.079,0.044c-2.713,1.484 -5.407,2.999 -8.089,4.552l-0.13,0.075c-2.666,1.545 -5.312,3.121 -7.939,4.729l-0.12,0.074c-2.638,1.616 -5.256,3.264 -7.861,4.949l-0.042,0.028c-1.514,0.979 -3.02,1.968 -4.516,2.964l-0.688,0.462Z" style="fill:#e23d28;"/><path d="M5288.78,6688.98l-1014.92,-1101.52c-9.369,-10.17 -8.72,-26.033 1.449,-35.403c10.17,-9.37 26.033,-8.721 35.403,1.449l1015.94,1102.63l0.175,0.195c-13.388,10.048 -26.094,20.955 -38.048,32.65Z" style="fill:#e23d28;"/><path d="M5239.03,6748.66l-1838.33,-1286.89c-11.329,-7.93 -14.087,-23.565 -6.157,-34.893c7.93,-11.328 23.565,-14.087 34.893,-6.157l1840.09,1288.12l0.229,0.165c-11.074,12.515 -21.34,25.762 -30.717,39.66Z" style="fill:#e23d28;"/><path d="M5198.38,6827.28l-743.381,-293.567c-12.861,-5.079 -19.18,-19.645 -14.1,-32.506c5.079,-12.862 19.644,-19.18 32.505,-14.101l745.659,294.467l0.077,0.032c-7.879,14.673 -14.825,29.922 -20.76,45.675Z" style="fill:#e23d28;"/><path d="M5176.89,6914.52l-1462.96,-193.643c-13.708,-1.815 -23.364,-14.418 -21.55,-28.126c1.815,-13.708 14.417,-23.365 28.126,-21.55l1465.71,194.008l0.096,0.013c-4.187,16.05 -7.354,32.508 -9.427,49.298Z" style="fill:#e23d28;"/><path d="M5174,6962.46c0.033,16.964 1.176,33.671 3.363,50.055l-112.81,13.679c-13.728,1.665 -26.224,-8.129 -27.888,-21.856c-1.665,-13.728 8.129,-26.224 21.856,-27.889l114.671,-13.904c0.27,-0.033 0.538,-0.061 0.808,-0.085Z" style="fill:#e23d28;"/><path d="M5198.86,7097.34c5.987,15.719 12.985,30.941 20.92,45.593l-679.075,353.978c-12.262,6.392 -27.407,1.626 -33.799,-10.636c-6.391,-12.262 -1.626,-27.407 10.637,-33.798l680.736,-354.844c0.192,-0.1 0.386,-0.198 0.581,-0.293Z" style="fill:#e23d28;"/><path d="M5264.55,7208.36c10.832,12.762 22.488,24.804 34.877,36.037l-64.957,68.494c-3.222,3.397 -7.332,5.824 -11.863,7.004l-687.168,179.046c-13.381,3.487 -27.076,-4.547 -30.562,-17.928c-3.487,-13.381 4.546,-27.076 17.927,-30.562l680.237,-177.24l61.298,-64.634l0.211,-0.217Z" style="fill:#e23d28;"/><path d="M5555.56,6555.06c-224.417,-0 -406.615,182.198 -406.615,406.615c-0,224.417 182.198,406.615 406.615,406.615c224.416,-0 406.614,-182.198 406.614,-406.615c0,-224.417 -182.198,-406.615 -406.614,-406.615Zm-0,50.109c196.76,-0 356.505,159.745 356.505,356.506c0,196.761 -159.745,356.505 -356.505,356.505c-196.761,0 -356.506,-159.744 -356.506,-356.505c-0,-196.761 159.745,-356.506 356.506,-356.506Z" style="fill:#e23d28;"/></g></svg>