<?xml version="1.0"?>
<svg xmlns="http://www.w3.org/2000/svg" viewBox="0 0 512 512" width="512" height="512"><g id="outline"><path d="M137.9,493.171A8,8,0,0,0,144,496H288a8,8,0,0,0,8-8V432h64a8,8,0,0,0,7.9-6.763L383.13,328h8.69a18,18,0,0,0,16.1-26.05l-23.633-47.267v-6.54a128.046,128.046,0,0,0-9.458-48.315l1.6-.533a8,8,0,0,0-1.647-15.541l-8.39-.932a128.217,128.217,0,0,0-21.5-27.116,179.722,179.722,0,0,0,16.908-18.778q1.09-1.4,2.156-2.821l23.716-31.622A8,8,0,0,0,379.7,89.841a195.4,195.4,0,0,0-81.48,37.24,127.6,127.6,0,0,0-13.891-3.959,205.246,205.246,0,0,0-21.17-102.7,8,8,0,0,0-14.31,0,205.244,205.244,0,0,0-21.166,102.764,127.682,127.682,0,0,0-13.807,3.965A195.4,195.4,0,0,0,132.3,89.841a8,8,0,0,0-7.969,12.644l23.717,31.622q1.067,1.422,2.155,2.82a179.781,179.781,0,0,0,17.051,18.917,128.217,128.217,0,0,0-21.341,26.944l-8.7.966a8,8,0,0,0-1.647,15.541l1.852.617A128.063,128.063,0,0,0,128,248.143v.16a441.685,441.685,0,0,0,18.641,127.008l5.162,17.208-15.694,94.166A8,8,0,0,0,137.9,493.171Zm207.7-312.66-7.094-.788q-10.879-1.209-21.857-1.509a192.286,192.286,0,0,0,16.222-11.847A112.439,112.439,0,0,1,345.6,180.511Zm-62.8-41.324c.335.081.667.173,1,.258-.395.373-.793.742-1.185,1.118C282.681,140.1,282.736,139.645,282.8,139.187Zm-53.588.068c.059.436.111.873.173,1.308-.371-.357-.75-.707-1.124-1.061C228.577,139.421,228.893,139.334,229.211,139.255ZM162.83,127.1q-1-1.285-1.979-2.588l-9.876-13.168a179.407,179.407,0,0,1,84.951,60.4,8,8,0,0,0,14.193-6.367l-3.585-19.117A189.181,189.181,0,0,1,256,43.789a189.181,189.181,0,0,1,9.466,102.462l-3.585,19.117a8,8,0,0,0,14.193,6.367,179.407,179.407,0,0,1,84.951-60.4l-9.876,13.168q-.978,1.3-1.98,2.589a173.086,173.086,0,0,1-59.6,48.2l-10.12,5.013a8,8,0,0,0,4.374,15.127,248.426,248.426,0,0,1,52.918.192l.077.009-9.108,3.035a78.588,78.588,0,0,1-56.544-2.605,37.326,37.326,0,0,0-30.321,0,78.576,78.576,0,0,1-56.545,2.606l-9.108-3.035.077-.009a248.36,248.36,0,0,1,52.918-.192,8,8,0,0,0,4.374-15.127l-10.12-5.013A173.09,173.09,0,0,1,162.83,127.1ZM256,224a8,8,0,0,0,8-8v-5.584c.243.1.486.192.728.3a94.37,94.37,0,0,0,65.979,3.775A64.091,64.091,0,0,1,335.5,232H256a8,8,0,0,0-8,8v10a14.015,14.015,0,0,1-14,14H224a8,8,0,0,0-8,8,16.019,16.019,0,0,1-16,16H176V240a64.035,64.035,0,0,1,5.295-25.517,94.538,94.538,0,0,0,65.979-3.77c.241-.106.484-.2.726-.3V216A8,8,0,0,0,256,224Zm-76.716-57.507a192.44,192.44,0,0,0,16.07,11.721q-10.964.3-21.857,1.509l-6.778.753A112.264,112.264,0,0,1,179.284,166.493ZM144,248.3v-.16a112.061,112.061,0,0,1,8.64-43.159l13.417,4.472A80.046,80.046,0,0,0,160,240v56a8,8,0,0,0,8,8h32a32.058,32.058,0,0,0,30.988-24H234a30.034,30.034,0,0,0,30-30v-2h80a8,8,0,0,0,8-8,80.237,80.237,0,0,0-6.056-30.544l13.668-4.556a112.056,112.056,0,0,1,8.674,43.243v8.428a8.007,8.007,0,0,0,.844,3.578l24.479,48.957A2,2,0,0,1,391.82,312H376.286a8,8,0,0,0-7.9,6.763L353.155,416H289.888l-18.671-9.336A41.771,41.771,0,0,1,248,369.1V344a8,8,0,0,0-16,0v25.1a57.683,57.683,0,0,0,32.062,51.876L280,428.944V480H153.444l14.447-86.685a8.005,8.005,0,0,0-.228-3.614l-5.7-18.988A425.7,425.7,0,0,1,144,248.3Z"/><circle cx="320" cy="280" r="16"/></g></svg>
