<?xml version="1.0"?>
<svg xmlns="http://www.w3.org/2000/svg" viewBox="0 0 512 512" width="512" height="512"><g id="outline"><path d="M342.219,371.613a8,8,0,0,0-7.072-7.108l-34.354-3.817q-9.653-1.072-19.388-1.391a176.8,176.8,0,0,0,41.737-38.456q1.029-1.324,2.042-2.672l22.458-29.945a8,8,0,0,0-7.97-12.645,185.483,185.483,0,0,0-91.259,47.3,194.766,194.766,0,0,0-18.637-112.81,8,8,0,0,0-14.31,0,194.765,194.765,0,0,0-18.638,112.81,185.483,185.483,0,0,0-91.259-47.3A8,8,0,0,0,97.6,288.224l22.459,29.945q1.01,1.347,2.045,2.676A176.765,176.765,0,0,0,163.836,359.3q-9.725.319-19.389,1.391l-34.353,3.817a8,8,0,0,0-1.647,15.541l41.347,13.782a89.959,89.959,0,0,0,64.733-2.983c.031-.014.063-.023.094-.036V416a8,8,0,0,0,16,0V390.81c.031.013.062.021.093.035a89.964,89.964,0,0,0,64.734,2.983l41.346-13.782A8,8,0,0,0,342.219,371.613Zm-51.831,7.035a73.982,73.982,0,0,1-53.242-2.454,36.078,36.078,0,0,0-13.949-3.053c-.191-.014-.381-.03-.576-.03s-.385.016-.576.03a36.082,36.082,0,0,0-13.949,3.053,73.973,73.973,0,0,1-53.242,2.454l-6.775-2.257a234.923,234.923,0,0,1,48.155.016,8,8,0,0,0,4.374-15.126l-9.583-4.746a163.5,163.5,0,0,1-56.3-45.521q-.945-1.214-1.869-2.445L124.33,297.2a169.465,169.465,0,0,1,78.945,56.609,8,8,0,0,0,14.194-6.367l-3.395-18.1a178.719,178.719,0,0,1,8.547-95.76,178.729,178.729,0,0,1,8.546,95.76l-3.4,18.1a8,8,0,0,0,14.194,6.367A169.474,169.474,0,0,1,320.912,297.2l-8.525,11.368q-.929,1.236-1.873,2.451a163.51,163.51,0,0,1-56.3,45.52l-9.583,4.746a8,8,0,0,0,4.374,15.126,234.862,234.862,0,0,1,48.156-.016Z"/><path d="M440,96H400s-.014-40.261-.021-40.391a7.982,7.982,0,0,0-.824-3.187l-16-32A8,8,0,0,0,376,16H144a8,8,0,0,0-7.155,4.422l-16,32a7.99,7.99,0,0,0-.824,3.2C120.014,55.75,120,96,120,96H72a8,8,0,0,0-8,8V488a8,8,0,0,0,8,8H440a8,8,0,0,0,8-8V104A8,8,0,0,0,440,96ZM328,96V64h24V96ZM176,152v16H112V152Zm-8-88H280V96H168Zm168,88v16H272V152Zm-40-16V64h16v72Zm112-4.807L392.645,112h30.71Zm0,329.614L423.355,480h-30.71Zm8-15.613V328a8,8,0,0,0-16,0V445.194l-16,20V126.806l16,20V248a8,8,0,0,0,16,0V146.806l16-20V465.194ZM384,64V96H368V64Zm-4.944-16H324.944l-8-16h54.112ZM148.944,32H299.056l8,16H140.944ZM152,64v72H136V64ZM80,112h40v24H104a8,8,0,0,0-8,8v32a8,8,0,0,0,8,8h80a8,8,0,0,0,8-8V144a8,8,0,0,0-8-8H168V112H280v24H264a8,8,0,0,0-8,8v32a8,8,0,0,0,8,8h80a8,8,0,0,0,8-8V144a8,8,0,0,0-8-8H328V112h40V480H80Z"/><path d="M408,272a8,8,0,0,0-8,8v16a8,8,0,0,0,16,0V280A8,8,0,0,0,408,272Z"/><path d="M280,448H264a8,8,0,0,0,0,16h16a8,8,0,0,0,0-16Z"/><path d="M344,448H312a8,8,0,0,0,0,16h32a8,8,0,0,0,0-16Z"/></g></svg>
