<?xml version="1.0"?>
<svg xmlns="http://www.w3.org/2000/svg" viewBox="0 0 512 512" width="512" height="512"><g id="outline"><path d="M52.786,276.747a8.024,8.024,0,0,0,2.789,2.394l14.258,7.378,35.134,46.947a8,8,0,0,0-1.537,8.945l19.324,41.748a104.12,104.12,0,0,0,43.732,110.5,8,8,0,0,0,4.43,1.338H277.084a8,8,0,0,0,4.43-1.338,103.843,103.843,0,0,0,46.177-78.782A104.005,104.005,0,1,0,264.3,312.094c-2.706-1.134-5.471-2.167-8.3-3.078V128a8,8,0,0,0,8-8V105.578A48.012,48.012,0,0,0,286.111,77.34,53.919,53.919,0,0,0,347.808,24a8,8,0,0,0-16,0,37.915,37.915,0,0,1-49.533,36.08,8,8,0,0,0-10.419,6.885,31.912,31.912,0,0,1-8.233,18.608A8,8,0,0,0,256,80H211.326a7.961,7.961,0,0,0-.667-3.2A32.021,32.021,0,0,1,240,32a8,8,0,0,0,0-16,47.993,47.993,0,0,0-45.252,64H192a8,8,0,0,0-8,8v32a8,8,0,0,0,8,8V309.035A102.959,102.959,0,0,0,168.885,319.8l-12.767-13.33a8,8,0,0,0-10.286-1.074l-1.274.869-35.986-48.085-2.635-15.727a8.005,8.005,0,0,0-1.424-3.388l-9.421-12.933a8,8,0,0,0-11.177-1.755l-38.8,28.265a8,8,0,0,0-1.755,11.176ZM280,320a88,88,0,1,1,88,88,87.015,87.015,0,0,1-40.281-9.738c-.065-.033-.133-.058-.2-.09a103.842,103.842,0,0,0-4.708-22.658l16.418-4.37A64.065,64.065,0,0,0,360,361.333V376a8,8,0,0,0,16,0V361.268a64.039,64.039,0,0,0,21.032,9.821l17.263,4.477a8,8,0,0,0,8.9-11.8l-6.018-10.235a64.028,64.028,0,0,0-11.165-14.03,65.714,65.714,0,0,0,29.832-26.365l3.012-5.021a8,8,0,0,0-5.291-11.961,66.212,66.212,0,0,0-42.921,6,58.106,58.106,0,0,0-4.665-24.5l-10.629-24.8a8,8,0,0,0-14.708,0l-10.629,24.8a58.091,58.091,0,0,0-4.665,24.5,66.2,66.2,0,0,0-42.921-6,8,8,0,0,0-5.291,11.961l3.013,5.021a65.7,65.7,0,0,0,29.954,26.42,64.025,64.025,0,0,0-11.136,14.159l-3.149,5.434a104.036,104.036,0,0,0-35.838-38.827C279.988,320.215,280,320.109,280,320Zm75.758,15.1a8,8,0,0,0-6.671-6.552,49.744,49.744,0,0,1-30.931-17.572,50.2,50.2,0,0,1,33.9,16,8,8,0,0,0,13.15-8.769,42.2,42.2,0,0,1-.479-34.255L368,276.309l3.276,7.646a42.2,42.2,0,0,1-.479,34.255,8,8,0,0,0,13.15,8.769,50.188,50.188,0,0,1,33.9-16,49.737,49.737,0,0,1-30.906,17.567,8,8,0,0,0-2.52,14.98,48.083,48.083,0,0,1,14.171,11.367,48.221,48.221,0,0,1-24.155-17.314,8,8,0,0,0-6.442-3.255h-.013a8,8,0,0,0-6.444,3.277,48.244,48.244,0,0,1-23.964,17.357A48.1,48.1,0,0,1,351.659,343.5,8,8,0,0,0,355.758,335.1ZM200,96h48v16H200ZM172.457,336.673A87.309,87.309,0,0,1,202,322.79a8,8,0,0,0,6-7.747V128h32V315.024a8,8,0,0,0,6.006,7.748A88.026,88.026,0,0,1,274.61,480H173.39a88.119,88.119,0,0,1-34.4-94.812,8,8,0,0,0-1.273-6.792l-1.418-3.064,47.188,63.054a8,8,0,0,0,11.117,1.673l25.863-18.844a8,8,0,0,0,1.694-11.259l-53.727-71.791A7.979,7.979,0,0,0,172.457,336.673ZM204.5,413.055l-12.931,9.421L127.7,337.133l13.228-9.024ZM86.87,242.016l3.6,4.939,2.644,15.78a8,8,0,0,0,1.485,3.472l36.73,49.08L118.1,324.311,81.544,275.463a8.007,8.007,0,0,0-2.729-2.311L64.605,265.8l-3.6-4.939Z"/><path d="M251.292,352.868a70.207,70.207,0,0,1,12.933,12.206,8,8,0,0,0,12.369-10.149,86.119,86.119,0,0,0-15.886-14.992,8,8,0,1,0-9.416,12.935Z"/><path d="M278.28,393.768A69.916,69.916,0,0,1,270.713,444a8,8,0,1,0,13.855,8,85.928,85.928,0,0,0,9.318-61.768,8,8,0,0,0-15.606,3.536Z"/></g></svg>
