<?xml version="1.0"?>
<svg xmlns="http://www.w3.org/2000/svg" viewBox="0 0 512 512" width="512" height="512"><g id="outline"><path d="M256,16A240,240,0,0,0,86.3,425.705,240,240,0,1,0,425.705,86.3,238.427,238.427,0,0,0,256,16ZM414.392,414.392A224,224,0,0,1,97.608,97.608,224,224,0,0,1,414.392,414.392Z"/><path d="M256,48A208.054,208.054,0,0,0,121.162,97.636a8,8,0,0,0-.468,11.746L286.069,274.757,402.618,391.306a8,8,0,0,0,5.657,2.342c.106,0,.212,0,.319-.006a8,8,0,0,0,5.77-2.8A208.054,208.054,0,0,0,464,256C464,141.309,370.691,48,256,48Zm17.577,191.637-35.5-35.5A240.666,240.666,0,0,1,256,126.765,240.619,240.619,0,0,1,273.577,239.637Zm29.493,29.491A230.118,230.118,0,0,1,396.1,214.854l-17.14,22.852c-.7.936-1.4,1.871-2.13,2.781A238.865,238.865,0,0,1,323.342,289.4Zm59.011,59.012-3.706-3.706c.342.035.677.071.993.106l10.135,1.126Zm45.585,45.586L374.73,340.789l34.387-11.462a8,8,0,0,0-1.645-15.541l-46.336-5.148c-5.321-.592-13.58-1.2-20.14-1.584l-6.13-6.13A255.921,255.921,0,0,0,389.311,250.5c.838-1.047,1.644-2.12,2.449-3.193l30.64-40.855a8,8,0,0,0-7.969-12.644,246.274,246.274,0,0,0-122.678,64.01l-3.684-3.684a256.952,256.952,0,0,0-24.914-150.178,8,8,0,0,0-14.31,0,256.6,256.6,0,0,0-25.5,85.451l-85.069-85.069A192.08,192.08,0,0,1,256,64c105.869,0,192,86.131,192,192A192.08,192.08,0,0,1,407.666,373.726Z"/><path d="M326.39,337.7l-.025-.236c-.065.007-.13.01-.195.017L109.382,120.694a8,8,0,0,0-11.746.468A208.054,208.054,0,0,0,48,256c0,114.691,93.309,208,208,208a208.054,208.054,0,0,0,134.838-49.636,8,8,0,0,0,.468-11.746Zm-84.867-40.338a8,8,0,0,0,4.851-8.438l-1.321-9.933L303.3,337.24a102.978,102.978,0,0,1-28.828-7.905,45.446,45.446,0,0,0-36.942,0,102.573,102.573,0,0,1-73.818,3.4L142.5,325.666l10.136-1.126a319.624,319.624,0,0,1,68.064-.249,8,8,0,0,0,4.374-15.126l-12.925-6.4c-30.329-15.022-56.92-36.526-76.9-62.187q-1.292-1.657-2.552-3.338L115.917,214.87a231.366,231.366,0,0,1,116.2,80A8,8,0,0,0,241.523,297.364ZM256,448C150.131,448,64,361.869,64,256a192.08,192.08,0,0,1,40.334-117.726l122.1,122.1.55,4.142A247.349,247.349,0,0,0,97.569,193.8,8,8,0,0,0,89.6,206.447l30.3,40.394q1.347,1.794,2.725,3.565A236.875,236.875,0,0,0,186.009,306.6a334.551,334.551,0,0,0-35.145,2.037l-46.336,5.148a8,8,0,0,0-1.646,15.541l55.769,18.59a118.57,118.57,0,0,0,85.31-3.932A30.9,30.9,0,0,1,248,342.544v37.927a8,8,0,0,0,16,0V342.544a30.9,30.9,0,0,1,4.039,1.441,119.043,119.043,0,0,0,51.951,9.946l53.736,53.735A192.08,192.08,0,0,1,256,448Z"/></g></svg>
