<?xml version="1.0"?>
<svg xmlns="http://www.w3.org/2000/svg" viewBox="0 0 512 512" width="512" height="512"><g id="outline"><path d="M490.3,194.919l-5.721-1.717a132.261,132.261,0,0,0-53.969-4.522,181.434,181.434,0,0,0,35.966-60.872l5.231-14.89a8,8,0,0,0-11.563-9.571l-1.8,1.041A181.217,181.217,0,0,0,406.9,149.12a167.028,167.028,0,0,0-18.689-80.815,8,8,0,0,0-14.251.117A173.974,173.974,0,0,0,355.678,149.5a181.16,181.16,0,0,0-51.85-45.116l-1.794-1.041a8,8,0,0,0-11.563,9.571l5.232,14.89a181.432,181.432,0,0,0,35.965,60.872A132.261,132.261,0,0,0,277.7,193.2l-5.721,1.717a8,8,0,0,0-.95,14.973l16.15,7.177a131.722,131.722,0,0,0,39.076,10.552,74.676,74.676,0,0,0-15.753,21.14l-1.831,3.661a8,8,0,0,0,8.471,11.469l11.171-1.862a74.779,74.779,0,0,0,44.818-25.514L373.25,304H336a8,8,0,0,0-7.96,8.8l3.688,36.888A30.574,30.574,0,0,1,320,352a8,8,0,0,0,0,16,46.819,46.819,0,0,0,13.366-1.939L336.04,392.8A8,8,0,0,0,344,400h10.151a46.816,46.816,0,0,1-7.808,10.344,8,8,0,1,0,11.314,11.312A62.454,62.454,0,0,0,371.786,400h16.428a62.454,62.454,0,0,0,14.129,21.656,8,8,0,1,0,11.314-11.312A46.816,46.816,0,0,1,405.849,400H416a8,8,0,0,0,7.96-7.2l2.674-26.735A46.784,46.784,0,0,0,440,368a8,8,0,0,0,0-16,30.574,30.574,0,0,1-11.728-2.316L431.96,312.8A8,8,0,0,0,424,304H389.25l-.12-67.506a74.774,74.774,0,0,0,44.835,25.535l11.171,1.862a8,8,0,0,0,8.471-11.469l-1.831-3.661a74.66,74.66,0,0,0-15.754-21.14A131.72,131.72,0,0,0,475.1,217.069l16.15-7.177a8,8,0,0,0-.95-14.973ZM415.16,320l-1.807,18.068a8,8,0,0,0-11.01,11.589l4.686,4.686a47.279,47.279,0,0,0,4.316,3.8L408.76,384h-8.289a47.283,47.283,0,0,1-.471-6.627V376a8,8,0,0,0-16,0v1.373a63.62,63.62,0,0,0,.353,6.627h-8.706a63.62,63.62,0,0,0,.353-6.627V376a8,8,0,0,0-16,0v1.373a47.283,47.283,0,0,1-.471,6.627H351.24l-2.585-25.852a47.419,47.419,0,0,0,4.315-3.8l4.687-4.687a8,8,0,0,0-11.01-11.589L344.84,320h70.32Zm-5.926-108.248a8,8,0,0,0-3.668,15.443,58.6,58.6,0,0,1,24.7,17.634,58.779,58.779,0,0,1-29.146-18.921L389.862,212.4l-2.643-3.118a8,8,0,0,0-6.1-2.827h-.033a8,8,0,0,0-6.112,2.878l-13.815,16.578a58.782,58.782,0,0,1-29.146,18.922,58.6,58.6,0,0,1,24.7-17.634,8,8,0,0,0-3.668-15.443,115.9,115.9,0,0,1-53.665-6.95,116.472,116.472,0,0,1,56.884,6.255,8,8,0,0,0,7.791-13.752,165.45,165.45,0,0,1-50.309-67.042,165.224,165.224,0,0,1,47.115,57.278,8,8,0,0,0,14.947-5.4,158.035,158.035,0,0,1,5.442-90.27,153.68,153.68,0,0,1,5.391,89.915,8,8,0,0,0,14.932,5.446,165.222,165.222,0,0,1,46.962-56.967,165.438,165.438,0,0,1-50.309,67.041,8,8,0,0,0,7.791,13.752A116.47,116.47,0,0,1,462.9,204.8,115.9,115.9,0,0,1,409.234,211.752Z"/><path d="M200,360a8,8,0,0,0-8-8,30.574,30.574,0,0,1-11.728-2.316L183.96,312.8A8,8,0,0,0,176,304H139l-.141-67.5a74.778,74.778,0,0,0,44.831,25.53l11.171,1.862a7.922,7.922,0,0,0,1.316.109,8,8,0,0,0,7.155-11.578l-1.831-3.661a74.66,74.66,0,0,0-15.754-21.14,131.728,131.728,0,0,0,39.077-10.552l16.15-7.177a8,8,0,0,0-.95-14.973L234.3,193.2a132.253,132.253,0,0,0-53.968-4.522A181.432,181.432,0,0,0,216.3,127.808l5.232-14.89a8,8,0,0,0-11.563-9.571l-1.8,1.041a181.2,181.2,0,0,0-51.548,44.732,167.038,167.038,0,0,0-18.688-80.815,8,8,0,0,0-14.251.117A173.964,173.964,0,0,0,105.4,149.5a181.17,181.17,0,0,0-51.849-45.116l-1.794-1.041a8,8,0,0,0-11.563,9.571l5.231,14.89A181.434,181.434,0,0,0,81.391,188.68,132.247,132.247,0,0,0,27.422,193.2L21.7,194.919a8,8,0,0,0-.95,14.973l16.15,7.177a131.722,131.722,0,0,0,39.076,10.552,74.676,74.676,0,0,0-15.753,21.14l-1.831,3.661a8,8,0,0,0,8.471,11.469l11.171-1.862a74.775,74.775,0,0,0,44.822-25.519L123,304H88a8,8,0,0,0-7.96,8.8l3.688,36.888A30.574,30.574,0,0,1,72,352a8,8,0,0,0,0,16,46.819,46.819,0,0,0,13.366-1.939L88.04,392.8A8,8,0,0,0,96,400h10.151a46.816,46.816,0,0,1-7.808,10.344,8,8,0,1,0,11.314,11.312A62.454,62.454,0,0,0,123.786,400h16.428a62.454,62.454,0,0,0,14.129,21.656,8,8,0,1,0,11.314-11.312A46.816,46.816,0,0,1,157.849,400H168a8,8,0,0,0,7.96-7.2l2.674-26.735A46.784,46.784,0,0,0,192,368,8,8,0,0,0,200,360ZM110.879,225.907a58.781,58.781,0,0,1-29.147,18.922,58.6,58.6,0,0,1,24.7-17.634,8,8,0,0,0-3.668-15.443A115.9,115.9,0,0,1,49.1,204.8a116.474,116.474,0,0,1,56.884,6.255,8,8,0,0,0,7.791-13.752,165.444,165.444,0,0,1-50.31-67.042,165.238,165.238,0,0,1,47.116,57.278,8,8,0,0,0,14.946-5.4,158.052,158.052,0,0,1,5.442-90.27,153.672,153.672,0,0,1,5.392,89.915,8,8,0,0,0,14.931,5.446,165.236,165.236,0,0,1,46.963-56.967,165.447,165.447,0,0,1-50.309,67.041,8,8,0,0,0,7.791,13.752,116.47,116.47,0,0,1,56.884-6.255,115.906,115.906,0,0,1-53.665,6.95,8,8,0,0,0-3.668,15.443,58.6,58.6,0,0,1,24.7,17.634,58.78,58.78,0,0,1-29.145-18.921L139.584,212.4l-2.643-3.119a8,8,0,0,0-6.1-2.826h-.034a8,8,0,0,0-6.112,2.879Zm54.474,112.161a8,8,0,0,0-11.01,11.589l4.686,4.686a47.279,47.279,0,0,0,4.316,3.8L160.76,384h-8.289a47.283,47.283,0,0,1-.471-6.627V376a8,8,0,0,0-16,0v1.373a63.62,63.62,0,0,0,.353,6.627h-8.706a63.62,63.62,0,0,0,.353-6.627V376a8,8,0,0,0-16,0v1.373a47.283,47.283,0,0,1-.471,6.627H103.24l-2.585-25.852a47.419,47.419,0,0,0,4.315-3.8l4.687-4.687a8,8,0,0,0-11.01-11.589L96.84,320h70.32Z"/><path d="M276.938,335.391a8,8,0,0,0,8.719-1.734l32-32a8,8,0,0,0,0-11.314l-32-32A8,8,0,0,0,272,264v8H248a8,8,0,0,0-8,8v32a8,8,0,0,0,8,8h24v8A8,8,0,0,0,276.938,335.391ZM256,304V288h24a8,8,0,0,0,7.494-5.192L300.686,296l-13.192,13.192A8,8,0,0,0,280,304Z"/><path d="M216,280v32a8,8,0,0,0,16,0V280a8,8,0,0,0-16,0Z"/><path d="M192,280v32a8,8,0,0,0,16,0V280a8,8,0,0,0-16,0Z"/><path d="M312,416a8,8,0,0,0,0-16H292a32.168,32.168,0,0,0-24,10.854A32.165,32.165,0,0,0,244,400H200a8,8,0,0,0,0,16h8v16h-8a8,8,0,0,0,0,16h44a32.168,32.168,0,0,0,24-10.854A32.165,32.165,0,0,0,292,448h20a8,8,0,0,0,0-16h-8V416Zm-80,16h-8V416h8Zm24.8-6.4a16.069,16.069,0,0,1-8.8,5.871V416.529a16.072,16.072,0,0,1,8.8,5.87L258,424Zm31.2,5.871a16.072,16.072,0,0,1-8.8-5.87L278,424l1.2-1.6a16.069,16.069,0,0,1,8.8-5.871Z"/></g></svg>
