<svg height="512" viewBox="0 0 512 512" width="512" xmlns="http://www.w3.org/2000/svg"><g id="outline"><path d="m316.448 342.767a8 8 0 0 0 -5.292 11.96l3.051 5.085a66.413 66.413 0 0 0 30.417 26.766 64.7 64.7 0 0 0 -11.365 14.415l-6.027 10.4a8 8 0 0 0 8.98 11.742l17.447-4.645a64.711 64.711 0 0 0 21.151-10.032v15.042a8 8 0 0 0 16 0v-15.11a64.754 64.754 0 0 0 21.417 10.043l17.477 4.532a8 8 0 0 0 8.9-11.8l-6.094-10.361a64.7 64.7 0 0 0 -11.394-14.285 66.422 66.422 0 0 0 30.293-26.711l3.05-5.084a8 8 0 0 0 -5.291-11.961 66.917 66.917 0 0 0 -43.537 6.14 58.714 58.714 0 0 0 -4.71-24.931l-10.762-25.111a8 8 0 0 0 -14.706 0l-10.753 25.115a58.714 58.714 0 0 0 -4.71 24.931 66.919 66.919 0 0 0 -43.542-6.14zm50.289 31.042a8 8 0 0 0 13.151-8.769 42.833 42.833 0 0 1 -.487-34.762l3.409-7.953 3.409 7.953a42.829 42.829 0 0 1 -.488 34.762 8 8 0 0 0 13.152 8.769 50.91 50.91 0 0 1 34.609-16.246 50.459 50.459 0 0 1 -31.494 18 8 8 0 0 0 -2.521 14.978 48.805 48.805 0 0 1 14.6 11.793 48.926 48.926 0 0 1 -24.832-17.667 8 8 0 0 0 -6.44-3.255h-.014a8 8 0 0 0 -6.444 3.278 48.92 48.92 0 0 1 -24.637 17.71 48.772 48.772 0 0 1 14.51-11.879 8 8 0 0 0 -2.572-14.956 50.445 50.445 0 0 1 -31.521-18 50.908 50.908 0 0 1 34.61 16.244z"/><path d="m29.62 104v32c0 .135.013.266.02.4 0 .1 0 .2.01.3l22.433 255.8a25.893 25.893 0 0 0 17.537 22.145v49.355a8 8 0 0 0 8 8h304c.08 0 .159-.01.239-.012.317 0 .633.012.951.012a105.19 105.19 0 1 0 -17.71-208.88 48.405 48.405 0 0 0 .525-7.12v-48a48.055 48.055 0 0 0 -48-48 7.993 7.993 0 0 0 -2.809.51 174.247 174.247 0 0 1 -111.629 3.633l2.407-27.444c.009-.1 0-.2.01-.3.007-.133.021-.264.021-.4v-31.999a8 8 0 0 0 -8-8h-160a8 8 0 0 0 -8.005 8zm88 352h-32v-40h32zm0-133v77h-39.658a9.946 9.946 0 0 1 -9.947-8.966l-21.663-247.034h142.535l-1.408 16.054a48.055 48.055 0 0 0 -45.859 47.946v48a47.989 47.989 0 0 0 21.507 40h-18.507a27.03 27.03 0 0 0 -27 27zm175.441-11a104.476 104.476 0 0 0 -15.215 48h-144.226v-37a11.012 11.012 0 0 1 11-11zm-74.652-16a174.745 174.745 0 0 1 70.411 0zm-84.789 160v-80h144.406a105.294 105.294 0 0 0 49.081 80zm249.19-178.38a89.19 89.19 0 1 1 -89.19 89.19 89.29 89.29 0 0 1 89.19-89.19zm-63.833-101.592a32.04 32.04 0 0 1 30.643 31.972v48a31.8 31.8 0 0 1 -2.241 11.766 105.249 105.249 0 0 0 -32.477 18.78 190.576 190.576 0 0 0 -126.639 1.426 32.04 32.04 0 0 1 -30.643-31.972v-48a32.04 32.04 0 0 1 30.643-31.972 190.249 190.249 0 0 0 130.714 0zm-145.357-64.028h16v16h-16zm-32 0h16v16h-16zm-32 0h16v16h-16zm-32 0h16v16h-16zm-32 0h16v16h-16z"/><path d="m360 88h16v16h-16z"/><path d="m360 40h16v16h-16z"/><path d="m336 64h16v16h-16z"/><path d="m384 64h16v16h-16z"/><path d="m248 144h16v16h-16z"/><path d="m112 48h16v16h-16z"/><path d="m80 64h16v16h-16z"/><path d="m248 112h16v16h-16z"/><path d="m232 128h16v16h-16z"/><path d="m264 128h16v16h-16z"/><path d="m416 208h16v16h-16z"/><path d="m416 176h16v16h-16z"/><path d="m400 192h16v16h-16z"/><path d="m432 192h16v16h-16z"/></g></svg>