<?xml version="1.0"?>
<svg xmlns="http://www.w3.org/2000/svg" viewBox="0 0 512 512" width="512" height="512"><g id="outline"><path d="M472.764,281.542a144.257,144.257,0,0,0-60.159-52.193A8,8,0,0,1,408,222.113V62.624A24,24,0,0,0,400,16H304a24,24,0,0,0-8,46.624V222.113a8.028,8.028,0,0,1-.256,1.979c-.63-.055-1.263-.092-1.9-.092H247.2a40,40,0,1,0-59.52,42.475L103.1,377.486A74.209,74.209,0,0,0,88,422.208a73.316,73.316,0,0,0,7.333,32.015L84.8,468.267a29.334,29.334,0,0,1-52.8-17.6,114.038,114.038,0,0,1,24.9-70.986L62.247,373A59.224,59.224,0,0,0,53,289.753a8,8,0,0,0-10,12.494A43.226,43.226,0,0,1,49.753,363l-5.346,6.683A130.1,130.1,0,0,0,16,450.667a45.333,45.333,0,0,0,81.6,27.2l6.91-9.214a73.7,73.7,0,0,0,53.128,27.233A8.145,8.145,0,0,0,159,496h81a8,8,0,0,0,8-8V475.884a88.8,88.8,0,0,0,8.545-8.067,143.018,143.018,0,0,0,46.68,27.71,8,8,0,0,0,2.71.473h92.13a8,8,0,0,0,2.71-.473,144.062,144.062,0,0,0,71.989-213.985ZM480,360a127.649,127.649,0,0,1-14.784,59.566,40.222,40.222,0,0,1-10.243-2.994,59.99,59.99,0,0,0-45.941,0,44,44,0,0,1-34.055,0,59.995,59.995,0,0,0-45.943,0,44.018,44.018,0,0,1-34.061,0,54.118,54.118,0,0,0-15.089-4.136c.074-1.473.116-2.951.116-4.436V384h24a8,8,0,0,0,8-8v-3.47l6.3-1.677a76.506,76.506,0,0,0,27.572-13.809v21.443a8,8,0,0,0,16,0V356.98a76.484,76.484,0,0,0,27.884,13.8l21.074,5.466a8,8,0,0,0,8.9-11.8l-7.348-12.493a76.3,76.3,0,0,0-15.336-18.579,78.434,78.434,0,0,0,38.131-32.536l3.678-6.13a8,8,0,0,0-5.291-11.961,79.1,79.1,0,0,0-53.966,8.618,69.211,69.211,0,0,0-5.4-32.241l-12.977-30.278a8,8,0,0,0-14.706,0l-12.976,30.278a69.208,69.208,0,0,0-5.4,32.212,79.125,79.125,0,0,0-31.56-9.791L312.146,258.2a21.946,21.946,0,0,0-1.97-26.926A24,24,0,0,0,312,222.113V64h80V222.113a24.049,24.049,0,0,0,13.865,21.746A128.508,128.508,0,0,1,480,360ZM242.757,459.035A26.978,26.978,0,0,0,221,448H200V432h2a46.053,46.053,0,0,0,46-46v-2h16v24A71.753,71.753,0,0,1,242.757,459.035Zm106.1-150.352a53.294,53.294,0,0,1-.605-43.253l5.623-13.121L359.5,265.43a53.294,53.294,0,0,1-.606,43.253,8,8,0,0,0,13.151,8.768,63.074,63.074,0,0,1,46.259-20.21h.1A62.482,62.482,0,0,1,377.26,322.3a8,8,0,0,0-2.52,14.978,60.429,60.429,0,0,1,21.124,18.556l-2.091-.543A60.605,60.605,0,0,1,360.3,332.632a8,8,0,0,0-6.441-3.255h-.014a8,8,0,0,0-6.443,3.277,60.629,60.629,0,0,1-33.221,22.738l-2.075.552a60.413,60.413,0,0,1,20.979-18.679,8,8,0,0,0-2.57-14.955,62.461,62.461,0,0,1-41.143-25.069,62.878,62.878,0,0,1,46.328,20.21,8,8,0,0,0,13.151-8.768ZM280,326.348a65.927,65.927,0,0,1,1.406-13.52,78.289,78.289,0,0,0,29.428,20.606,76.3,76.3,0,0,0-10.752,11.833A35.866,35.866,0,0,0,280,336.228ZM304,32h96a8,8,0,0,1,0,16H304a8,8,0,0,1,0-16ZM232,480H161.792a57.792,57.792,0,0,1-45.97-92.816l87.94-115.421a39.551,39.551,0,0,0,14.232-1.024,8,8,0,1,0-3.988-15.494,24.355,24.355,0,0,1-11.7.075c-.022-.006-.042-.015-.063-.02a23.991,23.991,0,1,1,26.553-11.306,8,8,0,1,0,13.85,8.012A39.883,39.883,0,0,0,247.188,240h46.653a6,6,0,0,1,4.992,9.328L277.74,280.969A81.543,81.543,0,0,0,264,326.348V336H240a8,8,0,0,0,0,16h36a20.035,20.035,0,0,1,19.6,16H240a8,8,0,0,0-8,8v10a30.034,30.034,0,0,1-30,30h-4.064A36.057,36.057,0,0,0,164,392H152a8,8,0,0,0,0,16h12a20.023,20.023,0,0,1,20,20v28a8,8,0,0,0,8,8h29a11.013,11.013,0,0,1,11,11Zm164.648,0h-89.3a127.161,127.161,0,0,1-41.008-24.892,87.5,87.5,0,0,0,11.3-26.824,39.15,39.15,0,0,1,11.391,3.144,60,60,0,0,0,45.946,0,44.011,44.011,0,0,1,34.058,0,59.99,59.99,0,0,0,45.941,0,44,44,0,0,1,34.055,0,72.044,72.044,0,0,0,7.311,2.59A127.851,127.851,0,0,1,396.648,480Z"/><circle cx="256" cy="264" r="8"/><path d="M224,296h11.056l-2.211,4.422a8,8,0,1,0,14.31,7.156l8-16A8,8,0,0,0,248,280H224a8,8,0,0,0,0,16Z"/><path d="M360,160a24,24,0,1,0,24,24A24.027,24.027,0,0,0,360,160Zm0,32a8,8,0,1,1,8-8A8.009,8.009,0,0,1,360,192Z"/><path d="M368,120a24,24,0,1,0-24,24A24.027,24.027,0,0,0,368,120Zm-32,0a8,8,0,1,1,8,8A8.009,8.009,0,0,1,336,120Z"/></g></svg>
