<?xml version="1.0"?>
<svg xmlns="http://www.w3.org/2000/svg" viewBox="0 0 512 512" width="512" height="512"><g id="outline"><path d="M471.845,343.265,419.36,266.923A201.22,201.22,0,0,0,424,224c0-110.28-89.72-200-200-200S24,113.72,24,224s89.72,200,200,200a198.616,198.616,0,0,0,73.233-13.849,92.04,92.04,0,0,0,52.588,68.713,101.916,101.916,0,0,0,84.359,0,91.814,91.814,0,0,0,37.665-135.6ZM40,224C40,122.542,122.542,40,224,40s184,82.542,184,184a186.036,186.036,0,0,1-1.584,24.1l-7.824-11.379a8,8,0,0,0-13.184,0l-12.4,18.034-2.421-.727a175.655,175.655,0,0,0-79.315-4.879A241.736,241.736,0,0,0,344.5,162.295l7.051-20.068a8,8,0,0,0-11.564-9.571l-2.418,1.4a241.384,241.384,0,0,0-74.018,66.645,222.778,222.778,0,0,0-24.513-116.4,8,8,0,0,0-7.1-4.305h-.066a8,8,0,0,0-7.089,4.422A231.766,231.766,0,0,0,200.772,201.23a241.361,241.361,0,0,0-74.4-67.17l-2.418-1.4a8,8,0,0,0-11.564,9.571l7.051,20.068a241.739,241.739,0,0,0,53.223,86.849,175.634,175.634,0,0,0-79.313,4.88l-7.712,2.313a8,8,0,0,0-.95,14.974l21.768,9.674A174.862,174.862,0,0,0,164.7,295.57a97.772,97.772,0,0,0-25.451,31.917l-2.467,4.935a8,8,0,0,0,8.47,11.469l15.057-2.509a98.015,98.015,0,0,0,59.154-33.917l4.474-5.368V368a8,8,0,0,0,16,0V302.023l4.535,5.443a98.019,98.019,0,0,0,59.153,33.916l8.813,1.468-.285.415a91.393,91.393,0,0,0-16.119,50.085A182.634,182.634,0,0,1,224,408C122.542,408,40,325.458,40,224ZM323.965,326.087a97.743,97.743,0,0,0-24.728-30.517,174.929,174.929,0,0,0,54.679-13.049Zm-85.924-51.261A8.119,8.119,0,0,0,231.905,272a8,8,0,0,0-6.112,2.878l-18.619,22.345a82.007,82.007,0,0,1-48.2,28.149,81.707,81.707,0,0,1,39.09-30.8,8,8,0,0,0-2.806-15.489,8.085,8.085,0,0,0-.862.046,158.941,158.941,0,0,1-81.443-12.764l-1.116-.5a159.816,159.816,0,0,1,87.579,6.951,8,8,0,0,0,7.791-13.752A225.771,225.771,0,0,1,135.127,158.65a225.409,225.409,0,0,1,72,83.836,8,8,0,0,0,14.946-5.4,215.813,215.813,0,0,1,10-129.946,209.547,209.547,0,0,1,10.014,129.478,8,8,0,0,0,14.932,5.446,225.482,225.482,0,0,1,71.791-83.414,225.8,225.8,0,0,1-72.083,100.417,8,8,0,0,0,7.791,13.752,159.818,159.818,0,0,1,87.579-6.951l-1.116.5a158.915,158.915,0,0,1-81.443,12.764,8,8,0,0,0-3.668,15.443,81.707,81.707,0,0,1,39.09,30.8,82.007,82.007,0,0,1-48.2-28.149L241.6,279.028ZM427.559,464.3l3.31,7.283-3.311-7.283a85.914,85.914,0,0,1-71.117,0,75.814,75.814,0,0,1-31.1-111.969L392,255.369l66.66,96.96a75.814,75.814,0,0,1-31.1,111.969Z"/><path d="M437.657,347.591a8,8,0,0,0-11.314,0l-80,80a8,8,0,0,0,11.314,11.314l80-80A8,8,0,0,0,437.657,347.591Z"/><path d="M384,369.248a24,24,0,1,0-24,24A24.027,24.027,0,0,0,384,369.248Zm-32,0a8,8,0,1,1,8,8A8.009,8.009,0,0,1,352,369.248Z"/><path d="M424,393.248a24,24,0,1,0,24,24A24.027,24.027,0,0,0,424,393.248Zm0,32a8,8,0,1,1,8-8A8.009,8.009,0,0,1,424,425.248Z"/></g></svg>
