<svg height="512" viewBox="0 0 512 512" width="512" xmlns="http://www.w3.org/2000/svg"><g id="outline"><path d="m488 120h-24v-16a8 8 0 0 0 -8-8h-24v-8a8 8 0 0 0 -8-8h-24v-8a8 8 0 0 0 -8-8h-368a8 8 0 0 0 -8 8v288a40.068 40.068 0 0 0 32 39.2v8.8a40.045 40.045 0 0 0 40 40h368a40.045 40.045 0 0 0 40-40v-280a8 8 0 0 0 -8-8zm-88-24h16v264a8 8 0 0 0 16 0v-248h16v248a24 24 0 0 1 -48 0zm-344 288a24.028 24.028 0 0 1 -24-24v-280h352v280a39.788 39.788 0 0 0 8.022 24zm32 48a24.028 24.028 0 0 1 -24-24v-8h352v8a39.788 39.788 0 0 0 8.022 24zm392-24a24 24 0 0 1 -48 0v-8.8a39.841 39.841 0 0 0 16-7.217v16.017a8 8 0 0 0 16 0v-272h16z"/><path d="m232 192h-176a8 8 0 0 0 -8 8v160a8 8 0 0 0 8 8h176a8 8 0 0 0 8-8v-160a8 8 0 0 0 -8-8zm-8 160h-160v-144h160z"/><path d="m64 152h288v16h-288z"/><path d="m64 96h288v16h-288z"/><path d="m256 200h40v16h-40z"/><path d="m312 200h56v16h-56z"/><path d="m296 232h72v16h-72z"/><path d="m256 232h24v16h-24z"/><path d="m336 264h32v16h-32z"/><path d="m256 264h64v16h-64z"/><path d="m296 296h72v16h-72z"/><path d="m74.6 280.406a66.419 66.419 0 0 0 30.417 26.768 64.658 64.658 0 0 0 -11.365 14.415l-6.027 10.4a8 8 0 0 0 8.979 11.742l17.448-4.644a64.711 64.711 0 0 0 21.151-10.032v8.433a8 8 0 0 0 16 0v-8.5a64.734 64.734 0 0 0 21.416 10.041l17.478 4.533a8 8 0 0 0 8.9-11.8l-6.086-10.362a64.7 64.7 0 0 0 -11.4-14.285 66.423 66.423 0 0 0 30.3-26.712l3.049-5.083a8 8 0 0 0 -5.291-11.961 66.947 66.947 0 0 0 -43.538 6.141 58.715 58.715 0 0 0 -4.71-24.932l-10.76-25.111a8 8 0 0 0 -14.707 0l-10.761 25.111a58.7 58.7 0 0 0 -4.711 24.932 66.925 66.925 0 0 0 -43.538-6.141 8 8 0 0 0 -5.291 11.961zm52.53 14a8 8 0 0 0 13.15-8.768 42.826 42.826 0 0 1 -.485-34.761l3.408-7.953 3.408 7.953a42.83 42.83 0 0 1 -.486 34.761 8 8 0 0 0 13.15 8.768 50.916 50.916 0 0 1 34.61-16.244 50.462 50.462 0 0 1 -31.5 18 8 8 0 0 0 -2.52 14.979 48.77 48.77 0 0 1 14.6 11.793 48.926 48.926 0 0 1 -24.831-17.666 8 8 0 0 0 -6.441-3.255h-.014a8 8 0 0 0 -6.443 3.277 48.946 48.946 0 0 1 -24.634 17.711 48.738 48.738 0 0 1 14.509-11.879 8 8 0 0 0 -2.57-14.955 50.457 50.457 0 0 1 -31.522-18 50.925 50.925 0 0 1 34.615 16.233z"/></g></svg>