<?xml version="1.0"?>
<svg xmlns="http://www.w3.org/2000/svg" viewBox="0 0 512 512" width="512" height="512"><g id="outline"><path d="M376,16a56.092,56.092,0,0,0-53.659,40H216a8,8,0,0,0-8,8v48a8,8,0,0,0,8,8H320v24a16.019,16.019,0,0,0-16,16v73.258A33.051,33.051,0,0,0,280,265V488a8,8,0,0,0,8,8H464a8,8,0,0,0,8-8V265a33.051,33.051,0,0,0-24-31.742V160a16.019,16.019,0,0,0-16-16V72A56.063,56.063,0,0,0,376,16Zm56,144v72H416V160ZM336,72a40,40,0,0,1,80,0v72H336Zm64,88v72H384V160Zm-32,0v72H352V160ZM224,104V72h96v32Zm96,56h16v72H320Zm119,88a17.019,17.019,0,0,1,17,17V480H296V265a17.019,17.019,0,0,1,17-17Z"/><path d="M310.431,328.155a8,8,0,0,0-5.291,11.961l3.013,5.022a65.724,65.724,0,0,0,29.953,26.42,64.022,64.022,0,0,0-11.135,14.158l-5.953,10.272A8,8,0,0,0,330,407.73l17.235-4.586A64.042,64.042,0,0,0,368,393.332V408a8,8,0,0,0,16,0V393.268a64.039,64.039,0,0,0,21.032,9.821l17.263,4.477a8,8,0,0,0,8.9-11.8l-6.018-10.236A64.047,64.047,0,0,0,414.016,371.5a65.719,65.719,0,0,0,29.832-26.365l3.012-5.022a8,8,0,0,0-5.291-11.961,66.2,66.2,0,0,0-42.921,6,58.114,58.114,0,0,0-4.665-24.5l-10.629-24.8a8,8,0,0,0-14.708,0l-10.629,24.8a58.109,58.109,0,0,0-4.665,24.5A66.191,66.191,0,0,0,310.431,328.155Zm49.622,30.824a8,8,0,0,0,13.15-8.769,42.2,42.2,0,0,1-.479-34.256L376,308.309l3.276,7.645a42.2,42.2,0,0,1-.479,34.256,8,8,0,0,0,13.15,8.769,50.186,50.186,0,0,1,33.9-16,49.751,49.751,0,0,1-30.907,17.568,8,8,0,0,0-2.52,14.978,48.1,48.1,0,0,1,14.17,11.368,48.212,48.212,0,0,1-24.154-17.314,8,8,0,0,0-6.442-3.255h-.013a8,8,0,0,0-6.444,3.278,48.248,48.248,0,0,1-23.964,17.356,48.075,48.075,0,0,1,14.087-11.452,8,8,0,0,0-2.571-14.955,49.742,49.742,0,0,1-30.932-17.572A50.192,50.192,0,0,1,360.053,358.979Z"/><path d="M382,48H368a8,8,0,0,0,0,16h14a2,2,0,0,1,2,2V88a8,8,0,0,0,16,0V66A18.021,18.021,0,0,0,382,48Z"/><path d="M392,104a8,8,0,0,0-8,8v8a8,8,0,0,0,16,0v-8A8,8,0,0,0,392,104Z"/><path d="M368,448h-8a8,8,0,0,0,0,16h8a8,8,0,0,0,0-16Z"/><path d="M432,448H400a8,8,0,0,0,0,16h32a8,8,0,0,0,0-16Z"/><path d="M86.609,121.063l-16,2.824a8,8,0,1,0,2.782,15.756l16-2.824a8,8,0,0,0-2.782-15.756Z"/><path d="M117.323,131.766a8.065,8.065,0,0,0,1.4-.123l18.667-3.294a8,8,0,0,0-2.782-15.756l-18.667,3.294a8,8,0,0,0,1.381,15.879Z"/><path d="M159.99,124.236a8.065,8.065,0,0,0,1.4-.123l24-4.235a8,8,0,0,0-2.782-15.756l-24,4.235a8,8,0,0,0,1.381,15.879Z"/><path d="M199.878,65.391a8,8,0,0,0-6.487-9.269l-16-2.823a8,8,0,1,0-2.782,15.756l16,2.823a7.993,7.993,0,0,0,9.269-6.487Z"/><path d="M150.609,64.819a8,8,0,0,0,2.782-15.756l-24-4.235a8,8,0,1,0-2.782,15.756Z"/><path d="M94.609,54.937a8,8,0,0,0,2.782-15.756l-24-4.236A8,8,0,0,0,70.609,50.7Z"/><path d="M128,88a8,8,0,0,0-8-8H48a8,8,0,0,0,0,16h72A8,8,0,0,0,128,88Z"/><path d="M176,96a8,8,0,0,0,0-16H144a8,8,0,0,0,0,16Z"/></g></svg>
