<?xml version="1.0"?>
<svg xmlns="http://www.w3.org/2000/svg" viewBox="0 0 512 512" width="512" height="512"><g id="outline"><path d="M326.431,305.537a151.629,151.629,0,0,0-71.538,35.838,159.2,159.2,0,0,0-15.738-88.042,8,8,0,0,0-14.31,0,159.2,159.2,0,0,0-15.738,88.042,151.629,151.629,0,0,0-71.538-35.838,8,8,0,0,0-7.969,12.645l18.175,24.233q.828,1.1,1.672,2.189c9.453,12.14,16.584,20.729,29.735,28.794-3.332.264-6.826.577-10.616,1l-27.8,3.088a8,8,0,0,0-1.647,15.541l33.462,11.155A74.14,74.14,0,0,0,224,402.558V416a8,8,0,0,0,16,0V402.565a74.326,74.326,0,0,0,51.421,1.615l33.462-11.155a8,8,0,0,0-1.647-15.541l-27.8-3.088c-3.79-.421-7.284-.734-10.616-1,13.151-8.065,20.281-16.653,29.733-28.793q.846-1.086,1.673-2.189L334.4,318.182a8,8,0,0,0-7.969-12.645Zm-23.008,27.28q-.738.986-1.5,1.956c-12.341,15.851-18.739,23.264-41.092,32.89-.1.043-.2.089-.3.136l-8,3.842a8,8,0,0,0,2.385,15.138c7.947,1.081,14.563,1.551,21.569,2.048,2.738.194,5.525.392,8.434.632a58.376,58.376,0,0,1-40.6-2.411A29.732,29.732,0,0,0,232.3,384.44h-.6a29.747,29.747,0,0,0-12.029,2.607,58.35,58.35,0,0,1-40.6,2.412c2.909-.24,5.7-.438,8.434-.632,7.006-.5,13.622-.967,21.569-2.048a8,8,0,0,0,2.385-15.138l-8-3.842c-.1-.047-.2-.093-.3-.136-22.353-9.626-28.751-17.039-41.094-32.892q-.756-.969-1.494-1.955l-3.819-5.091a135.621,135.621,0,0,1,58.38,43.549,8,8,0,0,0,14.193-6.367l-2.747-14.65A143.092,143.092,0,0,1,232,277.526a143.092,143.092,0,0,1,5.417,72.731l-2.747,14.65a8,8,0,0,0,14.193,6.367,135.621,135.621,0,0,1,58.38-43.549Z"/><path d="M404,388h4v4a8,8,0,0,0,8,8h24a8,8,0,0,0,8-8v-4h4a8,8,0,0,0,8-8V356a8,8,0,0,0-8-8h-4v-4a8,8,0,0,0-8-8H416a8,8,0,0,0-8,8v4h-4a8,8,0,0,0-8,8v24A8,8,0,0,0,404,388Zm8-24h4a8,8,0,0,0,8-8v-4h8v4a8,8,0,0,0,8,8h4v8h-4a8,8,0,0,0-8,8v4h-8v-4a8,8,0,0,0-8-8h-4Z"/><path d="M488,312h-3.056L472,286.111V256a8,8,0,0,0-8-8H416V232h8a24,24,0,0,0,0-48V152a32.036,32.036,0,0,0-32-32H344V74a26.029,26.029,0,0,0-26-26H138a26.029,26.029,0,0,0-26,26v46H72a32.036,32.036,0,0,0-32,32v32a24,24,0,0,0,0,48h8V422a34.038,34.038,0,0,0,34,34H464a24.028,24.028,0,0,0,24-24v-8a8,8,0,0,0,8-8V320A8,8,0,0,0,488,312Zm-40-48h8v16h-8Zm-24,0h8v16h-8Zm35.056,32,8,16H388.944l8-16ZM400,280V264h8v16Zm24-80a8,8,0,0,1,0,16H368V200ZM128,74a10.011,10.011,0,0,1,10-10H318a10.011,10.011,0,0,1,10,10v6H128ZM328,96v24H312V96Zm-32,0v24H160V96ZM128,96h16v24H128ZM56,152a16.019,16.019,0,0,1,16-16H392a16.019,16.019,0,0,1,16,16v32H56Zm248,64V200h48v16Zm48,16v8H304v-8Zm-64-32v16H176V200ZM112,216V200h48v16Zm48,16v8H112v-8ZM40,216a8,8,0,0,1,0-16H96v16ZM368,424v8a23.889,23.889,0,0,0,1.376,8H82a18.021,18.021,0,0,1-18-18V232H96v16a8,8,0,0,0,8,8h64a8,8,0,0,0,8-8V232H288v16a8,8,0,0,0,8,8h64a8,8,0,0,0,8-8V232h32v16h-8a8,8,0,0,0-8,8v30.111L371.056,312H368a8,8,0,0,0-8,8v96A8,8,0,0,0,368,424Zm104,8a8.009,8.009,0,0,1-8,8H392a8.009,8.009,0,0,1-8-8v-8h88Zm8-24H376V328H480Z"/></g></svg>
