<svg height="512" viewBox="0 0 512 512" width="512" xmlns="http://www.w3.org/2000/svg"><g id="outline"><path d="m309.187 382.086-13.557 24a8 8 0 1 0 13.932 7.869l13.589-24.055a87.45 87.45 0 0 0 20.968 31.894l18.165 17.54a8 8 0 0 0 13.556-5.894l-.294-16.81a87.292 87.292 0 0 0 -5.54-29.107 89.684 89.684 0 0 0 58.364-10.647l7.211-4.093a8 8 0 0 0 1.275-13.016 90.475 90.475 0 0 0 -61.026-21.748 79 79 0 0 0 14.109-37.082l4.166-37.98a8 8 0 0 0 -12.8-7.233l-30.38 23.176a79.026 79.026 0 0 0 -24.473 31.229 90.484 90.484 0 0 0 -50.133-41.035 8 8 0 0 0 -10.489 7.806l.219 8.287a89.691 89.691 0 0 0 21.12 55.609 87.208 87.208 0 0 0 -27.815 10.479l-14.493 8.525a8 8 0 0 0 2.044 14.64l24.442 6.345a87.487 87.487 0 0 0 37.84 1.301zm-4.041-26.83a8 8 0 0 0 5.117-14.286 73.739 73.739 0 0 1 -28-52.075 74.455 74.455 0 0 1 38.042 48.83 8 8 0 0 0 15.763-1.168 63.091 63.091 0 0 1 24.559-44.94l15.536-11.853-2.131 19.425a63.091 63.091 0 0 1 -25.806 44.235 8 8 0 0 0 7.138 14.1 74.46 74.46 0 0 1 61.46 7.369 73.743 73.743 0 0 1 -59.017 2.922 8 8 0 0 0 -9.561 11.8 71.33 71.33 0 0 1 11.209 34.739l-4.226-4.08a71.583 71.583 0 0 1 -21.255-42.747 8 8 0 0 0 -11.242-6.323 71.591 71.591 0 0 1 -47.369 4.086l-5.684-1.476a71.483 71.483 0 0 1 35.467-8.558z"/><path d="m281.062 448.146a122.63 122.63 0 1 0 -46.462-167.083 121.881 121.881 0 0 0 46.462 167.083zm-32.536-159.214a106.6 106.6 0 1 1 40.406 145.283 106.7 106.7 0 0 1 -40.406-145.283z"/><path d="m40 496h288a8 8 0 0 0 2.344-.351c3.587.254 7.185.394 10.79.394a155.394 155.394 0 0 0 41.662-5.722 153.588 153.588 0 0 0 93.191-72.921c41.923-74.228 15.642-168.725-58.585-210.648a154.714 154.714 0 0 0 -156.9 2.893 36.006 36.006 0 0 0 -24.502-9.645h-28.287a35.955 35.955 0 0 1 -34.152-24.616l-13.971-41.914a8 8 0 0 0 -13.569-2.785l-56.68 63.765a36.95 36.95 0 0 0 -2.685 45.713 34.048 34.048 0 0 0 -30.656 33.837v14h-16a8 8 0 0 0 -8 8v25.376a24.039 24.039 0 0 0 -16 22.624v128a24.027 24.027 0 0 0 24 24zm301.6-293.208a137.773 137.773 0 0 1 67.929 17.894c66.546 37.584 90.107 122.3 52.523 188.848a138.6 138.6 0 1 1 -120.452-206.742zm-269.6 71.208a18.021 18.021 0 0 1 18-18h26.981a8 8 0 0 0 0-16 20.981 20.981 0 0 1 -15.681-34.92l47.486-53.423 9.6 28.787a51.936 51.936 0 0 0 49.327 35.556h28.287a19.99 19.99 0 0 1 10.72 3.129 153.249 153.249 0 0 0 -22.1 20.871h-24.62a8 8 0 0 0 0 16h12.479q-3 4.537-5.725 9.339a156.527 156.527 0 0 0 -10.509 22.661h-124.245zm-24 30h143.282a152.571 152.571 0 0 0 -3.106 16h-140.176zm-16 40a8.009 8.009 0 0 1 8-8h146.8a155.062 155.062 0 0 0 5.625 46.8c.112.4.235.8.351 1.2h-160.776zm0 56h166.3a153.1 153.1 0 0 0 31.02 48h-197.32zm0 64s214.727-.034 215.082-.082a156.778 156.778 0 0 0 18.257 12.069c2.509 1.417 5.052 2.744 7.615 4.013h-232.954a8.009 8.009 0 0 1 -8-8z"/><path d="m168 240h-16a8 8 0 0 0 0 16h16a8 8 0 0 0 0-16z"/><path d="m72 352h-16a8 8 0 0 0 0 16h16a8 8 0 0 0 0-16z"/><path d="m152 352h-48a8 8 0 0 0 0 16h48a8 8 0 0 0 0-16z"/><path d="m224 96h16v16h-16z"/><path d="m224 144h16v16h-16z"/><path d="m200 120h16v16h-16z"/><path d="m248 120h16v16h-16z"/><path d="m144 24h16v16h-16z"/><path d="m144 56h16v16h-16z"/><path d="m128 40h16v16h-16z"/><path d="m160 40h16v16h-16z"/><path d="m56 104h16v24h-16z"/><path d="m56 144h16v24h-16z"/><path d="m40 128h16v16h-16z"/><path d="m72 128h16v16h-16z"/></g></svg>