<?xml version="1.0"?>
<svg xmlns="http://www.w3.org/2000/svg" viewBox="0 0 512 512" width="512" height="512"><g id="outline"><path d="M244.817,331.9A78.432,78.432,0,0,0,283.089,364.5,76.336,76.336,0,0,0,267.8,383.234l-7.268,12.54a8,8,0,0,0,8.98,11.742l21.038-5.6a76.479,76.479,0,0,0,27.573-13.809v21.444a8,8,0,0,0,16,0V388.044a76.461,76.461,0,0,0,27.884,13.8l21.074,5.465a8,8,0,0,0,8.9-11.8l-7.347-12.493a76.342,76.342,0,0,0-15.336-18.579A78.44,78.44,0,0,0,407.437,331.9l3.677-6.13a8,8,0,0,0-5.291-11.961,79.088,79.088,0,0,0-53.968,8.618,69.185,69.185,0,0,0-5.4-32.241L333.48,259.912a8,8,0,0,0-14.707,0L305.8,290.19a69.2,69.2,0,0,0-5.4,32.241,79.091,79.091,0,0,0-53.966-8.618,8,8,0,0,0-5.291,11.961Zm16.882-3.6a63.081,63.081,0,0,1,46.259,20.209,8,8,0,0,0,13.15-8.768,53.294,53.294,0,0,1-.6-43.253l5.623-13.12,5.622,13.12a53.287,53.287,0,0,1-.6,43.252,8,8,0,0,0,13.15,8.769,63.076,63.076,0,0,1,46.26-20.209h.1a62.483,62.483,0,0,1-41.138,25.062,8,8,0,0,0-2.521,14.979A60.425,60.425,0,0,1,368.119,386.9l-2.093-.543A60.606,60.606,0,0,1,332.558,363.7a8,8,0,0,0-6.441-3.255H326.1a8,8,0,0,0-6.444,3.278,60.625,60.625,0,0,1-33.222,22.736l-2.086.556a60.4,60.4,0,0,1,20.992-18.683,8,8,0,0,0-2.573-14.954A62.482,62.482,0,0,1,261.6,328.305Z"/><path d="M433.059,16.008Q432.539,16,432.02,16C397.8,16,369.2,43.507,368.038,77.792a63.9,63.9,0,0,0,8.231,33.667,205.578,205.578,0,0,1,13.866,29.018L391.456,144H296V112a8,8,0,0,0-13.657-5.657L264,124.686l-18.343-18.343A8,8,0,0,0,232,112v32H208a32.036,32.036,0,0,0-32,32V288H72A55.987,55.987,0,0,0,43.19,392,55.987,55.987,0,0,0,72,496H432a8,8,0,0,0,8-8V207.2A40.068,40.068,0,0,0,472,168V145.45l1.868-4.981a170.068,170.068,0,0,1,13.123-27.737,64,64,0,0,0-53.932-96.724ZM176,448H72a8,8,0,0,1,0-16H176Zm0-32H72a24,24,0,0,0,0,48H176v16H72a40,40,0,0,1,0-80H176Zm0-64H72a8,8,0,0,1,0-16H176Zm0-32H72a24,24,0,0,0,0,48H176v16H72a40,40,0,0,1,0-80H176ZM296,160h96v8H296Zm-48-28.686,10.343,10.343a8,8,0,0,0,11.314,0L280,131.314V168H248ZM208,480H192V203.7A31.8,31.8,0,0,0,208,208Zm0-288a16,16,0,0,1,0-32h24v8H216a8,8,0,0,0,0,16H395.35a40.054,40.054,0,0,0,4.672,8ZM424,480H224V448H424Zm0-48H224V240H424Zm0-208H224V208H424Zm32-64a8,8,0,0,0-1.335,15.88,23.994,23.994,0,0,1-45.289.12H424a8,8,0,0,0,0-16H408v-8h48ZM421.657,98.343,410.562,87.248,415.992,80h30.75l6.394,7.55L442.343,98.343A8,8,0,0,0,440,104v32H424V104A8,8,0,0,0,421.657,98.343Zm51.6,6.189a185.691,185.691,0,0,0-14.365,30.319L458.456,136H456V107.313l13.657-13.656a8,8,0,0,0,.448-10.827l-13.548-16A8,8,0,0,0,450.451,64H411.99a8,8,0,0,0-6.4,3.2l-11.99,16a8,8,0,0,0,.745,10.454L408,107.313V136h-2.456l-.428-1.141a221.241,221.241,0,0,0-14.924-31.283,48,48,0,1,1,83.061.956Z"/></g></svg>
