<?xml version="1.0"?>
<svg xmlns="http://www.w3.org/2000/svg" viewBox="0 0 512 512" width="512" height="512"><g id="outline"><path d="M48,496H470a26.03,26.03,0,0,0,26-26V218a26.03,26.03,0,0,0-26-26H304v-4.775a47.764,47.764,0,0,0-18.015-37.482l-15.98-12.784a15.92,15.92,0,0,1-6-12.494V112h16a8,8,0,0,0,8-8V72a8,8,0,0,0-8-8V34a18.021,18.021,0,0,0-18-18H58A18.021,18.021,0,0,0,40,34V64a8,8,0,0,0-8,8v32a8,8,0,0,0,8,8H56v12.465A15.92,15.92,0,0,1,50,136.959l-15.98,12.784A47.764,47.764,0,0,0,16,187.225V464A32.036,32.036,0,0,0,48,496Zm256-32V208H470a10.011,10.011,0,0,1,10,10V470a10.011,10.011,0,0,1-10,10H299.7A31.793,31.793,0,0,0,304,464ZM248,32h14a2,2,0,0,1,2,2V64H248Zm-32,0h16V64H216Zm-32,0h16V64H184Zm-32,0h16V64H152Zm-32,0h16V64H120ZM88,32h16V64H88ZM56,34a2,2,0,0,1,2-2H72V64H56ZM48,96V80H272V96ZM32,187.225a31.842,31.842,0,0,1,12.01-24.988l15.98-12.784A31.842,31.842,0,0,0,72,124.465V112H248v12.465a31.842,31.842,0,0,0,12.01,24.988l15.98,12.784A31.842,31.842,0,0,1,288,187.225V192H32ZM32,208H288V432H32Zm0,240H288v16a16.019,16.019,0,0,1-16,16H48a16.019,16.019,0,0,1-16-16Z"/><path d="M352,224a32.036,32.036,0,0,0-32,32v48a32,32,0,0,0,64,0V256A32.036,32.036,0,0,0,352,224Zm16,80a16,16,0,0,1-32,0V288h32Zm0-32H336V256a16,16,0,0,1,32,0Z"/><path d="M352,352a32.036,32.036,0,0,0-32,32v48a32,32,0,0,0,64,0V384A32.036,32.036,0,0,0,352,352Zm16,80a16,16,0,0,1-32,0V416h32Zm0-32H336V384a16,16,0,0,1,32,0Z"/><path d="M432,224a32.036,32.036,0,0,0-32,32v48a32,32,0,0,0,64,0V256A32.036,32.036,0,0,0,432,224Zm16,80a16,16,0,0,1-32,0V288h32Zm0-32H416V256a16,16,0,0,1,32,0Z"/><path d="M432,352a32.036,32.036,0,0,0-32,32v48a32,32,0,0,0,64,0V384A32.036,32.036,0,0,0,432,352Zm16,80a16,16,0,0,1-32,0V416h32Zm0-32H416V384a16,16,0,0,1,32,0Z"/><path d="M96,152H80a8,8,0,0,0,0,16H96a8,8,0,0,0,0-16Z"/><path d="M168,152H128a8,8,0,0,0,0,16h40a8,8,0,0,0,0-16Z"/><path d="M265.208,348.909l-5.508-1.653a127.607,127.607,0,0,0-51.3-4.457,174.988,174.988,0,0,0,34.161-58.116l5.036-14.334a8,8,0,0,0-11.564-9.571l-1.726,1a174.763,174.763,0,0,0-49.163,42.444A161.073,161.073,0,0,0,167.1,227.163a8,8,0,0,0-7.1-4.306h-.066a8,8,0,0,0-7.089,4.422,167.758,167.758,0,0,0-17.648,77.313,174.727,174.727,0,0,0-49.454-42.812l-1.726-1a8,8,0,0,0-11.565,9.571L77.5,284.683a175,175,0,0,0,34.16,58.116,127.587,127.587,0,0,0-51.3,4.457l-5.508,1.653a8,8,0,0,0-.951,14.973l15.549,6.91A127.12,127.12,0,0,0,106.52,380.9,72.195,72.195,0,0,0,91.759,400.9L90,404.422a8,8,0,0,0,8.47,11.469l10.756-1.792a72.289,72.289,0,0,0,42.787-24.048v16.806a8,8,0,0,0,16,0V390a72.29,72.29,0,0,0,42.83,24.1l10.756,1.792a8,8,0,0,0,8.47-11.469L228.3,400.9a72.229,72.229,0,0,0-14.761-20,127.127,127.127,0,0,0,37.069-10.11l15.549-6.91a8,8,0,0,0-.951-14.973Zm-78.1,16.2a8,8,0,0,0-3.667,15.443,56.145,56.145,0,0,1,23.026,16.136A56.3,56.3,0,0,1,179.5,378.838l-10.842-13.01-2.545-3a8,8,0,0,0-12.248.052l-13.3,15.96a56.287,56.287,0,0,1-26.972,17.846,56.145,56.145,0,0,1,23.026-16.136,8,8,0,0,0-2.8-15.489,8.085,8.085,0,0,0-.862.046,111.3,111.3,0,0,1-50.418-6.258,111.809,111.809,0,0,1,53.444,6.164,8,8,0,0,0,7.791-13.753,158.964,158.964,0,0,1-47.916-63.387,158.774,158.774,0,0,1,44.389,54.354,8,8,0,0,0,14.947-5.4,151.853,151.853,0,0,1,4.953-85.974,147.687,147.687,0,0,1,4.9,85.631,8,8,0,0,0,14.932,5.447,158.768,158.768,0,0,1,44.242-54.056,158.97,158.97,0,0,1-47.916,63.386,8,8,0,0,0,7.791,13.753,111.808,111.808,0,0,1,53.444-6.163A111.283,111.283,0,0,1,187.111,365.105Z"/></g></svg>
