<svg height="512" viewBox="0 0 512 512" width="512" xmlns="http://www.w3.org/2000/svg"><g id="outline"><path d="m82.111 181.359h16v27.713h-16z" transform="matrix(.5 -.866 .866 .5 -124.006 175.647)"/><path d="m244.938 272.787h16v28.853h-16z" transform="matrix(.5 -.866 .866 .5 -122.265 362.658)"/><path d="m238.511 322.493h28.853v16h-28.853z" transform="matrix(.866 -.5 .5 .866 -131.359 170.746)"/><path d="m207.456 294.427h16v28.853h-16z"/><path d="m456 362.1-47.167-27.232a8 8 0 0 0 -6.056-2.772h-.888a8 8 0 0 0 -6.056 2.772l-47.167 27.232-46.111-26.623v-57.865a8 8 0 0 0 -4-6.928l-50.111-28.931v-28.9h-16v28.9l-46.111 26.622-46.111-26.622v-56.994a8 8 0 0 0 -4-6.928l-50.111-28.931v-28.9h-16v28.9l-50.111 28.931a8 8 0 0 0 -4 6.928v62.482a8 8 0 0 0 4 6.928l50.111 28.931v42.83h-34.411v16h34.411v3.517a8 8 0 0 0 1.193 4.2l1.891 3.065h-36.495v16h46.37l12.03 19.488 13.615-8.4-22.6-36.62v-60.08l46.864-27.057 45.358 26.187v53.244l-50.111 28.932 8 13.857 50.111-28.932 50.111 28.932a8.005 8.005 0 0 0 8 0l50.111-28.932 50.111 28.932a8.005 8.005 0 0 0 8 0l49.667-28.676 49.663 28.677a8.005 8.005 0 0 0 8 0l29.284-16.908-8-13.856zm-331.778-119.477-46.111 26.621-46.111-26.621v-53.246l46.111-26.621 46.111 26.621zm162.333 92.853-46.111 26.624-46.111-26.622v-53.247l46.111-26.622 46.111 26.622z"/><path d="m364 120h-28a8 8 0 0 0 -8 8v80a8 8 0 0 0 8 8h28a27.981 27.981 0 0 0 19.569-48 27.981 27.981 0 0 0 -19.569-48zm0 80h-20v-24h20a12 12 0 0 1 0 24zm0-40h-20v-24h20a12 12 0 0 1 0 24z"/><path d="m416 216h16a48 48 0 0 0 0-96h-16a8 8 0 0 0 -8 8v80a8 8 0 0 0 8 8zm8-80h8a32 32 0 0 1 0 64h-8z"/><path d="m296 136h16v-16h-16a48 48 0 0 0 0 96h16v-16h-16a32 32 0 0 1 0-64z"/></g></svg>