<svg height="512" viewBox="0 0 512 512" width="512" xmlns="http://www.w3.org/2000/svg"><g id="outline"><path d="m352.135 28.865a26.033 26.033 0 0 0 -36.77 0l-52.147 52.15a26.122 26.122 0 0 0 -6.283 10.163l-3.048 9.145-9.146 3.049a26.135 26.135 0 0 0 -10.162 6.28l-211.956 211.955a16.023 16.023 0 0 0 0 22.629l147.077 147.078a16.018 16.018 0 0 0 22.628 0l100.41-100.409 5.33 12.945a8 8 0 0 0 13.055 2.611l30.405-30.405a29.043 29.043 0 0 0 3.225-37.165l59.533-59.535a26.136 26.136 0 0 0 6.28-10.162l3.047-9.143 9.146-3.051a26.165 26.165 0 0 0 10.163-6.281l52.149-52.151a26.03 26.03 0 0 0 0-36.769zm-171.119 451.135-147.078-147.078 139.362-139.36 44.7 85.973-21.726 8.69a71.3 71.3 0 0 0 -27.75 19.939 81.529 81.529 0 0 0 -33.187-46.1 8 8 0 0 0 -12.2 4.716l-1.793 7.171a80.823 80.823 0 0 0 4.317 52.049 78.58 78.58 0 0 0 -25.234 2.489l-14.485 3.856a8 8 0 0 0 -1.954 14.655l19.479 11.289a78.9 78.9 0 0 0 30.739 10.1l-11.87 11.9a8 8 0 0 0 11.328 11.3l11.878-11.907a78.817 78.817 0 0 0 10.327 30.906l11.413 19.406a8 8 0 0 0 14.64-2.047l3.763-14.508a78.683 78.683 0 0 0 2.334-25.159 80.835 80.835 0 0 0 51.911 4.253l7.171-1.793a8 8 0 0 0 4.715-12.2 81.513 81.513 0 0 0 -46.1-33.187 71.307 71.307 0 0 0 19.937-27.753l5.28-13.2 10.867 20.9a8 8 0 0 0 12.755 1.967l8.485-8.486 23.1 56.1zm-7.526-127.926a7.986 7.986 0 0 0 8.178 6.425 65.526 65.526 0 0 1 49.252 19.577 64.878 64.878 0 0 1 -49.136-11.72 8 8 0 0 0 -12.374 8.81 62.741 62.741 0 0 1 1.757 29.871l-1.507-2.562a62.949 62.949 0 0 1 -7.935-41.227 8 8 0 0 0 -9.137-9.1 62.978 62.978 0 0 1 -41.1-7.7l-2.572-1.49a62.724 62.724 0 0 1 29.867 1.562 8 8 0 0 0 8.757-12.393 64.875 64.875 0 0 1 -11.74-49.168 65.506 65.506 0 0 1 19.577 49.253 8 8 0 0 0 15.5 3.1 55.382 55.382 0 0 1 31.339-32.23l14.3-5.719-5.719 14.3a55.383 55.383 0 0 1 -32.229 31.337 8 8 0 0 0 -5.078 9.074zm156.724 12.667-21.92 21.92-35.028-85.069a8 8 0 0 0 -13.055-2.612l-9.252 9.253-44.559-85.689 123.814 123.813a13.013 13.013 0 0 1 0 18.384zm143.543-177.483-52.15 52.149a10.026 10.026 0 0 1 -3.908 2.416l-12.939 4.313a8 8 0 0 0 -5.061 5.06l-4.312 12.939a10.049 10.049 0 0 1 -2.416 3.909l-59.221 59.221-147.077-147.078 59.227-59.222a10.027 10.027 0 0 1 3.907-2.414l12.939-4.314a8 8 0 0 0 5.06-5.059l4.312-12.94a10.064 10.064 0 0 1 2.417-3.908l52.15-52.15a10.009 10.009 0 0 1 14.141 0l132.931 132.936a10.011 10.011 0 0 1 0 14.142z"/><path d="m328.093 163.217a8 8 0 0 0 11.314 0l45.255-45.255a8 8 0 0 0 0-11.315l-45.255-45.254a8 8 0 0 0 -11.314 0l-45.255 45.254a8 8 0 0 0 0 11.315zm5.657-84.854 33.941 33.942-33.941 33.941-33.941-33.941z"/><path d="m407.29 129.274a8 8 0 0 0 -11.314 0l-45.255 45.255a8 8 0 0 0 0 11.315l45.255 45.256a8 8 0 0 0 11.314 0l45.255-45.255a8 8 0 0 0 0-11.315zm-5.657 84.854-33.942-33.941 33.942-33.942 33.941 33.942z"/><path d="m316.78 174.529-45.255-45.255a8 8 0 0 0 -11.314 0l-45.255 45.255a8 8 0 0 0 0 11.315l45.255 45.256a8 8 0 0 0 11.314 0l45.255-45.255a8 8 0 0 0 0-11.316zm-50.912 39.6-33.941-33.941 33.941-33.942 33.942 33.942z"/><path d="m339.407 197.157a8 8 0 0 0 -11.314 0l-45.255 45.255a8 8 0 0 0 0 11.315l45.255 45.254a8 8 0 0 0 11.314 0l45.255-45.254a8 8 0 0 0 0-11.315zm-5.657 84.854-33.941-33.942 33.941-33.941 33.941 33.941z"/></g></svg>