<?xml version="1.0"?>
<svg xmlns="http://www.w3.org/2000/svg" viewBox="0 0 512 512" width="512" height="512"><g id="outline"><path d="M486.758,197.68a31.9,31.9,0,0,0-35.49-21.252l-40.015,6.592a449.454,449.454,0,0,0-71.727,18L59.763,296.353a35.768,35.768,0,0,0-15.847,10.773,36.187,36.187,0,0,0-4.847,7.418,35.766,35.766,0,0,0-1.77,27.5L50.2,379.9a35.929,35.929,0,0,0,45.687,22.464l279.762-95.334a449.638,449.638,0,0,0,67.793-29.545l35.713-19.214a31.9,31.9,0,0,0,15.129-38.5ZM90.728,387.221q-.948.324-1.911.55a19.8,19.8,0,0,1-11.165-.623,20.178,20.178,0,0,1-2.2-.91,19.86,19.86,0,0,1-8.475-7.9,20.18,20.18,0,0,1-1.632-3.6l-12.9-37.862A20,20,0,0,1,64.924,311.5l11.359-3.871,25.8,75.724Zm26.5-9.031-25.8-75.724L144.435,284.4l25.8,75.723Zm68.152-23.224-25.8-75.724,14.711-5.013.434-.148,25.8,75.724Zm30.289-10.322-25.8-75.724L258.02,245.7l2.584,7.583a39.978,39.978,0,0,0,20.637,60.558l2.584,7.583Zm94.477-45.18,3.964,11.634-15.144,5.161-3.965-11.634a8,8,0,0,0-6.013-5.267,23.991,23.991,0,0,1-13.408-39.346,8,8,0,0,0,1.546-7.842l-3.965-11.634,15.145-5.161,3.965,11.634a8,8,0,0,0,6.013,5.266A23.993,23.993,0,0,1,311.7,291.622,8,8,0,0,0,310.15,299.464Zm161.427-55.281h0L435.864,263.4a433.591,433.591,0,0,1-65.373,28.491l-41.232,14.051-2.584-7.584a40.148,40.148,0,0,0,4.827-35.439h0A40.154,40.154,0,0,0,306.039,237.8l-2.584-7.582,41.232-14.051a433.548,433.548,0,0,1,69.167-17.356l40.015-6.592a16.194,16.194,0,0,1,2.638-.217,15.945,15.945,0,0,1,15.107,10.843l7.528,22.091A15.949,15.949,0,0,1,471.577,244.183Z"/><path d="M24,236a8,8,0,0,0,8-8,44.049,44.049,0,0,1,44-44,36,36,0,0,0,0-72A20.023,20.023,0,0,1,56,92V80a8,8,0,0,0-16,0V92a36.04,36.04,0,0,0,36,36,20,20,0,0,1,0,40,60.068,60.068,0,0,0-60,60A8,8,0,0,0,24,236Z"/><path d="M24,296a8,8,0,0,0,8-8V256a8,8,0,0,0-16,0v32A8,8,0,0,0,24,296Z"/><path d="M82.673,200A34.712,34.712,0,0,0,48,234.673V248a8,8,0,0,0,16,0V234.673A18.693,18.693,0,0,1,82.673,216h18A59.4,59.4,0,0,0,160,156.669V136a8,8,0,0,0-16,0v20.669A43.38,43.38,0,0,1,100.669,200Z"/><path d="M80,24a8,8,0,0,0-8,8V56a32.036,32.036,0,0,0,32,32,24.027,24.027,0,0,1,24,24,8,8,0,0,0,16,0,40.045,40.045,0,0,0-40-40A16.019,16.019,0,0,1,88,56V32A8,8,0,0,0,80,24Z"/><path d="M48,16a8,8,0,0,0-8,8V48a8,8,0,0,0,16,0V24A8,8,0,0,0,48,16Z"/></g></svg>
