<?xml version="1.0"?>
<svg xmlns="http://www.w3.org/2000/svg" viewBox="0 0 512 512" width="512" height="512"><g id="outline"><path d="M288,210a50.057,50.057,0,0,0-50-50H184a56.063,56.063,0,0,0-56,56v16.411a27.992,27.992,0,0,0,16,47.3V280a63.687,63.687,0,0,0,14.219,40.161l-.625.209-38.559,11.568A66,66,0,0,0,72,395.154V466a30.034,30.034,0,0,0,30,30H314a30.034,30.034,0,0,0,30-30V395.154a66,66,0,0,0-47.035-63.216l-38.549-11.565-.635-.212A63.689,63.689,0,0,0,272,280v-.29a27.977,27.977,0,0,0,15.979-47.3c.007-.136.021-.271.021-.409ZM184.666,224.819A39.937,39.937,0,0,0,216,240h6.131a24.015,24.015,0,0,0-4.8,8.12A8.043,8.043,0,0,0,216,248H200a8.043,8.043,0,0,0-1.335.12,24.06,24.06,0,0,0-19.62-15.92A49.256,49.256,0,0,0,184.666,224.819ZM240,280a23.9,23.9,0,0,0,16-6.131V280a48,48,0,0,1-96,0v-6.131a23.943,23.943,0,0,0,32,0V280a8,8,0,0,0,8,8h16a8,8,0,0,0,0-16h-8v-8h8a8.043,8.043,0,0,0,1.335-.12A24.038,24.038,0,0,0,240,280Zm-8-24a8,8,0,1,1,8,8A8.009,8.009,0,0,1,232,256ZM217.754,400H198.246l-4.688-18.753L208,376.433l14.442,4.814Zm2.135,32H196.111l2.666-16h18.446ZM196.5,342.945a63.171,63.171,0,0,0,22.983,0A46.109,46.109,0,0,1,208,357.959,45.974,45.974,0,0,1,196.5,342.945ZM168,256a8,8,0,1,1,8,8A8.009,8.009,0,0,1,168,256Zm-24,7.314A11.972,11.972,0,0,1,136.7,248h6.334c.325,0,.647-.017.971-.024Zm0-31.328V216a40.071,40.071,0,0,1,32-39.2v22.225a32.972,32.972,0,0,1-32,32.957ZM176,480H160V448h16Zm3.889-48H136V392a8,8,0,0,0-16,0v40h-8a8,8,0,0,0,0,16h32v32H102a14.015,14.015,0,0,1-14-14V395.154a49.69,49.69,0,0,1,35.633-47.891L152,338.752V384a8,8,0,0,0,10.53,7.589l15.8-5.268,5.5,22ZM168,372.9V333.766l3.569-1.19a63.959,63.959,0,0,0,5.826,3.617,61.984,61.984,0,0,0,14.76,28.656ZM224,480H192V456.662L193.444,448h29.112L224,456.662Zm-.162-115.153A62.137,62.137,0,0,0,238.6,336.2a64.18,64.18,0,0,0,5.83-3.619l3.569,1.19V372.9ZM256,480H240V448h16Zm4.678-89.51A8,8,0,0,0,264,384V338.752l28.367,8.511A49.69,49.69,0,0,1,328,395.154V466a14.015,14.015,0,0,1-14,14H272V448h32a8,8,0,0,0,0-16h-8V392a8,8,0,0,0-16,0v40H236.111l-3.946-23.676,5.5-22,15.8,5.268a8,8,0,0,0,7.208-1.1ZM216,224a24.027,24.027,0,0,1-24-24V176h46a34.038,34.038,0,0,1,34,34v14Zm56,39.314V240.686a12,12,0,0,1,0,22.628Z"/><path d="M195.577,293.067a8,8,0,0,0-7.154,14.312,43.993,43.993,0,0,0,39.154,0,8,8,0,0,0-7.154-14.312A27.908,27.908,0,0,1,195.577,293.067Z"/><path d="M212,16H44A20.023,20.023,0,0,0,24,36v88a20.023,20.023,0,0,0,20,20H60.687l29.656,29.657A8,8,0,0,0,104,168V144H212a20.023,20.023,0,0,0,20-20V36A20.023,20.023,0,0,0,212,16Zm4,108a4,4,0,0,1-4,4H96a8,8,0,0,0-8,8v12.686L69.657,130.343A8,8,0,0,0,64,128H44a4,4,0,0,1-4-4V36a4,4,0,0,1,4-4H212a4,4,0,0,1,4,4Z"/><rect x="56" y="48" width="32" height="16"/><rect x="104" y="48" width="24" height="16"/><rect x="144" y="48" width="56" height="16"/><rect x="56" y="80" width="72" height="16"/><rect x="144" y="80" width="40" height="16"/><path d="M458,16H326a38.043,38.043,0,0,0-38,38V162a38.043,38.043,0,0,0,38,38h58v32a8,8,0,0,0,12.65,6.51L450.563,200H458a38.043,38.043,0,0,0,38-38V54A38.043,38.043,0,0,0,458,16Zm22,146a22.025,22.025,0,0,1-22,22H448a8,8,0,0,0-4.65,1.49L400,216.455V192a8,8,0,0,0-8-8H326a22.025,22.025,0,0,1-22-22V54a22.025,22.025,0,0,1,22-22H458a22.025,22.025,0,0,1,22,22Z"/><path d="M457.569,88.155a66.212,66.212,0,0,0-42.921,6,58.106,58.106,0,0,0-4.665-24.5l-10.629-24.8a8,8,0,0,0-14.708,0l-10.629,24.8a58.091,58.091,0,0,0-4.665,24.5,66.2,66.2,0,0,0-42.921-6,8,8,0,0,0-5.291,11.961l3.012,5.021a65.707,65.707,0,0,0,29.955,26.42,64.025,64.025,0,0,0-11.136,14.159l-5.953,10.273A8,8,0,0,0,346,167.731l17.234-4.587A64.065,64.065,0,0,0,384,153.333V160a8,8,0,0,0,16,0v-6.732a64.039,64.039,0,0,0,21.032,9.821l17.263,4.477a8,8,0,0,0,8.9-11.8l-6.018-10.235a64.028,64.028,0,0,0-11.165-14.03,65.714,65.714,0,0,0,29.832-26.365l3.012-5.021a8,8,0,0,0-5.291-11.961Zm-46.631,32.39a8,8,0,0,0-2.52,14.98,48.083,48.083,0,0,1,14.171,11.367,48.221,48.221,0,0,1-24.155-17.314,8,8,0,0,0-6.442-3.255h-.013a8,8,0,0,0-6.444,3.277,48.244,48.244,0,0,1-23.964,17.357A48.1,48.1,0,0,1,375.659,135.5a8,8,0,0,0-2.572-14.954,49.742,49.742,0,0,1-30.931-17.572,50.2,50.2,0,0,1,33.9,16,8,8,0,0,0,13.15-8.769,42.2,42.2,0,0,1-.479-34.255L392,68.309l3.276,7.646a42.2,42.2,0,0,1-.479,34.255,8,8,0,0,0,13.15,8.769,50.188,50.188,0,0,1,33.9-16A49.737,49.737,0,0,1,410.938,120.545Z"/></g></svg>
