<?xml version="1.0"?>
<svg xmlns="http://www.w3.org/2000/svg" viewBox="0 0 512 512" width="512" height="512"><g id="outline"><path d="M163.309,269.467a8,8,0,0,0-10.592,3.974l-8.573,18.867c-.115.035-.232.065-.347.1l-6.219,1.866a7.991,7.991,0,0,0-1.094,14.895L96.717,396.691a8,8,0,1,0,14.566,6.618L151.1,315.678l3.083,1.37a142.527,142.527,0,0,0,43.8,11.574,80.474,80.474,0,0,0-18.108,23.821l-1.99,3.98a8,8,0,0,0,8.472,11.468l12.142-2.024a80.587,80.587,0,0,0,48.64-27.888l.864-1.037v45.934H184a8,8,0,0,0-8,8v20a20.021,20.021,0,0,0,17.692,19.856l14.539,59.177A8,8,0,0,0,216,496h80a8,8,0,0,0,7.761-6.06l14.812-59.248A20.018,20.018,0,0,0,336,410.876v-20a8,8,0,0,0-8-8H264V336.869l.925,1.11a80.587,80.587,0,0,0,48.639,27.888l12.144,2.024a8,8,0,0,0,8.471-11.468l-1.991-3.981a80.424,80.424,0,0,0-18.108-23.82,142.561,142.561,0,0,0,43.8-11.574l3.032-1.348,39.806,87.609a8,8,0,1,0,14.566-6.618l-39.755-87.5a7.994,7.994,0,0,0-1.045-14.922l-6.219-1.866c-.139-.041-.279-.078-.417-.119l-8.564-18.847a8,8,0,0,0-14.566,6.618l3.6,7.929a143.812,143.812,0,0,0-40.294-.232,196.3,196.3,0,0,0,24.8-33.874l2.466,5.427a8,8,0,1,0,14.566-6.618l-7.72-16.993q3.353-7.485,6.1-15.269l5.687-16.184a8,8,0,0,0-11.563-9.571l-1.951,1.132q-6.545,3.8-12.738,8.064l-17.8-39.179a8,8,0,0,0-14.567,6.618l19.266,42.4a195.866,195.866,0,0,0-31.292,32.217A181.032,181.032,0,0,0,264,158.1V152a8,8,0,0,0-16,0v6.192a188.436,188.436,0,0,0-18.9,88.156,195.8,195.8,0,0,0-31.658-32.673L216.7,171.309a8,8,0,0,0-14.567-6.618l-17.786,39.146q-6.174-4.239-12.694-8.032l-1.95-1.131a8,8,0,0,0-11.563,9.571l5.687,16.184q2.722,7.751,6.074,15.2l-7.751,17.06a8,8,0,1,0,14.567,6.618l2.492-5.485a196.308,196.308,0,0,0,24.832,33.932,143.868,143.868,0,0,0-40.36.242l3.607-7.939A8,8,0,0,0,163.309,269.467ZM289.754,480H222.272l-12.043-49.021,91.55.919ZM320,398.876v12a4,4,0,0,1-4,4H196a4,4,0,0,1-4-4v-12ZM229.235,310.5a8,8,0,0,0,7.791-13.753,180.506,180.506,0,0,1-49.5-61.245l3.047-6.707a180.368,180.368,0,0,1,44.033,56.484,8,8,0,0,0,14.947-5.4A172.332,172.332,0,0,1,248,208.668V216a8,8,0,0,0,16,0v-9.677a169.089,169.089,0,0,1-1.314,73.17,8,8,0,0,0,14.931,5.447,180.389,180.389,0,0,1,43.824-56.11l3.059,6.733a180.5,180.5,0,0,1-49.465,61.182,8,8,0,0,0,7.791,13.753,127.311,127.311,0,0,1,64.742-6.452A126.621,126.621,0,0,1,286.5,312.6a8,8,0,0,0-3.668,15.444,64.374,64.374,0,0,1,28.458,21.029,64.586,64.586,0,0,1-34.068-21.333l-12.236-14.682-2.874-3.389a8,8,0,0,0-6.1-2.826h-.034a8,8,0,0,0-6.112,2.878l-15.016,18.019a64.586,64.586,0,0,1-34.068,21.333,64.374,64.374,0,0,1,28.458-21.029,8,8,0,0,0-2.806-15.49,8.085,8.085,0,0,0-.862.046,126.606,126.606,0,0,1-61.074-8.55A127.314,127.314,0,0,1,229.235,310.5Z"/><path d="M69.935,265.818a8,8,0,0,0-11.26,1.1l-32.857,40a8,8,0,0,0,12.364,10.156l32.857-40A8,8,0,0,0,69.935,265.818Z"/><path d="M149.078,169.471a8,8,0,0,0-11.26,1.1L78.39,242.922a8,8,0,1,0,12.363,10.156l59.429-72.348A8,8,0,0,0,149.078,169.471Z"/><path d="M158.351,158.182a8,8,0,0,0,11.259-1.1l41.922-51.035a48.16,48.16,0,0,0,10.665,16l-8.73,18.552a8,8,0,1,0,14.478,6.812l7.539-16.022a47.9,47.9,0,0,0,41.032,0l7.539,16.022a8,8,0,0,0,14.478-6.812l-8.73-18.552a48.16,48.16,0,0,0,10.665-16l41.922,51.035a8,8,0,1,0,12.363-10.156L312.924,96H328a8,8,0,0,0,6.784-12.24l-40-64A8,8,0,0,0,288,16H224a8,8,0,0,0-6.784,3.76l-40,64A8,8,0,0,0,184,96h15.076l-41.829,50.922A8,8,0,0,0,158.351,158.182ZM256,120a32.058,32.058,0,0,1-30.988-24h61.976A32.058,32.058,0,0,1,256,120ZM198.434,80l30-48h55.132l30,48Z"/><path d="M480,320a8,8,0,0,0,6.178-13.078l-32.857-40a8,8,0,0,0-12.364,10.156l32.857,40A7.986,7.986,0,0,0,480,320Z"/><path d="M427.433,256a8,8,0,0,0,6.177-13.078l-59.428-72.348a8,8,0,0,0-12.364,10.156l59.429,72.348A7.986,7.986,0,0,0,427.433,256Z"/></g></svg>
