<?xml version="1.0"?>
<svg xmlns="http://www.w3.org/2000/svg" viewBox="0 0 512 512" width="512" height="512"><g id="outline"><path d="M72,302V468a28.032,28.032,0,0,0,28,28H268a28.032,28.032,0,0,0,28-28V302a46.06,46.06,0,0,0-40-45.6V224h8a24,24,0,0,0,5.506-47.355l17.717-37.206A8,8,0,0,0,280,128H206.624A23.889,23.889,0,0,0,208,120a34.31,34.31,0,0,0-5.781-19.094L190.656,83.562a8,8,0,0,0-13.312,0l-11.563,17.344A34.31,34.31,0,0,0,160,120a23.889,23.889,0,0,0,1.376,8H88a8,8,0,0,0-7.223,11.439l17.717,37.206A24,24,0,0,0,104,224h8v32.4A46.06,46.06,0,0,0,72,302ZM280,468a12.013,12.013,0,0,1-12,12H100a12.013,12.013,0,0,1-12-12V416H280Zm-8-268a8.009,8.009,0,0,1-8,8h-9.425l7.619-16H264A8.009,8.009,0,0,1,272,200Zm-92.906-90.219L184,102.422l4.906,7.359A18.357,18.357,0,0,1,192,120a8,8,0,0,1-16,0A18.357,18.357,0,0,1,179.094,109.781ZM235.33,144l-5.981,12.561a8,8,0,1,0,14.445,6.878L253.051,144H267.33l-15.238,32H115.908L100.67,144Zm1.524,64H222.575l7.619-16h14.279ZM240,238.607V256h-8.282ZM154,256l-15.238-32h58.47l-5.981,12.561a8,8,0,1,0,14.445,6.878L214.956,224h14.279L214,256Zm52.375,16-11.429,24h-21.9l-11.429-24Zm-75.232-64-7.619-16h88.946l-7.619,16Zm5.136,48H128V238.607ZM104,208a8,8,0,0,1,0-16h1.806l7.619,16Zm14,64h25.9l16.876,35.439A8,8,0,0,0,168,312h32a8,8,0,0,0,7.223-4.561L224.1,272H250a30.034,30.034,0,0,1,30,30v98H88V302A30.034,30.034,0,0,1,118,272Z"/><path d="M184,384a24.028,24.028,0,0,0,24-24,34.31,34.31,0,0,0-5.781-19.094l-11.563-17.344a8,8,0,0,0-13.312,0l-11.563,17.344A34.31,34.31,0,0,0,160,360,24.028,24.028,0,0,0,184,384Zm-4.906-34.219L184,342.422l4.906,7.359A18.357,18.357,0,0,1,192,360a8,8,0,0,1-16,0A18.357,18.357,0,0,1,179.094,349.781Z"/><path d="M256,320a8,8,0,0,0,8-8v-8a8,8,0,0,0-16,0v8A8,8,0,0,0,256,320Z"/><path d="M256,376a8,8,0,0,0,8-8V336a8,8,0,0,0-16,0v32A8,8,0,0,0,256,376Z"/><path d="M448,56a37.375,37.375,0,0,0-37.333-37.333h-2.854a37.522,37.522,0,0,0-16.7,3.941A55.559,55.559,0,0,1,366.4,28.444h-9.368A23.991,23.991,0,0,0,313.376,32H216a8.005,8.005,0,0,0-4.438,1.344l-24,16a8,8,0,0,0,0,13.312l24,16A8.005,8.005,0,0,0,216,80h97.376a23.991,23.991,0,0,0,43.651,3.556H366.4a55.559,55.559,0,0,1,24.722,5.836,37.522,37.522,0,0,0,16.7,3.941h2.854A37.375,37.375,0,0,0,448,56ZM312,64H218.422l-12-8,12-8H312Zm32,8a8,8,0,0,1-16,0V40a8,8,0,0,1,16,0Zm66.667,5.333h-2.854a21.428,21.428,0,0,1-9.54-2.252A71.647,71.647,0,0,0,366.4,67.556H360V44.444H366.4a71.647,71.647,0,0,0,31.878-7.525,21.428,21.428,0,0,1,9.54-2.252h2.854a21.333,21.333,0,1,1,0,42.666Z"/><path d="M112,448h16a8,8,0,0,0,0-16H112a8,8,0,0,0,0,16Z"/><path d="M160,448h16a8,8,0,0,0,0-16H160a8,8,0,0,0,0,16Z"/><path d="M160,464a8,8,0,0,0,8,8h40a8,8,0,0,0,0-16H168A8,8,0,0,0,160,464Z"/><path d="M240,472h16a8,8,0,0,0,0-16H240a8,8,0,0,0,0,16Z"/></g></svg>
