<?xml version="1.0"?>
<svg xmlns="http://www.w3.org/2000/svg" viewBox="0 0 512 512" width="512" height="512"><g id="outline"><path d="M488,344H476.282l-3.847-5.771h0a94.334,94.334,0,0,0-23.452-24.317A51.989,51.989,0,0,0,393.373,289.1a52.036,52.036,0,0,0-9.121-4.973,30.628,30.628,0,0,1,16.792-23.7l10.534-5.267a8,8,0,0,0-7.156-14.31l-10.533,5.266a47.024,47.024,0,0,0-13.944,10.6l-.1-55.8.895,1.075a80.6,80.6,0,0,0,48.64,27.889l12.143,2.024a8,8,0,0,0,8.47-11.47L448,216.443A80.462,80.462,0,0,0,429.9,192.621a142.567,142.567,0,0,0,43.8-11.573l17.554-7.8a8,8,0,0,0-.951-14.974l-6.218-1.864a143.122,143.122,0,0,0-60.239-4.652,196.488,196.488,0,0,0,40.214-67.327l5.686-16.185a8,8,0,0,0-11.565-9.569l-1.948,1.131A196.249,196.249,0,0,0,399.1,109.928a180.96,180.96,0,0,0-20.178-89.623,8,8,0,0,0-7.095-4.3h-.066a8,8,0,0,0-7.089,4.422,188.432,188.432,0,0,0-19.748,89.926,196.186,196.186,0,0,0-57.454-50.542l-1.949-1.132a8,8,0,0,0-11.565,9.571l5.687,16.184a196.472,196.472,0,0,0,40.214,67.327,143.134,143.134,0,0,0-60.239,4.651l-6.218,1.865a8,8,0,0,0-.951,14.974l17.554,7.8a142.563,142.563,0,0,0,43.8,11.574,80.453,80.453,0,0,0-18.108,23.82l-1.989,3.98a8,8,0,0,0,8.47,11.47l12.143-2.025a80.6,80.6,0,0,0,48.64-27.888l.894-1.073.091,51.737A37.313,37.313,0,0,0,336,240a8,8,0,0,0,0,16,21.332,21.332,0,0,1,20.862,17.1l1.443,7.213a51.793,51.793,0,0,0-44.083,36.638A95.463,95.463,0,0,0,291.208,344H280a7.955,7.955,0,0,0-3.751.936l-22.592-22.593A8,8,0,0,0,248,320H208a8,8,0,0,0-8-8H48a32,32,0,0,0,0,64H200a8,8,0,0,0,8-8h28.687l35.359,35.36A22.026,22.026,0,0,0,294,424H424a72.081,72.081,0,0,0,72-72A8,8,0,0,0,488,344ZM144,360H48a16,16,0,0,1,0-32h96Zm48,0H160V328h32Zm80,20.687-26.343-26.344A8,8,0,0,0,240,352H208V336h36.687L272,363.313Zm78.661-188.951a64.6,64.6,0,0,1-34.069,21.333,64.369,64.369,0,0,1,28.457-21.029,8,8,0,0,0-2.8-15.489,7.831,7.831,0,0,0-.862.046,126.665,126.665,0,0,1-61.073-8.55,127.3,127.3,0,0,1,64.742,6.45,8,8,0,0,0,7.791-13.752,180.507,180.507,0,0,1-55.829-75.486,180.257,180.257,0,0,1,53.413,64.018,8,8,0,0,0,14.946-5.4,172.505,172.505,0,0,1,6.583-100.248,167.635,167.635,0,0,1,6.546,99.864,8,8,0,0,0,14.932,5.446A180.309,180.309,0,0,1,446.679,85.26a180.527,180.527,0,0,1-55.828,75.485,8,8,0,0,0,7.791,13.752,127.277,127.277,0,0,1,64.742-6.45,126.663,126.663,0,0,1-61.073,8.55,8,8,0,0,0-3.667,15.443A64.375,64.375,0,0,1,427.1,213.069a64.588,64.588,0,0,1-34.068-21.333L380.8,177.054l-2.874-3.389a8,8,0,0,0-6.1-2.826h-.034a8,8,0,0,0-6.112,2.878ZM326.072,328a8.008,8.008,0,0,0,2.947-4.5,35.988,35.988,0,0,1,57.589-19.508,8,8,0,0,0,7.277,1.458,35.993,35.993,0,0,1,41.928,17.7,7.993,7.993,0,0,0,2.52,2.831A78.459,78.459,0,0,1,456.944,344H310.267A79.2,79.2,0,0,1,326.072,328ZM424,408H294a6.006,6.006,0,0,1-6-6V360H479.43A56.086,56.086,0,0,1,424,408Z"/><rect x="352" y="312" width="16" height="16"/><rect x="392" y="320" width="16" height="16"/></g></svg>
