<svg height="512" viewBox="0 0 512 512" width="512" xmlns="http://www.w3.org/2000/svg"><g id="outline"><path d="m442 272h-178.877v-71.132l.926 1.111a80.6 80.6 0 0 0 48.639 27.889l12.144 2.024a8 8 0 0 0 8.47-11.47l-1.99-3.979a80.431 80.431 0 0 0 -18.112-23.821 142.589 142.589 0 0 0 43.8-11.574l17.555-7.8a8 8 0 0 0 -.952-14.974l-6.217-1.864a143.121 143.121 0 0 0 -60.24-4.652 196.477 196.477 0 0 0 40.216-67.328l5.687-16.185a8 8 0 0 0 -11.564-9.571l-1.95 1.132a196.249 196.249 0 0 0 -57.135 50.122 180.97 180.97 0 0 0 -20.177-89.623 8 8 0 0 0 -14.251.117 188.411 188.411 0 0 0 -19.746 89.927 196.187 196.187 0 0 0 -57.455-50.542l-1.949-1.132a8 8 0 0 0 -11.565 9.569l5.685 16.186a196.511 196.511 0 0 0 40.215 67.326 143.121 143.121 0 0 0 -60.239 4.651l-6.219 1.865a8 8 0 0 0 -.95 14.974l17.555 7.8a142.548 142.548 0 0 0 43.8 11.574 80.424 80.424 0 0 0 -18.104 23.822l-1.99 3.98a8 8 0 0 0 7.15 11.578c.437 0 13.459-2.133 13.459-2.133a80.594 80.594 0 0 0 48.64-27.888l.864-1.038v71.059h-177.123a22.025 22.025 0 0 0 -22 22v194a8 8 0 0 0 8 8h400a8 8 0 0 0 8-8v-194a22.025 22.025 0 0 0 -22-22zm-208.032-80.264a64.6 64.6 0 0 1 -34.068 21.333 64.369 64.369 0 0 1 28.457-21.029 8 8 0 0 0 -3.667-15.443 126.658 126.658 0 0 1 -61.073-8.55 127.314 127.314 0 0 1 64.743 6.45 8 8 0 0 0 7.79-13.752 180.526 180.526 0 0 1 -55.83-75.486 180.25 180.25 0 0 1 53.414 64.018 8 8 0 0 0 14.947-5.4 172.506 172.506 0 0 1 6.582-100.248 167.651 167.651 0 0 1 6.547 99.864 8 8 0 0 0 14.931 5.446 180.293 180.293 0 0 1 53.245-63.679 180.5 180.5 0 0 1 -55.828 75.485 8 8 0 0 0 7.79 13.752 127.283 127.283 0 0 1 64.743-6.45 126.615 126.615 0 0 1 -61.073 8.55 8 8 0 0 0 -3.668 15.443 64.374 64.374 0 0 1 28.458 21.029 64.588 64.588 0 0 1 -34.068-21.334l-12.24-14.681-2.874-3.389a8 8 0 0 0 -6.1-2.826h-.026a8 8 0 0 0 -6.112 2.878zm-121.968 96.264h288v16h-288zm168 48a8 8 0 0 0 -8 8v40h-8v-40a8 8 0 0 0 -16 0v35.9a66.459 66.459 0 0 0 -8-2.218v-33.682a8 8 0 0 0 -16 0v32.025c-.529-.008-1.04-.025-1.583-.025-3.095 0-5.926.139-8.568.373l-8.049-56.373h100.4l-9.142 64h-9.058v-40a8 8 0 0 0 -8-8zm-90.368-16 8.5 59.466a99.492 99.492 0 0 0 -12.75 5.311c-8.143 3.876-15.172 7.223-30.163 7.223s-22.02-3.347-30.158-7.223c-7.309-3.48-15.464-7.342-29.061-8.453v-56.324zm-109.632 160h-16v-144h16zm0-168v8h-16v-26a6.006 6.006 0 0 1 6-6h26v16h-8a8 8 0 0 0 -8 8zm336 168h-320v-87.63c9.812.97 15.643 3.738 22.182 6.853 8.638 4.114 18.43 8.777 37.037 8.777s28.4-4.663 37.038-8.777c8.139-3.875 15.168-7.223 30.16-7.223 10.613 0 17.231 1.68 23.082 4.035a25.261 25.261 0 0 1 -21.499 11.965 8 8 0 0 0 0 16 41.234 41.234 0 0 0 24-7.679v15.679a8 8 0 0 0 16 0v-15.678a41.24 41.24 0 0 0 24 7.678 8 8 0 0 0 0-16c-.356 0-.708-.027-1.062-.042.878.022 1.76.042 2.679.042 18.609 0 28.4-4.663 37.041-8.777 8.142-3.875 15.169-7.223 30.162-7.223s22.023 3.348 30.162 7.223c7.3 3.476 15.447 7.333 29.018 8.449zm0-88.375c-9.785-.975-15.609-3.739-22.139-6.848-8.639-4.114-18.432-8.777-37.041-8.777s-28.4 4.663-37.041 8.777c-2.392 1.139-4.693 2.23-7.124 3.206l9.712-67.983h93.633zm32 88.375h-16v-79.536c.009-.154.023-.307.023-.464s-.014-.31-.023-.464v-63.536h16zm0-160h-16v-8a8 8 0 0 0 -8-8h-8v-16h26a6.006 6.006 0 0 1 6 6z"/><path d="m128 424h16v16h-16z"/><path d="m160 448h16v16h-16z"/><path d="m208 440h16v16h-16z"/><path d="m296 448h16v16h-16z"/><path d="m344 416h16v16h-16z"/><path d="m384 448h16v16h-16z"/><path d="m136 200h16v24h-16z"/><path d="m136 240h16v16h-16z"/><path d="m88 136h16v24h-16z"/><path d="m88 176h16v16h-16z"/><path d="m360 200h16v24h-16z"/><path d="m360 240h16v16h-16z"/><path d="m408 144h16v32h-16z"/><path d="m408 192h16v16h-16z"/></g></svg>