<?xml version="1.0"?>
<svg xmlns="http://www.w3.org/2000/svg" viewBox="0 0 512 512" width="512" height="512"><g id="outline"><path d="M463.316,100.764a8,8,0,0,0-5.747-4.609,66.2,66.2,0,0,0-42.921,6,58.091,58.091,0,0,0-4.665-24.5l-10.63-24.8a8,8,0,0,0-14.706,0l-10.63,24.8a58.089,58.089,0,0,0-4.665,24.5,66.2,66.2,0,0,0-42.921-6,8,8,0,0,0-5.291,11.961l3.013,5.021a65.7,65.7,0,0,0,29.954,26.421,64,64,0,0,0-11.136,14.158l-5.953,10.273A8,8,0,0,0,346,175.731l17.233-4.587A64.055,64.055,0,0,0,384,161.333V176a8,8,0,0,0,16,0V161.267a64,64,0,0,0,21.032,9.822l17.263,4.477a8,8,0,0,0,8.9-11.8l-6.019-10.235a64.046,64.046,0,0,0-11.165-14.03,65.706,65.706,0,0,0,29.831-26.365l3.013-5.021A8,8,0,0,0,463.316,100.764Zm-52.378,27.781a8,8,0,0,0-2.521,14.98,48.062,48.062,0,0,1,14.172,11.367,48.232,48.232,0,0,1-24.156-17.314,8,8,0,0,0-12.9.022,48.246,48.246,0,0,1-23.963,17.357A48.094,48.094,0,0,1,375.659,143.5a8,8,0,0,0-2.571-14.954,49.734,49.734,0,0,1-30.932-17.572,50.194,50.194,0,0,1,33.9,16,8,8,0,0,0,13.151-8.768,42.209,42.209,0,0,1-.48-34.256L392,76.309l3.277,7.646a42.207,42.207,0,0,1-.48,34.255,8,8,0,0,0,13.151,8.769,50.189,50.189,0,0,1,33.9-16A49.737,49.737,0,0,1,410.938,128.545Z"/><path d="M260.422,336.845a27.917,27.917,0,0,1-24.844,0,8,8,0,1,0-7.156,14.31,43.989,43.989,0,0,0,39.156,0,8,8,0,1,0-7.156-14.31Z"/><path d="M237.657,303.03a8,8,0,0,0-11.314,0,3.317,3.317,0,0,1-4.686,0,8,8,0,0,0-11.314,11.315,19.338,19.338,0,0,0,27.314,0A8,8,0,0,0,237.657,303.03Z"/><path d="M258.343,314.344a19.338,19.338,0,0,0,27.314,0,8,8,0,0,0-11.314-11.315,3.317,3.317,0,0,1-4.686,0,8,8,0,0,0-11.314,11.315Z"/><path d="M64.451,58.648A8,8,0,0,0,72,64h40a8,8,0,0,0,0-16H94.806L117,30.247A8,8,0,0,0,112,16H72a8,8,0,0,0,0,16H89.194L67,49.753A8,8,0,0,0,64.451,58.648Z"/><path d="M128,184h-4.686l10.343-10.343A8,8,0,0,0,128,160H104a8,8,0,0,0,0,16h4.686L98.343,186.343A8,8,0,0,0,104,200h24a8,8,0,0,0,0-16Z"/><path d="M24,88H41.194L19,105.753A8,8,0,0,0,24,120H64a8,8,0,0,0,0-16H46.806L69,86.247A8,8,0,0,0,64,72H24a8,8,0,0,0,0,16Z"/><path d="M496,120a104,104,0,0,0-208,0c0,.117,0,.233,0,.35a917.349,917.349,0,0,0-122.754,2.876l-93.974,8.543a8,8,0,0,0-7.2,6.907l-.035.262a914.2,914.2,0,0,0,0,241.6l.034.259a8,8,0,0,0,7.206,6.91l74.387,6.762A55.555,55.555,0,0,0,144.581,400H56a8,8,0,0,0-8,8v40a15.987,15.987,0,0,0,7.53,13.549L56,488.142A8,8,0,0,0,64,496H432a8,8,0,0,0,8-8.142l-.457-25.754A16.011,16.011,0,0,0,448,448V408a8,8,0,0,0-8-8H351.419a55.555,55.555,0,0,0-1.082-5.534l74.387-6.762a8,8,0,0,0,7.206-6.91l.034-.26a916.293,916.293,0,0,0,6.8-167.659A104.113,104.113,0,0,0,496,120ZM71.859,480l-.284-16h352l.284,16ZM432,416l.008,32H64V416ZM316,336a27.824,27.824,0,0,0,12-2.731V344a24.01,24.01,0,0,1-5.167,14.862,55.6,55.6,0,0,0-15.953-5.792,63.491,63.491,0,0,0,4.6-17.07Zm-4-16V308.865c1.466.777,2.937,1.547,4.422,2.29l8.862,4.431A12.028,12.028,0,0,1,316,320Zm11.578-23.155a194.409,194.409,0,0,1-74.69-65.935l-2.232-3.348a8,8,0,0,0-14.575,3.307,75.838,75.838,0,0,1-56.9,63.089l-7.18,1.8V272a80,80,0,0,1,160,0v27.056ZM296,299.459V328a48,48,0,0,1-96,0V301.461a91.576,91.576,0,0,0,43.557-50.515A210.584,210.584,0,0,0,296,299.459Zm-112,8.634V320h-4a12.009,12.009,0,0,1-11.314-8.039,8.054,8.054,0,0,0,1.254-.2l9.121-2.28C180.729,309.064,182.373,308.6,184,308.093ZM180,336h4.518a63.491,63.491,0,0,0,4.6,17.07,55.6,55.6,0,0,0-15.953,5.792A24.012,24.012,0,0,1,168,344V333.293A27.838,27.838,0,0,0,180,336Zm18.128,32.045a63.892,63.892,0,0,0,99.744,0A40.078,40.078,0,0,1,335.2,400H160.8A40.078,40.078,0,0,1,198.128,368.045Zm218.765,4.305-73.01,6.636a56.411,56.411,0,0,0-8.258-10.518A40.018,40.018,0,0,0,344,344V272a96,96,0,0,0-192,0v72a40.014,40.014,0,0,0,8.376,24.468,56.375,56.375,0,0,0-8.259,10.518l-73.01-6.636a898.3,898.3,0,0,1,0-225.227L166.7,139.16a901.507,901.507,0,0,1,122.6-2.731A104.03,104.03,0,0,0,423.066,219.26,900.667,900.667,0,0,1,416.893,372.35ZM392,208a88,88,0,1,1,88-88A88.1,88.1,0,0,1,392,208Z"/></g></svg>
