<?xml version="1.0"?>
<svg xmlns="http://www.w3.org/2000/svg" viewBox="0 0 512 512" width="512" height="512"><g id="outline"><path d="M153.141,127.316l4.216,7.029a88.771,88.771,0,0,0,45.126,37.59,86.366,86.366,0,0,0-18.754,22.472l-8.335,14.381a8,8,0,0,0,8.979,11.743l24.128-6.422a86.607,86.607,0,0,0,33.1-17.172V224a8,8,0,0,0,16,0V196.869a86.576,86.576,0,0,0,33.449,17.158l24.169,6.267a8,8,0,0,0,8.9-11.8l-8.427-14.328a86.359,86.359,0,0,0-18.825-22.29,88.777,88.777,0,0,0,44.973-37.531l4.219-7.03a8,8,0,0,0-5.291-11.961,89.565,89.565,0,0,0-63.027,10.872,78.209,78.209,0,0,0-5.908-38.654L256.953,52.849a8,8,0,0,0-14.707,0L227.364,87.573a78.229,78.229,0,0,0-5.907,38.653,89.561,89.561,0,0,0-63.026-10.871,8,8,0,0,0-5.29,11.961ZM229.628,153.2a8,8,0,0,0,13.15-8.768,62.3,62.3,0,0,1-.707-50.56L249.6,76.309l7.529,17.567a62.3,62.3,0,0,1-.707,50.56,8,8,0,0,0,13.15,8.768,73.48,73.48,0,0,1,56.265-23.518,72.828,72.828,0,0,1-49.237,31.04,8,8,0,0,0-2.52,14.98,70.442,70.442,0,0,1,26.385,24.234l-5.4-1.4a70.692,70.692,0,0,1-39.035-26.433,8,8,0,0,0-6.44-3.255h-.014a8,8,0,0,0-6.443,3.277,70.709,70.709,0,0,1-38.746,26.518l-5.392,1.435a70.455,70.455,0,0,1,26.215-24.394,8,8,0,0,0-2.571-14.955,72.83,72.83,0,0,1-49.275-31.047A73.536,73.536,0,0,1,229.628,153.2Z"/><path d="M320,488V368a8,8,0,0,0-8-8H288a8,8,0,0,0-8-8H232a8,8,0,0,0-8,8H200a8,8,0,0,0-8,8V488a8,8,0,0,0,8,8H312A8,8,0,0,0,320,488Zm-96-8H208v-8h16Zm0-24H208v-8h16Zm0-24H208v-8h16Zm0-24H208v-8h16Zm0-24H208v-8h16Zm48,96H240V368h32Zm32,0H288v-8h16Zm0-24H288v-8h16Zm0-24H288v-8h16Zm0-24H288v-8h16Zm0-24H288v-8h16Z"/><path d="M24,496H136a8,8,0,0,0,8-8V416a8,8,0,0,0-8-8H112a8,8,0,0,0-8-8H56a8,8,0,0,0-8,8H24a8,8,0,0,0-8,8v72A8,8,0,0,0,24,496Zm88-72h16v8H112Zm0,24h16v8H112Zm0,24h16v8H112ZM64,416H96v64H64Zm-32,8H48v8H32Zm0,24H48v8H32Zm0,24H48v8H32Z"/><path d="M488,312h-7.679A41.234,41.234,0,0,0,488,288a8,8,0,0,0-16,0,25.249,25.249,0,0,1-9.322,19.6A7.988,7.988,0,0,0,456,304H408a8,8,0,0,0-8,8H376a8,8,0,0,0-8,8V488a8,8,0,0,0,8,8H488a8,8,0,0,0,8-8V320A8,8,0,0,0,488,312ZM400,480H384v-8h16Zm0-24H384v-8h16Zm0-24H384v-8h16Zm0-24H384v-8h16Zm0-24H384v-8h16Zm0-24H384v-8h16Zm0-24H384v-8h16Zm48-15.857V480H416V320h32ZM480,480H464v-8h16Zm0-24H464v-8h16Zm0-24H464v-8h16Zm0-24H464v-8h16Zm0-24H464v-8h16Zm0-24H464v-8h16Zm0-24H464v-8h16Z"/><path d="M120,144A128,128,0,1,0,248,16,128.145,128.145,0,0,0,120,144ZM248,32A112,112,0,1,1,136,144,112.127,112.127,0,0,1,248,32Z"/><path d="M440,160H408a8,8,0,0,0,0,16h15.494A480.075,480.075,0,0,1,281.9,293.784a480.2,480.2,0,0,1-180.751,56.762l-14,1.5A8,8,0,0,0,87.99,368a8.4,8.4,0,0,0,.863-.045l14-1.5a496.138,496.138,0,0,0,186.742-58.644A495.877,495.877,0,0,0,432,190.821V200a8,8,0,0,0,16,0V168A8,8,0,0,0,440,160Z"/></g></svg>
