<?xml version="1.0"?>
<svg xmlns="http://www.w3.org/2000/svg" viewBox="0 0 512 512" width="512" height="512"><g id="outline"><path d="M177.988,127.308a75.327,75.327,0,0,0,36.22,31.083A73.3,73.3,0,0,0,199.953,176l-6.945,11.985a8,8,0,0,0,8.979,11.742l20.107-5.352A73.437,73.437,0,0,0,248,181.559v19.774a8,8,0,0,0,16,0V181.5a73.445,73.445,0,0,0,26.206,12.818l20.141,5.223a8,8,0,0,0,8.9-11.8l-7.022-11.94a73.319,73.319,0,0,0-14.3-17.463,75.324,75.324,0,0,0,36.085-31.027l3.514-5.858a8,8,0,0,0-5.291-11.96,75.926,75.926,0,0,0-51.25,7.958,66.468,66.468,0,0,0-5.231-30.328l-12.4-28.937a8,8,0,0,0-14.708,0l-12.4,28.937a66.492,66.492,0,0,0-5.231,30.328,75.939,75.939,0,0,0-51.25-7.958,8,8,0,0,0-5.291,11.96Zm60.387,15.931a8,8,0,0,0,13.15-8.768,50.577,50.577,0,0,1-.573-41.049L256,81.643l5.048,11.779a50.577,50.577,0,0,1-.573,41.049,8,8,0,0,0,13.15,8.768,59.915,59.915,0,0,1,43.34-19.2A59.359,59.359,0,0,1,278.3,147.287a8,8,0,0,0-2.521,14.98,57.372,57.372,0,0,1,19.5,16.831l-1.049-.272A57.573,57.573,0,0,1,262.431,157.3a8,8,0,0,0-6.441-3.255h-.014a8,8,0,0,0-6.444,3.278,57.565,57.565,0,0,1-31.553,21.6l-1.048.279a57.4,57.4,0,0,1,19.375-16.949,8,8,0,0,0-2.573-14.955,59.354,59.354,0,0,1-38.7-23.249A59.925,59.925,0,0,1,238.375,143.239Z"/><path d="M488,272H408a8,8,0,0,0-8,8H337.838a84.249,84.249,0,0,0-35.727-8h-36.5a48.11,48.11,0,0,0-35.4,15.587l-.378.413H112a8,8,0,0,0-8-8H24a8,8,0,0,0-8,8V448a8,8,0,0,0,8,8h80a8,8,0,0,0,8-8h60.907l29.108,38.478a24.017,24.017,0,0,0,41.152-4.889,24.221,24.221,0,0,0,5.039,1.258,23.969,23.969,0,0,0,25.3-14.211,24.2,24.2,0,0,0,8.375,1.5,23.962,23.962,0,0,0,21.976-14.419A24,24,0,0,0,335.225,440H400v8a8,8,0,0,0,8,8h80a8,8,0,0,0,8-8V280A8,8,0,0,0,488,272ZM32,440V296H96V440Zm288.12-5.677a8,8,0,0,1-14.305,3.728L270.38,391.206a8,8,0,0,0-12.76,9.652l30.606,40.46,0,0a8,8,0,1,1-12.783,9.624l-30.9-39.863a8,8,0,1,0-12.623,9.832l26.33,33.873a8,8,0,0,1-13.129,9.112l-21.729-28.727a8,8,0,0,0-12.76,9.652l16.906,22.352a8,8,0,0,1-12.764,9.648l-31.507-41.652a8,8,0,0,0-6.38-3.174H112V304H215.181L198.93,321.75c-.084.092-.166.186-.245.281a28.833,28.833,0,0,0,4.849,41.527,28.974,28.974,0,0,0,37.69-2.678l14.962-14.961,62.39,82.479A7.948,7.948,0,0,1,320.12,434.323ZM334.363,424c-.773-1.85-47.548-64.11-47.548-64.11a61.758,61.758,0,0,0,47.841-27.452,8,8,0,0,0-13.312-8.876A45.8,45.8,0,0,1,283.155,344H274.8l-9.7-12.826a8,8,0,0,0-6.38-3.174h-3.922a8,8,0,0,0-5.656,2.343L229.91,349.566a12.894,12.894,0,0,1-16.775,1.192,12.835,12.835,0,0,1-2.264-18.357l31.138-34.01A32.077,32.077,0,0,1,265.61,288h36.5a68.118,68.118,0,0,1,30.311,7.155A7.994,7.994,0,0,0,336,296h64V424ZM480,440H416V288h64Z"/><path d="M162,240H334.111l46.311,23.155A8,8,0,0,0,392,256V66a42.047,42.047,0,0,0-42-42H162a42.047,42.047,0,0,0-42,42V198A42.047,42.047,0,0,0,162,240ZM136,66a26.029,26.029,0,0,1,26-26H350a26.029,26.029,0,0,1,26,26V243.056l-36.422-18.211A7.994,7.994,0,0,0,336,224H162a26.029,26.029,0,0,1-26-26Z"/><rect x="440" y="304" width="16" height="16"/><rect x="56" y="408" width="16" height="16"/></g></svg>
