<?xml version="1.0"?>
<svg xmlns="http://www.w3.org/2000/svg" viewBox="0 0 512 512" width="512" height="512"><g id="outline"><path d="M31.324,292.1a288.736,288.736,0,0,0,148.21,88.072l25.746,6.147-13.695,1.119A161.8,161.8,0,0,0,90.446,434.241l-16.1,16.1A8,8,0,0,0,80,464h32.4a160.975,160.975,0,0,0,91.385-28.312L248,405.382V488a8,8,0,0,0,16,0V405.382l44.215,30.306A160.975,160.975,0,0,0,399.6,464H432a8,8,0,0,0,5.657-13.657l-16.1-16.1a161.8,161.8,0,0,0-101.139-46.807l-13.695-1.119,25.746-6.147A288.736,288.736,0,0,0,480.676,292.1l13.27-14.744a8,8,0,0,0-7.622-13.174l-48.246,10.338a291.756,291.756,0,0,0-114.561,52.567l8.4-9.34a351.386,351.386,0,0,0,88.037-196.876,8,8,0,0,0-12.8-7.231l-6.283,4.784A348.088,348.088,0,0,0,285.94,272.052L291.4,242A368.185,368.185,0,0,0,263.311,20.749l-.054-.115a8,8,0,0,0-14.514,0l-.06.128A368.173,368.173,0,0,0,220.6,242l5.464,30.051A348.088,348.088,0,0,0,111.13,118.42l-6.283-4.784a8,8,0,0,0-12.8,7.234l.049.443a349.994,349.994,0,0,0,87.688,196.1l8.7,9.675A291.741,291.741,0,0,0,73.922,274.516L25.676,264.178a8,8,0,0,0-7.622,13.174ZM194.739,422.49A145.038,145.038,0,0,1,112.4,448H99.313l2.446-2.446a145.8,145.8,0,0,1,91.129-42.173l33.753-2.757Zm124.373-19.109a145.8,145.8,0,0,1,91.129,42.173L412.687,448H399.6a145.038,145.038,0,0,1-82.339-25.51l-31.9-21.866Zm10.541-60.828A275.538,275.538,0,0,1,441.43,290.161l24.041-5.152a272.746,272.746,0,0,1-136.721,79.6l-39.074,9.329ZM294.8,295.129A332.234,332.234,0,0,1,401.382,138.4a335.43,335.43,0,0,1-81.363,168.65l-45.047,50.093ZM256,44.188a352.028,352.028,0,0,1,19.662,194.951L256,347.279l-19.662-108.14A352.018,352.018,0,0,1,256,44.188ZM110.581,138.365A332.233,332.233,0,0,1,217.2,295.129l19.829,62.009-45.346-50.427A331.806,331.806,0,0,1,110.581,138.365ZM70.57,290.161a275.538,275.538,0,0,1,111.777,52.392l39.977,31.382-39.074-9.329a272.746,272.746,0,0,1-136.721-79.6Z"/></g></svg>
