<?xml version="1.0"?>
<svg xmlns="http://www.w3.org/2000/svg" viewBox="0 0 512 512" width="512" height="512"><g id="outline"><circle cx="104" cy="344" r="16"/><circle cx="424" cy="344" r="16"/><rect x="336" y="288" width="16" height="16"/><path d="M488,304V280a8,8,0,0,0-5.029-7.428L446.416,257.95l-14.827-44.48h0l-16-48A8,8,0,0,0,408,160H263.882A105.2,105.2,0,0,0,58.5,160H24a8,8,0,0,0-8,8.036l.643,140.821A7.968,7.968,0,0,0,16,312v32a8,8,0,0,0,8,8H64.805a40,40,0,0,0,78.39,0h241.61a40,40,0,0,0,78.39,0H488a8,8,0,0,0,8-8V312A8,8,0,0,0,488,304ZM266.154,176h37.225l.073,16H265.974c.264-3.03.406-6.094.406-9.19C266.38,180.521,266.3,178.252,266.154,176Zm37.371,32,.438,96H200V288h88V272H216.893a105.9,105.9,0,0,0,19.771-16H288V240H249.433a104.651,104.651,0,0,0,13.891-32Zm-247.3-32c-.144,2.252-.226,4.521-.226,6.81,0,3.1.143,6.16.406,9.19H32.11l-.073-16Zm8.579,160H32V320H72.022A39.841,39.841,0,0,0,64.805,336ZM32.621,304l-.438-96H59.056a104.675,104.675,0,0,0,13.891,32H48v16H85.716a105.9,105.9,0,0,0,19.771,16H48v16h72v16ZM104,368a24,24,0,1,1,24-24A24.028,24.028,0,0,1,104,368ZM72,182.81A89.19,89.19,0,1,1,161.19,272,89.29,89.29,0,0,1,72,182.81ZM184,285.5V304H136V284.944a105.368,105.368,0,0,0,48,.558ZM304,336H143.2a39.841,39.841,0,0,0-7.217-16H304ZM418.234,224,428.9,256H384V224ZM320,176h82.234L412.9,208H320Zm0,48h48v32H320Zm27.471,112H320V272h48v29.784ZM424,368a24,24,0,1,1,24-24A24.028,24.028,0,0,1,424,368Zm0-64a40.068,40.068,0,0,0-39.195,32H366.13l16.73-27.884A8,8,0,0,0,384,304V272h54.459L472,285.416V304Zm56,32H463.2a39.841,39.841,0,0,0-7.217-16H480Z"/><path d="M169.19,239.5v-15.11a64.745,64.745,0,0,0,21.417,10.043l17.477,4.532a8,8,0,0,0,8.905-11.8L210.9,216.808a64.73,64.73,0,0,0-11.4-14.285,66.42,66.42,0,0,0,30.294-26.712l3.05-5.084a8,8,0,0,0-5.292-11.96,66.938,66.938,0,0,0-43.537,6.14,58.714,58.714,0,0,0-4.71-24.931l-10.762-25.111a8,8,0,0,0-14.706,0l-10.762,25.111a58.714,58.714,0,0,0-4.71,24.931,66.925,66.925,0,0,0-43.537-6.14,8,8,0,0,0-5.291,11.961l3.05,5.084A66.421,66.421,0,0,0,123,202.579a64.68,64.68,0,0,0-11.365,14.415l-6.027,10.4a8,8,0,0,0,8.98,11.741l17.448-4.645a64.714,64.714,0,0,0,21.15-10.031V239.5a8,8,0,0,0,16,0Zm-8.022-42.095a8,8,0,0,0-6.443,3.278A48.931,48.931,0,0,1,130.09,218.4a48.772,48.772,0,0,1,14.51-11.879,8,8,0,0,0-2.572-14.956,50.443,50.443,0,0,1-31.52-18,50.912,50.912,0,0,1,34.609,16.246,8,8,0,0,0,13.152-8.769,42.829,42.829,0,0,1-.488-34.762l3.409-7.953,3.409,7.953a42.833,42.833,0,0,1-.487,34.762,8,8,0,0,0,13.151,8.769,50.9,50.9,0,0,1,34.61-16.246,50.462,50.462,0,0,1-31.5,18,8,8,0,0,0-2.521,14.978,48.805,48.805,0,0,1,14.6,11.793,48.914,48.914,0,0,1-24.831-17.667,8,8,0,0,0-6.441-3.255Z"/></g></svg>
