<svg height="512" viewBox="0 0 512 512" width="512" xmlns="http://www.w3.org/2000/svg"><g id="outline"><path d="m487.163 164.448c0-.009 0-.017-.008-.026l-15.155-30.31v-94.112a8 8 0 0 0 -8-8h-416a8 8 0 0 0 -8 8v94.112l-15.155 30.31a12.969 12.969 0 0 0 -.845 3.578v48a8 8 0 0 0 8 8v256a8 8 0 0 0 8 8h432a8 8 0 0 0 8-8v-256a8 8 0 0 0 8-8v-48a7.112 7.112 0 0 0 -.837-3.552zm-20.107-4.448h-46.112l-8-16h46.112zm-411.056-112h400v80h-400zm304 128h48v32h-48zm-3.056-16-8-16h46.112l8 16zm-60.944 16h48v32h-48zm-1.754-16-4-16h40.81l8 16zm-14.246 16v32h-48v-32zm-45.754-16 4-16h35.508l4 16zm-64 0 4-16h47.508l-4 16zm45.754 16v32h-48v-32zm-107.056-16 8-16h40.81l-4 16zm43.056 16v32h-48v-32zm-99.056-32h46.112l-8 16h-46.112zm-12.944 32h48v32h-48zm200 296h-192v-16h192zm0-32h-192v-184h192zm96 32h-80v-168h80zm128 0h-112v-40h112zm0-56h-112v-16h112zm0-32h-112v-80h112zm0-96h-208v-32h208zm0-48h-416v-16h416zm8-32h-48v-32h48z"/><path d="m432 64h-352a8 8 0 0 0 -8 8v32a8 8 0 0 0 8 8h352a8 8 0 0 0 8-8v-32a8 8 0 0 0 -8-8zm-8 32h-336v-16h336z"/><path d="m376 368h64a8 8 0 0 0 8-8v-32a8 8 0 0 0 -8-8h-64a8 8 0 0 0 -8 8v32a8 8 0 0 0 8 8zm51.313-32h4.687v16h-20.687zm-43.313 0h20.687l-16 16h-4.687z"/><path d="m272 392a8 8 0 0 0 8-8v-8h8a8 8 0 0 0 0-16h-16a8 8 0 0 0 -8 8v16a8 8 0 0 0 8 8z"/><path d="m272 264h16v16h-16z"/><path d="m304 264h40v16h-40z"/><path d="m360 264h16v16h-16z"/><path d="m168 272h16v16h-16z"/><path d="m200 272h24v16h-24z"/><path d="m68.529 343.765a72.9 72.9 0 0 0 34.645 29.919 70.963 70.963 0 0 0 -13.466 16.748l-6.7 11.557a8 8 0 0 0 8.979 11.742l19.388-5.161a71.072 71.072 0 0 0 24.616-12.057l.009 18.487a8 8 0 0 0 8 8 8 8 0 0 0 8-8l-.006-18.558a71.088 71.088 0 0 0 24.918 12.067l19.421 5.036a8 8 0 0 0 8.905-11.8l-6.772-11.514a70.97 70.97 0 0 0 -13.508-16.6 72.909 72.909 0 0 0 34.513-29.863l3.389-5.649a8 8 0 0 0 -5.291-11.961 73.512 73.512 0 0 0 -49.16 7.458 64.391 64.391 0 0 0 -5.1-28.861l-11.959-27.9a8 8 0 0 0 -14.706 0l-11.959 27.9a64.4 64.4 0 0 0 -5.1 28.861 73.491 73.491 0 0 0 -49.159-7.458 8 8 0 0 0 -5.291 11.961zm58.265 15.409a8 8 0 0 0 13.151-8.768 48.481 48.481 0 0 1 -.55-39.351l4.6-10.746 4.6 10.746a48.481 48.481 0 0 1 -.55 39.351 8 8 0 0 0 13.151 8.768 57.485 57.485 0 0 1 41-18.409 56.951 56.951 0 0 1 -36.739 21.835 8 8 0 0 0 -2.52 14.979 55.082 55.082 0 0 1 18.219 15.5l-.227-.058a55.235 55.235 0 0 1 -30.5-20.652 8 8 0 0 0 -6.44-3.255h-.014a8 8 0 0 0 -6.444 3.278 55.233 55.233 0 0 1 -30.27 20.717l-.227.061a55.055 55.055 0 0 1 18.108-15.607 8 8 0 0 0 -2.572-14.955 56.946 56.946 0 0 1 -36.78-21.842 57.491 57.491 0 0 1 41.004 18.408z"/></g></svg>