<svg height="512" viewBox="0 0 512 512" width="512" xmlns="http://www.w3.org/2000/svg"><g id="outline"><path d="m22.194 262.216 57.26 86.817a23.837 23.837 0 0 0 15.211 10.3 24.234 24.234 0 0 0 4.873.5 24.012 24.012 0 0 0 19.986-37.222l-17.618-26.713 13.356-8.809 8.809 13.356a8 8 0 0 0 11.083 2.275l64.846-42.773v.053a12.013 12.013 0 0 0 12 12h4v16.569a56.089 56.089 0 0 0 -48 55.431v112a32.036 32.036 0 0 0 32 32h112a32.036 32.036 0 0 0 32-32v-112a56.089 56.089 0 0 0 -48-55.431v-16.569h4a12.013 12.013 0 0 0 12-12v-40a12.013 12.013 0 0 0 -12-12h-21.236l63.419-41.826a8 8 0 0 0 2.274-11.083l20.034-13.213a8 8 0 0 0 2.275-11.083l26.714-17.617a8 8 0 0 0 3.6-6.64l.122-24.561 63.198-41.69a8 8 0 1 0 -8.8-13.357l-63.319 41.758-22.024-8.674a8 8 0 0 0 -7.336.764l-26.713 17.622-.679-1.028a8 8 0 0 0 -11.083-2.274l-20.035 13.209a8 8 0 0 0 -11.083-2.274l-207.028 136.541a8 8 0 0 0 -2.275 11.083l8.81 13.357-13.356 8.809-13.213-20.034a24 24 0 0 0 -40.072 26.427zm110.829 22.737-4.4-6.678 60.1-39.64 4.4 6.677zm50.977 123.047h16v-16h-16v-8h32v-16h-32v-16h80v72h-80zm96-184h16v32h-16zm0 48v24a8 8 0 0 0 8 8 40.045 40.045 0 0 1 40 40v112a16.019 16.019 0 0 1 -16 16h-112a16.019 16.019 0 0 1 -16-16v-16h88a8 8 0 0 0 8-8v-88a8 8 0 0 0 -8-8h-87.195a40.068 40.068 0 0 1 39.195-32 8 8 0 0 0 8-8v-24zm-64-16v-6.6l38.5-25.4h9.5v32zm148.261-179.576 16.928 6.667-.093 19.086-23.14 15.261-16.939-25.685zm-41.684 16.431 26.423 40.07-13.357 8.808-26.427-40.07zm-111.258 63.794 8.809 13.357 13.357-8.809-8.809-13.357 13.356-8.809 13.213 20.035 13.358-8.808-13.214-20.036 13.356-8.809 8.809 13.357 13.357-8.809-8.811-13.361 13.356-8.809 35.236 53.427-93.5 61.663-35.236-53.427zm-26.714 17.619 35.237 53.426-13.358 8.806-35.235-53.427zm-4.69 51.01-60.1 39.64-8.815-13.356 60.1-39.641zm-22.023-33.392 4.405 6.678-60.1 39.641-4.4-6.679zm-60.248 68.485 8.809 13.357-13.353 8.808-8.812-13.356zm-63.251-12.971a8 8 0 0 1 14.515-2.8l57.259 86.817a8 8 0 1 1 -13.355 8.81l-57.26-86.818a7.948 7.948 0 0 1 -1.159-6.009z"/><path d="m471.354 81.21a8 8 0 0 0 -14.708 0l-22.252 51.925a29.608 29.608 0 0 0 10.79 36.3l2.392 1.594a29.529 29.529 0 0 0 32.848 0l2.39-1.594a29.608 29.608 0 0 0 10.791-36.3zm2.585 74.91-2.39 1.595a13.576 13.576 0 0 1 -15.1 0l-2.392-1.595a13.605 13.605 0 0 1 -4.959-16.683l14.902-34.767 14.9 34.766a13.606 13.606 0 0 1 -4.96 16.684z"/><path d="m232 368h16v16h-16z"/><path d="m216 392h32v16h-32z"/><path d="m304 360a8 8 0 0 0 8-8v-8a8 8 0 0 0 -16 0v8a8 8 0 0 0 8 8z"/><path d="m304 416a8 8 0 0 0 8-8v-32a8 8 0 0 0 -16 0v32a8 8 0 0 0 8 8z"/></g></svg>