<?xml version="1.0"?>
<svg xmlns="http://www.w3.org/2000/svg" viewBox="0 0 512 512" width="512" height="512"><g id="outline"><path d="M392,392a72,72,0,0,0,0-144H192v-4a44,44,0,0,0-88,0v36H88a8,8,0,0,0-8,8v96a8,8,0,0,0,8,8h41.349a96.242,96.242,0,0,0,16.7,40H104a8,8,0,0,0-8,8v16a40.045,40.045,0,0,0,40,40H376a40.045,40.045,0,0,0,40-40V440a8,8,0,0,0-8-8H365.993a94.936,94.936,0,0,0,16.683-40Zm-8-96h8a24,24,0,0,1,0,48h-8Zm0,64h8a40,40,0,0,0,0-80h-8V264h8a56,56,0,0,1,0,112h-8ZM120,244a28,28,0,0,1,56,0v4H136a8,8,0,0,0-8,8v24h-8Zm24,132H96V296h48Zm256,72v8a24.027,24.027,0,0,1-24,24H136a24.027,24.027,0,0,1-24-24v-8Zm-32-72a79.454,79.454,0,0,1-22.889,56H166.886a80.266,80.266,0,0,1-21.276-40H152a8,8,0,0,0,8-8V288a8,8,0,0,0-8-8h-8V264H368Z"/><path d="M408,80a8,8,0,0,0-16,0,64.072,64.072,0,0,1-64,64H232.228A36.047,36.047,0,0,1,268,112h28a8,8,0,0,0,0-16H268a52.058,52.058,0,0,0-51.831,48H192a32.036,32.036,0,0,0-32,32,8,8,0,0,0,16,0,16.019,16.019,0,0,1,16-16h25.413A52.082,52.082,0,0,0,268,200h44a24.027,24.027,0,0,1,24,24,8,8,0,0,0,16,0,40.045,40.045,0,0,0-40-40H268a36.057,36.057,0,0,1-33.936-24H328A80.091,80.091,0,0,0,408,80Z"/><path d="M344,80a16.019,16.019,0,0,1-16,16,8,8,0,0,0,0,16,32.036,32.036,0,0,0,32-32V72a8,8,0,0,0-16,0Z"/><path d="M192,120a56.064,56.064,0,0,1,56-56h24a40.045,40.045,0,0,0,40-40,8,8,0,0,0-16,0,24.027,24.027,0,0,1-24,24H248a72.081,72.081,0,0,0-72,72,8,8,0,0,0,16,0Z"/><path d="M352,48a8,8,0,0,0,8-8V24a8,8,0,0,0-16,0V40A8,8,0,0,0,352,48Z"/><path d="M408,24a8,8,0,0,0-16,0V48a8,8,0,0,0,16,0Z"/><path d="M327.316,332.764a8,8,0,0,0-5.747-4.609,66.194,66.194,0,0,0-42.921,6,58.091,58.091,0,0,0-4.665-24.5l-10.63-24.8a8,8,0,0,0-14.706,0l-10.63,24.8a58.086,58.086,0,0,0-4.665,24.5,66.211,66.211,0,0,0-42.921-6,8,8,0,0,0-5.291,11.961l3.013,5.021a65.694,65.694,0,0,0,29.954,26.42,63.962,63.962,0,0,0-11.135,14.159l-5.954,10.272A8,8,0,0,0,210,407.731l17.234-4.587A64.033,64.033,0,0,0,248,393.336L248,408a8,8,0,0,0,8,8h0a8,8,0,0,0,8-8l0-14.733a64.024,64.024,0,0,0,21.037,9.825l17.263,4.477a8,8,0,0,0,8.9-11.8l-6.02-10.235a63.993,63.993,0,0,0-11.165-14.03,65.7,65.7,0,0,0,29.832-26.365l3.013-5.021A8,8,0,0,0,327.316,332.764Zm-52.379,27.781a8,8,0,0,0-2.52,14.98,48.058,48.058,0,0,1,14.171,11.367,48.236,48.236,0,0,1-24.156-17.314,8,8,0,0,0-6.44-3.255h-.014a8,8,0,0,0-6.444,3.277,48.243,48.243,0,0,1-23.962,17.357A48.081,48.081,0,0,1,239.659,375.5a8,8,0,0,0-2.571-14.954,49.734,49.734,0,0,1-30.932-17.572,50.194,50.194,0,0,1,33.9,16A8,8,0,0,0,253.2,350.21a42.207,42.207,0,0,1-.48-34.255L256,308.309l3.277,7.646a42.207,42.207,0,0,1-.48,34.255,8,8,0,0,0,13.151,8.769,50.189,50.189,0,0,1,33.9-16A49.736,49.736,0,0,1,274.937,360.545Z"/></g></svg>
