<?xml version="1.0"?>
<svg xmlns="http://www.w3.org/2000/svg" viewBox="0 0 512 512" width="512" height="512"><g id="outline"><path d="M166.919,122.431a69.2,69.2,0,0,0-5.4-32.241L148.543,59.912a8,8,0,0,0-14.706,0L120.861,90.19a69.211,69.211,0,0,0-5.4,32.241A79.1,79.1,0,0,0,61.5,113.813,8,8,0,0,0,56.2,125.774l3.677,6.129A78.422,78.422,0,0,0,98.152,164.5a76.327,76.327,0,0,0-15.284,18.737L75.6,195.774a8,8,0,0,0,8.98,11.742l21.037-5.6a76.476,76.476,0,0,0,27.573-13.808v21.443a8,8,0,0,0,16,0V188.044a76.484,76.484,0,0,0,27.884,13.8l21.073,5.465a8,8,0,0,0,8.905-11.8L199.7,183.019a76.319,76.319,0,0,0-15.336-18.579A78.429,78.429,0,0,0,222.5,131.9l3.678-6.13a8,8,0,0,0-5.291-11.961A79.088,79.088,0,0,0,166.919,122.431Zm-2.342,30.936a8,8,0,0,0-2.52,14.979A60.422,60.422,0,0,1,183.182,186.9l-2.092-.543A60.605,60.605,0,0,1,147.621,163.7a8,8,0,0,0-6.441-3.255h-.014a8,8,0,0,0-6.443,3.278A60.624,60.624,0,0,1,101.5,186.454l-2.087.556a60.412,60.412,0,0,1,20.992-18.683,8,8,0,0,0-2.572-14.954,62.481,62.481,0,0,1-41.17-25.068h.1a63.079,63.079,0,0,1,46.258,20.209,8,8,0,0,0,13.151-8.768,53.293,53.293,0,0,1-.6-43.253l5.623-13.121,5.623,13.121a53.289,53.289,0,0,1-.6,43.253,8,8,0,0,0,13.151,8.768,63.071,63.071,0,0,1,46.258-20.209h.1A62.478,62.478,0,0,1,164.577,153.367Z"/><path d="M141.19,16A125.19,125.19,0,1,0,246.877,208.222L296,229.275V240H248a8,8,0,0,0-8,8v24h-8a8,8,0,0,0-8,8v32a8,8,0,0,0,8,8h58.4l.3.821A97.205,97.205,0,0,1,294.219,376H280V352a8,8,0,0,0-8-8H232a8,8,0,0,0-8,8v24a8,8,0,0,0-8,8v24a8,8,0,0,0,4.422,7.155A20.808,20.808,0,0,1,231.906,432H187a27.03,27.03,0,0,0-27,27v29a8,8,0,0,0,8,8H472a8,8,0,0,0,8-8V459a27.03,27.03,0,0,0-27-27H441.869l-.609-1.083,36-80a165.993,165.993,0,0,0-9.337-154.028l-21.077-34.849c-.016-.027-.035-.05-.051-.076a39.864,39.864,0,0,0,4.17-34.792L472.71,110.1a8,8,0,0,0,1.352-11.232h0L492.94,84.047a8,8,0,0,0,1.352-11.232L464.652,35.06a8,8,0,0,0-11.233-1.352l-18.877,14.82a8,8,0,0,0-11.232-1.353L316.554,130.986l-.211.166a39.569,39.569,0,0,0-15.01,28.531l-5.789.33A8,8,0,0,0,295.993,176c.153,0,.308,0,.463-.013l7.03-.4a39.162,39.162,0,0,0,2.085,4.847l-6.606,5.35a8,8,0,0,0,10.07,12.434l6.428-5.206a39.2,39.2,0,0,0,6.187,4.365l-1.543,9.318a8,8,0,1,0,15.786,2.612l1.159-7a40.062,40.062,0,0,0,4.295.248,39.315,39.315,0,0,0,24.391-8.468l25.738-20.207a39.827,39.827,0,0,0,9.412,4.489l13.826,33.658A114,114,0,0,1,401.46,322.391l-11.98,16.473L378.869,320H392a8,8,0,0,0,8-8V280a8,8,0,0,0-8-8H368V248a8,8,0,0,0-8-8H312V224a8,8,0,0,0-4.849-7.353l-52.534-22.515A125.159,125.159,0,0,0,141.19,16ZM240,360h24v16H240Zm-8,32h57.137a97.14,97.14,0,0,1-30.657,40H247.943A36.674,36.674,0,0,0,232,403.446Zm221,56a11.013,11.013,0,0,1,11,11v21H176V459a11.013,11.013,0,0,1,11-11Zm4.007-396.768L476.768,76.4l-12.585,9.881-19.761-25.17ZM426.9,64.7l29.641,37.755-12.586,9.881L414.312,74.58ZM338.3,186.357a23.474,23.474,0,0,1-15.8-9.071l-.435-.566A23.734,23.734,0,0,1,320.8,149.8l27.907,35.547A23.541,23.541,0,0,1,338.3,186.357Zm41.672-23.791L362.222,176.5l-29.215-38.09,68.72-53.951,12.461,15.873c-.333-.008-.663-.025-1-.025a39.98,39.98,0,0,0-33.218,62.258Zm33.218,1.742a24,24,0,1,1,24-24A24.027,24.027,0,0,1,413.19,164.308ZM414.4,331.8a130,130,0,0,0,15.114-125.859l-10.7-26.039a39.733,39.733,0,0,0,16.374-6.214l19.039,31.48a149.993,149.993,0,0,1,8.437,139.183l-31.156,69.236-33.4-59.386ZM423.511,432H282.2a114.127,114.127,0,0,0,25.124-112h53.186ZM384,288v16H240V288Zm-32-32v16H256V256Zm-210.81-5.62A109.19,109.19,0,1,1,250.38,141.19,109.313,109.313,0,0,1,141.19,250.38Z"/><path d="M320,392a32,32,0,1,0,32-32A32.036,32.036,0,0,0,320,392Zm48,0a16,16,0,1,1-16-16A16.019,16.019,0,0,1,368,392Z"/></g></svg>
