<?xml version="1.0"?>
<svg xmlns="http://www.w3.org/2000/svg" viewBox="0 0 512 512" width="512" height="512"><g id="outline"><path d="M256,272a24,24,0,1,0,24,24A24.027,24.027,0,0,0,256,272Zm0,32a8,8,0,1,1,8-8A8.009,8.009,0,0,1,256,304Z"/><path d="M280,112H232a8,8,0,0,0-8,8v40a8,8,0,0,0-8,8V488a8,8,0,0,0,8,8h64a8,8,0,0,0,8-8V305.677h6.323A81.668,81.668,0,0,0,383.992,224a8,8,0,1,0-16,0,65.669,65.669,0,0,1-65.669,65.676H296V168a8,8,0,0,0-8-8V120A8,8,0,0,0,280,112Zm-40,16h32v32H240Zm-8,80h16v32H232Zm48,88V480H232V256h48Zm0-56H264V208h16Zm0-48H232V176h48Z"/><path d="M304,72a8,8,0,0,0,8,8,48.054,48.054,0,0,0,48-48V24a8,8,0,0,0-16,0v8a32.036,32.036,0,0,1-32,32A8,8,0,0,0,304,72Z"/><path d="M340.668,248A8,8,0,0,0,348,243.2a47.682,47.682,0,0,0,4-19.2v-8a8,8,0,0,0-16,0v8a31.774,31.774,0,0,1-2.659,12.8A8,8,0,0,0,340.668,248Z"/><path d="M156,140.8a47.682,47.682,0,0,0-4,19.2v8a8,8,0,0,0,16,0v-8a31.774,31.774,0,0,1,2.659-12.8A8,8,0,0,0,156,140.8Z"/><path d="M128.009,169.677a8,8,0,0,0,8-8A65.669,65.669,0,0,1,201.677,96H240a8,8,0,0,0,8-8,24.027,24.027,0,0,1,24-24h8a8,8,0,0,0,8-8,16.019,16.019,0,0,1,16-16h8a8,8,0,0,0,0-16h-8a32.054,32.054,0,0,0-30.987,24H272a40.067,40.067,0,0,0-39.195,32H201.677a81.668,81.668,0,0,0-81.669,81.678A8,8,0,0,0,128.009,169.677Z"/><path d="M447.316,116.764a8,8,0,0,0-5.747-4.609,66.206,66.206,0,0,0-42.921,6,58.109,58.109,0,0,0-4.665-24.5l-10.629-24.8a8,8,0,0,0-14.708,0l-10.629,24.8a58.1,58.1,0,0,0-4.665,24.5,66.2,66.2,0,0,0-42.921-6,8,8,0,0,0-5.291,11.961l3.013,5.021a65.7,65.7,0,0,0,29.954,26.42,64.015,64.015,0,0,0-11.135,14.159l-5.953,10.272A8,8,0,0,0,330,191.731l17.234-4.587A64.03,64.03,0,0,0,368,177.335L368,192a8,8,0,0,0,8,8h0a8,8,0,0,0,8-8l0-14.734a64.028,64.028,0,0,0,21.036,9.825l17.263,4.477a8,8,0,0,0,8.9-11.8l-6.018-10.235a64.028,64.028,0,0,0-11.165-14.03,65.714,65.714,0,0,0,29.832-26.365l3.012-5.021A8,8,0,0,0,447.316,116.764Zm-52.378,27.781a8,8,0,0,0-2.52,14.98,48.083,48.083,0,0,1,14.171,11.367,48.236,48.236,0,0,1-24.156-17.314,8,8,0,0,0-6.441-3.255h-.014a8,8,0,0,0-6.443,3.277,48.241,48.241,0,0,1-23.963,17.357A48.1,48.1,0,0,1,359.66,159.5a8,8,0,0,0-2.572-14.954,49.734,49.734,0,0,1-30.932-17.573,50.2,50.2,0,0,1,33.9,16,8,8,0,0,0,13.15-8.769,42.2,42.2,0,0,1-.479-34.255L376,92.309l3.276,7.646a42.209,42.209,0,0,1-.478,34.256,8,8,0,0,0,13.15,8.768,50.183,50.183,0,0,1,33.9-16A49.737,49.737,0,0,1,394.938,144.545Z"/><path d="M195.848,254.863a65.7,65.7,0,0,0-29.955-26.42,64.025,64.025,0,0,0,11.136-14.159l5.953-10.273A8,8,0,0,0,174,192.269l-17.234,4.587A64.048,64.048,0,0,0,136,206.664L136,192a8,8,0,0,0-8-8h0a8,8,0,0,0-8,8l0,14.733a64.027,64.027,0,0,0-21.036-9.824L81.7,192.434a8,8,0,0,0-8.9,11.8l6.019,10.235A64.018,64.018,0,0,0,89.984,228.5a65.714,65.714,0,0,0-29.832,26.365l-3.012,5.021a8,8,0,0,0,5.291,11.961,66.194,66.194,0,0,0,42.921-6,58.106,58.106,0,0,0,4.665,24.5l10.629,24.8a8,8,0,0,0,14.708,0l10.629-24.8a58.1,58.1,0,0,0,4.665-24.5,66.2,66.2,0,0,0,42.921,6,8,8,0,0,0,5.291-11.961Zm-51.9-13.842a8,8,0,0,0-13.15,8.769,42.2,42.2,0,0,1,.478,34.255L128,291.691l-3.276-7.646a42.2,42.2,0,0,1,.479-34.255,8,8,0,0,0-13.15-8.769,50.191,50.191,0,0,1-33.9,16,49.734,49.734,0,0,1,30.906-17.568,8,8,0,0,0,2.52-14.98,48.083,48.083,0,0,1-14.171-11.367,48.221,48.221,0,0,1,24.155,17.314,8,8,0,0,0,6.442,3.255h.013a8,8,0,0,0,6.444-3.277,48.244,48.244,0,0,1,23.964-17.357A48.1,48.1,0,0,1,144.341,224.5a8,8,0,0,0,2.572,14.954,49.737,49.737,0,0,1,30.932,17.572A50.194,50.194,0,0,1,143.948,241.021Z"/></g></svg>
