<?xml version="1.0"?>
<svg xmlns="http://www.w3.org/2000/svg" viewBox="0 0 512 512" width="512" height="512"><g id="outline"><path d="M75.92,156.407,69.7,158.272a8,8,0,0,0-.95,14.974l17.555,7.8a142.548,142.548,0,0,0,43.8,11.574A80.424,80.424,0,0,0,112,216.442l-1.99,3.98a8,8,0,0,0,8.471,11.47l12.142-2.025a80.594,80.594,0,0,0,48.64-27.888l.883-1.06.032,29.29a42.727,42.727,0,0,0-35.239,19.7L137.274,261.8a8,8,0,0,0,5.859,12.285l37.093,4.043,0,3.746-37.1,4.043a8,8,0,0,0-5.859,12.285l7.661,11.893a42.716,42.716,0,0,0,35.346,19.7L180.3,344h-71.99a8,8,0,0,0-8,8v20a20.016,20.016,0,0,0,17.545,19.833L130.335,448H112a8,8,0,0,0-8,8v18a22.025,22.025,0,0,0,22,22H250a22.025,22.025,0,0,0,22-22V456a8,8,0,0,0-8-8H246.281l12.481-56.167A20.017,20.017,0,0,0,276.308,372V352a8,8,0,0,0-8-8H196.3l-.018-15.592,55.442-6.043a8,8,0,0,0,6.015-3.875l10.44-17.617A23.847,23.847,0,0,0,280,304a16.019,16.019,0,0,0,16,16h13.578l60.411,40.274A45.854,45.854,0,0,0,395.506,368H440a8,8,0,0,0,8-8v-2a38.043,38.043,0,0,0-38-38H394.422l-60-40,60-40H410a38.043,38.043,0,0,0,38-38v-2a8,8,0,0,0-8-8H395.506a45.854,45.854,0,0,0-25.517,7.726L309.578,240H296a16.019,16.019,0,0,0-16,16,23.847,23.847,0,0,0-11.823,3.127l-10.44-17.617a8,8,0,0,0-6.015-3.875l-55.547-6.055-.033-30.69.907,1.089a80.6,80.6,0,0,0,48.639,27.889l12.144,2.024a8,8,0,0,0,8.47-11.47l-1.99-3.979A80.431,80.431,0,0,0,246.2,192.622,142.589,142.589,0,0,0,290,181.048l17.555-7.8a8,8,0,0,0-.952-14.974l-6.217-1.864a143.121,143.121,0,0,0-60.24-4.652A196.477,196.477,0,0,0,280.362,84.43l5.687-16.185a8,8,0,0,0-11.564-9.571l-1.95,1.132A196.249,196.249,0,0,0,215.4,109.928a180.97,180.97,0,0,0-20.177-89.623,8,8,0,0,0-7.1-4.3h-.066a8,8,0,0,0-7.089,4.422,188.411,188.411,0,0,0-19.746,89.927,196.187,196.187,0,0,0-57.455-50.542l-1.949-1.132a8,8,0,0,0-11.565,9.569L95.944,84.43a196.511,196.511,0,0,0,40.215,67.326A143.138,143.138,0,0,0,75.92,156.407ZM296,256h16a8.005,8.005,0,0,0,4.438-1.344l62.426-41.618A29.91,29.91,0,0,1,395.506,208h35.663A22.039,22.039,0,0,1,410,224H392a8.005,8.005,0,0,0-4.438,1.344L317.578,272H302.624A24.076,24.076,0,0,0,296,262.131Zm0,41.869A24.076,24.076,0,0,0,302.624,288h14.954l69.984,46.656A8.005,8.005,0,0,0,392,336h18a22.039,22.039,0,0,1,21.169,16H395.506a29.91,29.91,0,0,1-16.642-5.038l-62.426-41.618A8.005,8.005,0,0,0,312,304H296Zm-23.962-17.782a7.936,7.936,0,0,0,.038-1.129,8.007,8.007,0,1,1-.063,1.291C272.02,280.194,272.032,280.142,272.038,280.087Zm-114.3-20.507.651-1.01A26.816,26.816,0,0,1,180.191,246.2l.017,15.832ZM256,464v10a6.006,6.006,0,0,1-6,6H126a6.006,6.006,0,0,1-6-6V464ZM134.28,392H242.335l-12.444,56H146.725Zm126.028-32v12a4,4,0,0,1-4,4h-136a4,4,0,0,1-4-4V360h144Zm-14.3-106.893,10.195,17.206-60-6.539-.017-16.1ZM197.41,280l-1.181.129v-.258Zm58.8,9.687-10.195,17.206-62,6.757a26.85,26.85,0,0,1-25.624-12.22l-.651-1.01ZM169.149,160.745a180.526,180.526,0,0,1-55.83-75.486,180.25,180.25,0,0,1,53.414,64.018,8,8,0,0,0,14.947-5.4,172.506,172.506,0,0,1,6.582-100.248,167.651,167.651,0,0,1,6.547,99.864,8,8,0,0,0,14.931,5.446A180.293,180.293,0,0,1,262.986,85.26a180.5,180.5,0,0,1-55.828,75.485,8,8,0,0,0,7.79,13.752,127.282,127.282,0,0,1,64.743-6.45,126.641,126.641,0,0,1-61.073,8.55,8,8,0,0,0-3.668,15.443,64.374,64.374,0,0,1,28.458,21.029,64.588,64.588,0,0,1-34.068-21.334l-15.11-18.07a8,8,0,0,0-6.1-2.826H188.1a8,8,0,0,0-6.112,2.878l-15.015,18.019A64.6,64.6,0,0,1,132.9,213.069a64.369,64.369,0,0,1,28.457-21.029,8,8,0,0,0-3.667-15.443,126.644,126.644,0,0,1-61.073-8.55,127.314,127.314,0,0,1,64.743,6.45,8,8,0,0,0,7.79-13.752Z"/></g></svg>
