<?xml version="1.0"?>
<svg xmlns="http://www.w3.org/2000/svg" viewBox="0 0 512 512" width="512" height="512"><g id="outline"><path d="M488,344h-1.552L472.39,279.336a66.054,66.054,0,0,0,11.458-14.2l3.012-5.021a8,8,0,0,0-5.291-11.961,65.187,65.187,0,0,0-16.209-1.163L449.876,175.77A8,8,0,0,0,456,168V150a14.015,14.015,0,0,0-14-14H280V112h-.028a40,40,0,1,0-47.944,0H232v24H70a14.015,14.015,0,0,0-14,14v18a8,8,0,0,0,6.124,7.77L46.64,246.994a65.233,65.233,0,0,0-16.209,1.161,8,8,0,0,0-5.291,11.961l3.013,5.021a66.007,66.007,0,0,0,11.457,14.2L25.552,344H24a8,8,0,0,0-8,8v15a25.028,25.028,0,0,0,25,25H151a25.028,25.028,0,0,0,25-25V352a8,8,0,0,0-8-8h-1.552L152.39,279.336a66.054,66.054,0,0,0,11.458-14.2l3.012-5.021a8,8,0,0,0-5.291-11.961,65.19,65.19,0,0,0-16.209-1.163L129.926,176h58.888a62.173,62.173,0,0,0,41.813,16h1.793l-.4,168H232a8,8,0,0,0-8,8v24H199.808a17.973,17.973,0,0,0-17.462,13.634L177.754,424H88a24.027,24.027,0,0,0-24,24v16a8,8,0,0,0,8,8H440a8,8,0,0,0,8-8V448a24.027,24.027,0,0,0-24-24H334.246l-4.592-18.366A17.973,17.973,0,0,0,312.192,392H288V368a8,8,0,0,0-7.981-8l.4-168h.953a62.173,62.173,0,0,0,41.813-16h58.888L366.64,246.994a65.233,65.233,0,0,0-16.209,1.161,8,8,0,0,0-5.291,11.961l3.013,5.021a66.067,66.067,0,0,0,11.457,14.2L345.552,344H344a8,8,0,0,0-8,8v15a25.028,25.028,0,0,0,25,25H471a25.028,25.028,0,0,0,25-25V352A8,8,0,0,0,488,344Zm-17.926,0H424V313.268a64.039,64.039,0,0,0,21.032,9.821l17.263,4.477a7.962,7.962,0,0,0,4.192-.068Zm-16.058-52.5c1.427-.63,2.826-1.315,4.2-2.043l1.888,8.683A64.048,64.048,0,0,0,454.016,291.5Zm-4.428-41.738a66.633,66.633,0,0,0-10.94,4.391,58.091,58.091,0,0,0-4.665-24.5l-10.629-24.8a8,8,0,0,0-14.708,0l-10.629,24.8a58.1,58.1,0,0,0-4.665,24.5,66.749,66.749,0,0,0-10.94-4.389L398.447,176h35.106ZM232,80a24,24,0,1,1,24,24A24.028,24.028,0,0,1,232,80ZM264,119.2V136H248V119.2a40.154,40.154,0,0,0,16,0ZM78.447,176h35.106l16.035,73.764a66.633,66.633,0,0,0-10.94,4.391,58.091,58.091,0,0,0-4.665-24.5l-10.629-24.8a8,8,0,0,0-14.708,0l-10.629,24.8a58.1,58.1,0,0,0-4.665,24.5,66.749,66.749,0,0,0-10.94-4.389ZM45.49,327.605a15.766,15.766,0,0,0,4.507.126l17.234-4.587A64.065,64.065,0,0,0,88,313.333V344H41.926Zm6.317-29.056,1.975-9.087c1.414.748,2.856,1.45,4.325,2.1A63.9,63.9,0,0,0,51.807,298.549ZM160,360v7a9.01,9.01,0,0,1-9,9H41a9.01,9.01,0,0,1-9-9v-7Zm-9.926-16H104V313.268a64.039,64.039,0,0,0,21.032,9.821l17.263,4.477a7.962,7.962,0,0,0,4.192-.068Zm-16.058-52.5c1.427-.63,2.826-1.315,4.2-2.043l1.888,8.683A64.048,64.048,0,0,0,134.016,291.5Zm11.828-28.524a49.737,49.737,0,0,1-30.906,17.567,8,8,0,0,0-2.52,14.98,48.083,48.083,0,0,1,14.171,11.367,48.221,48.221,0,0,1-24.155-17.314,8,8,0,0,0-6.442-3.255h-.013a8,8,0,0,0-6.444,3.277,48.244,48.244,0,0,1-23.964,17.357A48.1,48.1,0,0,1,79.659,295.5a8,8,0,0,0-2.572-14.954,49.737,49.737,0,0,1-30.931-17.572,50.2,50.2,0,0,1,33.9,16A8,8,0,0,0,93.2,270.21a42.2,42.2,0,0,1-.479-34.255L96,228.309l3.276,7.646A42.2,42.2,0,0,1,98.8,270.21a8,8,0,0,0,13.15,8.769A50.188,50.188,0,0,1,145.844,262.978ZM424,440a8.009,8.009,0,0,1,8,8v8H80v-8a8.009,8.009,0,0,1,8-8ZM312.192,408a2,2,0,0,1,1.941,1.515L317.754,424H194.246l3.621-14.484A2,2,0,0,1,199.808,408ZM264.363,216l-.343,144h-16l.343-144ZM248.4,200l.019-8h16l-.019,8ZM272,376v16H240V376Zm48-216a8,8,0,0,0-5.656,2.343A46.326,46.326,0,0,1,281.373,176H230.627a46.326,46.326,0,0,1-32.971-13.657A8,8,0,0,0,192,160H72v-8H440v8Zm80.053,118.979a8,8,0,0,0,13.15-8.769,42.2,42.2,0,0,1-.479-34.255L416,228.309l3.276,7.646a42.2,42.2,0,0,1-.479,34.255,8,8,0,0,0,13.15,8.769,50.188,50.188,0,0,1,33.9-16,49.737,49.737,0,0,1-30.906,17.567,8,8,0,0,0-2.52,14.98,48.083,48.083,0,0,1,14.171,11.367,48.221,48.221,0,0,1-24.155-17.314,8,8,0,0,0-6.442-3.255h-.013a8,8,0,0,0-6.444,3.277,48.244,48.244,0,0,1-23.964,17.357A48.1,48.1,0,0,1,399.659,295.5a8,8,0,0,0-2.572-14.954,49.737,49.737,0,0,1-30.931-17.572A50.2,50.2,0,0,1,400.053,278.979Zm-21.946,12.578a64,64,0,0,0-6.3,6.992l1.975-9.087C375.2,290.21,376.638,290.912,378.107,291.557ZM365.49,327.605a15.766,15.766,0,0,0,4.507.126l17.234-4.587A64.065,64.065,0,0,0,408,313.333V344H361.926ZM480,367a9.01,9.01,0,0,1-9,9H361a9.01,9.01,0,0,1-9-9v-7H480Z"/></g></svg>
