<?xml version="1.0"?>
<svg xmlns="http://www.w3.org/2000/svg" viewBox="0 0 512 512" width="512" height="512"><g id="outline"><path d="M251.92,389.8a20.334,20.334,0,0,0,2.816.2,20.741,20.741,0,0,0,20.129-16.056l6.938-30.716a8,8,0,0,0-12.238-8.421l-26.209,17.458A20.6,20.6,0,0,0,251.92,389.8Zm.307-24.223,9.563-6.37-2.532,11.208a4.6,4.6,0,1,1-7.031-4.838Z"/><path d="M390,256a34.038,34.038,0,0,0,34-34V200a8,8,0,0,0-8-8H262.4V164.869a86.569,86.569,0,0,0,33.449,17.158l24.168,6.268a8,8,0,0,0,8.9-11.8l-8.427-14.328a86.359,86.359,0,0,0-18.825-22.29,88.777,88.777,0,0,0,44.973-37.531l4.218-7.03a8,8,0,0,0-5.291-11.961,89.558,89.558,0,0,0-63.026,10.872,78.224,78.224,0,0,0-5.908-38.654L261.753,20.849a8,8,0,0,0-14.706,0L232.165,55.573a78.236,78.236,0,0,0-5.909,38.654,89.559,89.559,0,0,0-63.025-10.872,8,8,0,0,0-5.291,11.961l4.218,7.03a88.766,88.766,0,0,0,45.126,37.589,86.353,86.353,0,0,0-18.755,22.472l-8.335,14.381a8,8,0,0,0,8.979,11.742l24.128-6.422a86.6,86.6,0,0,0,33.1-17.171V192H96a8,8,0,0,0-8,8v22a34.038,34.038,0,0,0,34,34h62v16h-8a8,8,0,0,0-6.247,3l-32,40a8,8,0,0,0-1.7,4.063L120.886,448H118a22.025,22.025,0,0,0-22,22v18a8,8,0,0,0,8,8H408a8,8,0,0,0,8-8V470a22.025,22.025,0,0,0-22-22h-2.886L375.945,319.065a8,8,0,0,0-1.7-4.063l-32-40A8,8,0,0,0,336,272h-8V256ZM209.186,166.647l-5.392,1.435a70.447,70.447,0,0,1,26.215-24.394,8,8,0,0,0-2.572-14.956,72.826,72.826,0,0,1-49.274-31.045A73.473,73.473,0,0,1,234.427,121.2a8,8,0,0,0,13.151-8.768,62.3,62.3,0,0,1-.707-50.56L254.4,44.309l7.529,17.567a62.3,62.3,0,0,1-.707,50.56,8,8,0,0,0,13.151,8.768,73.517,73.517,0,0,1,56.264-23.517,72.841,72.841,0,0,1-49.237,31.04,8,8,0,0,0-2.521,14.978,70.461,70.461,0,0,1,26.386,24.234l-5.4-1.4a70.684,70.684,0,0,1-39.035-26.433,8,8,0,0,0-6.441-3.254h-.014a8,8,0,0,0-6.444,3.277A70.708,70.708,0,0,1,209.186,166.647ZM394,464a6.006,6.006,0,0,1,6,6v10H112V470a6.006,6.006,0,0,1,6-6ZM332.155,288l28.167,35.209L375,448H137l14.681-124.791L179.845,288ZM200,272V256h16v16Zm32,0V256h48v16Zm64,0V256h16v16ZM122,240a18.021,18.021,0,0,1-18-18V208H408v14a18.021,18.021,0,0,1-18,18Z"/><path d="M256,440a72,72,0,1,0-72-72A72.081,72.081,0,0,0,256,440Zm-56-72a55.686,55.686,0,0,1,4.013-20.778l13.346,7.706,8-13.856-13.325-7.694A56,56,0,0,1,248,312.581V328h16V312.581a56,56,0,0,1,35.966,20.8l-13.325,7.693,8,13.856,13.346-7.706a55.8,55.8,0,0,1,0,41.556l-13.346-7.706-8,13.856,13.325,7.694A56,56,0,0,1,264,423.419V408H248v15.419a55.99,55.99,0,0,1-35.967-20.8l13.325-7.694-8-13.856-13.346,7.706A55.686,55.686,0,0,1,200,368Z"/></g></svg>
